<svg width="642" height="675" viewBox="0 0 642 675" fill="none" xmlns="http://www.w3.org/2000/svg">
<path d="M223.885 42.464C223.885 38.88 224.61 35.744 226.061 33.056C227.511 30.3253 229.495 28.2347 232.013 26.784C234.573 25.2907 237.453 24.544 240.653 24.544C243.725 24.544 246.498 25.2907 248.973 26.784C251.447 28.2773 253.261 30.2187 254.413 32.608V12.64H258.893V60H254.413V52.192C253.346 54.624 251.597 56.6293 249.165 58.208C246.733 59.744 243.874 60.512 240.589 60.512C237.389 60.512 234.509 59.7654 231.949 58.272C229.431 56.7787 227.447 54.6667 225.997 51.936C224.589 49.2053 223.885 46.048 223.885 42.464ZM254.413 42.528C254.413 39.712 253.837 37.2373 252.685 35.104C251.533 32.9707 249.954 31.328 247.949 30.176C245.986 29.024 243.81 28.448 241.421 28.448C238.946 28.448 236.727 29.0027 234.765 30.112C232.802 31.2213 231.245 32.8427 230.093 34.976C228.983 37.0667 228.429 39.5627 228.429 42.464C228.429 45.3227 228.983 47.84 230.093 50.016C231.245 52.1493 232.802 53.792 234.765 54.944C236.727 56.0533 238.946 56.608 241.421 56.608C243.81 56.608 245.986 56.032 247.949 54.88C249.954 53.728 251.533 52.0853 252.685 49.952C253.837 47.8187 254.413 45.344 254.413 42.528Z" fill="#E40000"/>
<path d="M180.697 42.4639C180.697 38.8799 181.401 35.7439 182.809 33.0559C184.26 30.3253 186.244 28.2346 188.761 26.7839C191.321 25.2906 194.201 24.5439 197.401 24.5439C200.729 24.5439 203.588 25.3119 205.977 26.8479C208.409 28.3839 210.158 30.3466 211.225 32.7359V25.0559H215.705V59.9999H211.225V52.2559C210.116 54.6453 208.345 56.6293 205.913 58.2079C203.524 59.7439 200.665 60.5119 197.337 60.5119C194.18 60.5119 191.321 59.7653 188.761 58.2719C186.244 56.7786 184.26 54.6666 182.809 51.9359C181.401 49.2053 180.697 46.0479 180.697 42.4639ZM211.225 42.5279C211.225 39.7119 210.649 37.2373 209.497 35.1039C208.345 32.9706 206.766 31.3279 204.761 30.1759C202.798 29.0239 200.622 28.4479 198.233 28.4479C195.758 28.4479 193.54 29.0026 191.577 30.1119C189.614 31.2213 188.057 32.8426 186.905 34.9759C185.796 37.0666 185.241 39.5626 185.241 42.4639C185.241 45.3226 185.796 47.8399 186.905 50.0159C188.057 52.1493 189.614 53.7919 191.577 54.9439C193.54 56.0533 195.758 56.6079 198.233 56.6079C200.622 56.6079 202.798 56.0319 204.761 54.8799C206.766 53.7279 208.345 52.0853 209.497 49.9519C210.649 47.8186 211.225 45.3439 211.225 42.5279Z" fill="#E40000"/>
<path d="M165.486 36.896C168.003 37.3654 170.136 38.6454 171.886 40.736C173.635 42.8267 174.51 45.2587 174.51 48.032C174.51 50.2934 173.934 52.3414 172.782 54.176C171.672 55.968 170.03 57.3974 167.854 58.464C165.678 59.488 163.075 60 160.046 60H144.558V15.264H159.598C164.12 15.264 167.555 16.3094 169.902 18.4C172.291 20.4907 173.486 23.2 173.486 26.528C173.486 29.3014 172.739 31.5627 171.246 33.312C169.752 35.0187 167.832 36.2134 165.486 36.896ZM149.038 35.04H159.47C162.499 35.04 164.824 34.336 166.446 32.928C168.11 31.4774 168.942 29.4934 168.942 26.976C168.942 24.5014 168.11 22.56 166.446 21.152C164.824 19.744 162.435 19.04 159.278 19.04H149.038V35.04ZM159.726 56.224C162.968 56.224 165.486 55.456 167.278 53.92C169.112 52.384 170.03 50.272 170.03 47.584C170.03 44.896 169.07 42.7627 167.15 41.184C165.272 39.5627 162.734 38.752 159.534 38.752H149.038V56.224H159.726Z" fill="#E40000"/>
<path d="M260.924 341.736C260.924 343.272 260.881 344.445 260.796 345.256H231.804C231.932 347.901 232.572 350.163 233.724 352.04C234.876 353.917 236.39 355.347 238.268 356.328C240.145 357.267 242.193 357.736 244.412 357.736C247.313 357.736 249.745 357.032 251.708 355.624C253.713 354.216 255.036 352.317 255.676 349.928H260.412C259.558 353.341 257.724 356.136 254.908 358.312C252.134 360.445 248.636 361.512 244.412 361.512C241.126 361.512 238.182 360.787 235.58 359.336C232.977 357.843 230.929 355.752 229.436 353.064C227.985 350.333 227.26 347.155 227.26 343.528C227.26 339.901 227.985 336.723 229.436 333.992C230.886 331.261 232.913 329.171 235.516 327.72C238.118 326.269 241.084 325.544 244.412 325.544C247.74 325.544 250.641 326.269 253.116 327.72C255.633 329.171 257.553 331.133 258.876 333.608C260.241 336.04 260.924 338.749 260.924 341.736ZM256.38 341.608C256.422 339.005 255.889 336.787 254.78 334.952C253.713 333.117 252.241 331.731 250.364 330.792C248.486 329.853 246.438 329.384 244.22 329.384C240.892 329.384 238.054 330.451 235.708 332.584C233.361 334.717 232.06 337.725 231.804 341.608H256.38Z" fill="#843E3E"/>
<path d="M200.776 325.544C204.061 325.544 206.92 326.312 209.352 327.848C211.784 329.384 213.533 331.325 214.6 333.672V326.056H219.08V361.896C219.08 365.096 218.376 367.933 216.968 370.408C215.603 372.883 213.683 374.781 211.208 376.104C208.733 377.469 205.917 378.152 202.76 378.152C198.28 378.152 194.547 377.085 191.56 374.952C188.616 372.819 186.781 369.917 186.056 366.248H190.472C191.24 368.68 192.691 370.621 194.824 372.072C197 373.523 199.645 374.248 202.76 374.248C205.021 374.248 207.048 373.757 208.84 372.776C210.632 371.837 212.04 370.429 213.064 368.552C214.088 366.675 214.6 364.456 214.6 361.896V353.256C213.491 355.645 211.72 357.629 209.288 359.208C206.899 360.744 204.061 361.512 200.776 361.512C197.576 361.512 194.696 360.765 192.136 359.272C189.619 357.779 187.635 355.667 186.184 352.936C184.776 350.205 184.072 347.048 184.072 343.464C184.072 339.88 184.776 336.744 186.184 334.056C187.635 331.325 189.619 329.235 192.136 327.784C194.696 326.291 197.576 325.544 200.776 325.544ZM214.6 343.528C214.6 340.712 214.024 338.237 212.872 336.104C211.72 333.971 210.141 332.328 208.136 331.176C206.173 330.024 203.997 329.448 201.608 329.448C199.133 329.448 196.915 330.003 194.952 331.112C192.989 332.221 191.432 333.843 190.28 335.976C189.171 338.067 188.616 340.563 188.616 343.464C188.616 346.323 189.171 348.84 190.28 351.016C191.432 353.149 192.989 354.792 194.952 355.944C196.915 357.053 199.133 357.608 201.608 357.608C203.997 357.608 206.173 357.032 208.136 355.88C210.141 354.728 211.72 353.085 212.872 350.952C214.024 348.819 214.6 346.344 214.6 343.528Z" fill="#843E3E"/>
<path d="M140.885 343.464C140.885 339.88 141.589 336.744 142.997 334.056C144.447 331.325 146.431 329.235 148.949 327.784C151.509 326.291 154.389 325.544 157.589 325.544C160.917 325.544 163.775 326.312 166.165 327.848C168.597 329.384 170.346 331.347 171.413 333.736V326.056H175.893V361H171.413V353.256C170.303 355.645 168.533 357.629 166.101 359.208C163.711 360.744 160.853 361.512 157.525 361.512C154.367 361.512 151.509 360.765 148.949 359.272C146.431 357.779 144.447 355.667 142.997 352.936C141.589 350.205 140.885 347.048 140.885 343.464ZM171.413 343.528C171.413 340.712 170.837 338.237 169.685 336.104C168.533 333.971 166.954 332.328 164.949 331.176C162.986 330.024 160.81 329.448 158.421 329.448C155.946 329.448 153.727 330.003 151.765 331.112C149.802 332.221 148.245 333.843 147.093 335.976C145.983 338.067 145.429 340.563 145.429 343.464C145.429 346.323 145.983 348.84 147.093 351.016C148.245 353.149 149.802 354.792 151.765 355.944C153.727 357.053 155.946 357.608 158.421 357.608C160.81 357.608 162.986 357.032 164.949 355.88C166.954 354.728 168.533 353.085 169.685 350.952C170.837 348.819 171.413 346.344 171.413 343.528Z" fill="#843E3E"/>
<path d="M124.225 332.264C125.206 330.088 126.7 328.403 128.705 327.208C130.753 326.013 133.249 325.416 136.193 325.416V330.088H134.977C131.734 330.088 129.132 330.963 127.169 332.712C125.206 334.461 124.225 337.384 124.225 341.48V361H119.745V326.056H124.225V332.264Z" fill="#843E3E"/>
<path d="M111.549 341.736C111.549 343.272 111.506 344.445 111.421 345.256H82.4285C82.5565 347.901 83.1965 350.163 84.3485 352.04C85.5005 353.917 87.0152 355.347 88.8925 356.328C90.7699 357.267 92.8179 357.736 95.0365 357.736C97.9379 357.736 100.37 357.032 102.333 355.624C104.338 354.216 105.661 352.317 106.301 349.928H111.037C110.183 353.341 108.349 356.136 105.533 358.312C102.759 360.445 99.2605 361.512 95.0365 361.512C91.7512 361.512 88.8072 360.787 86.2045 359.336C83.6019 357.843 81.5539 355.752 80.0605 353.064C78.6099 350.333 77.8845 347.155 77.8845 343.528C77.8845 339.901 78.6099 336.723 80.0605 333.992C81.5112 331.261 83.5379 329.171 86.1405 327.72C88.7432 326.269 91.7085 325.544 95.0365 325.544C98.3645 325.544 101.266 326.269 103.741 327.72C106.258 329.171 108.178 331.133 109.501 333.608C110.866 336.04 111.549 338.749 111.549 341.736ZM107.005 341.608C107.047 339.005 106.514 336.787 105.405 334.952C104.338 333.117 102.866 331.731 100.989 330.792C99.1112 329.853 97.0632 329.384 94.8445 329.384C91.5165 329.384 88.6792 330.451 86.3325 332.584C83.9859 334.717 82.6845 337.725 82.4285 341.608H107.005Z" fill="#843E3E"/>
<path d="M57.3485 356.648L69.1245 326.056H73.8605L59.8445 361H54.7885L40.7725 326.056H45.5725L57.3485 356.648Z" fill="#843E3E"/>
<path d="M29.1026 350.376H8.7506L4.8466 361H0.110596L16.4306 316.84H21.4866L37.7426 361H33.0066L29.1026 350.376ZM27.7586 346.664L18.9266 322.472L10.0946 346.664H27.7586Z" fill="#843E3E"/>
<path d="M223.885 644.464C223.885 640.88 224.61 637.744 226.061 635.056C227.511 632.325 229.495 630.235 232.013 628.784C234.573 627.291 237.453 626.544 240.653 626.544C243.725 626.544 246.498 627.291 248.973 628.784C251.447 630.277 253.261 632.219 254.413 634.608V614.64H258.893V662H254.413V654.192C253.346 656.624 251.597 658.629 249.165 660.208C246.733 661.744 243.874 662.512 240.589 662.512C237.389 662.512 234.509 661.765 231.949 660.272C229.431 658.779 227.447 656.667 225.997 653.936C224.589 651.205 223.885 648.048 223.885 644.464ZM254.413 644.528C254.413 641.712 253.837 639.237 252.685 637.104C251.533 634.971 249.954 633.328 247.949 632.176C245.986 631.024 243.81 630.448 241.421 630.448C238.946 630.448 236.727 631.003 234.765 632.112C232.802 633.221 231.245 634.843 230.093 636.976C228.983 639.067 228.429 641.563 228.429 644.464C228.429 647.323 228.983 649.84 230.093 652.016C231.245 654.149 232.802 655.792 234.765 656.944C236.727 658.053 238.946 658.608 241.421 658.608C243.81 658.608 245.986 658.032 247.949 656.88C249.954 655.728 251.533 654.085 252.685 651.952C253.837 649.819 254.413 647.344 254.413 644.528Z" fill="black"/>
<path d="M200.166 662.512C196.881 662.512 193.915 661.787 191.27 660.336C188.667 658.843 186.598 656.752 185.062 654.064C183.569 651.333 182.822 648.155 182.822 644.528C182.822 640.901 183.59 637.744 185.126 635.056C186.662 632.325 188.753 630.235 191.398 628.784C194.043 627.291 197.009 626.544 200.294 626.544C203.579 626.544 206.545 627.291 209.19 628.784C211.878 630.235 213.969 632.325 215.462 635.056C216.998 637.744 217.766 640.901 217.766 644.528C217.766 648.112 216.998 651.269 215.462 654C213.926 656.731 211.814 658.843 209.126 660.336C206.438 661.787 203.451 662.512 200.166 662.512ZM200.166 658.608C202.47 658.608 204.603 658.096 206.566 657.072C208.529 656.005 210.107 654.427 211.302 652.336C212.539 650.203 213.158 647.6 213.158 644.528C213.158 641.456 212.561 638.875 211.366 636.784C210.171 634.651 208.593 633.072 206.63 632.048C204.667 630.981 202.534 630.448 200.23 630.448C197.926 630.448 195.793 630.981 193.83 632.048C191.867 633.072 190.289 634.651 189.094 636.784C187.942 638.875 187.366 641.456 187.366 644.528C187.366 647.6 187.942 650.203 189.094 652.336C190.289 654.427 191.846 656.005 193.766 657.072C195.729 658.096 197.862 658.608 200.166 658.608Z" fill="black"/>
<path d="M159.104 662.512C155.818 662.512 152.853 661.787 150.208 660.336C147.605 658.843 145.536 656.752 144 654.064C142.506 651.333 141.76 648.155 141.76 644.528C141.76 640.901 142.528 637.744 144.064 635.056C145.6 632.325 147.69 630.235 150.336 628.784C152.981 627.291 155.946 626.544 159.232 626.544C162.517 626.544 165.482 627.291 168.128 628.784C170.816 630.235 172.906 632.325 174.4 635.056C175.936 637.744 176.704 640.901 176.704 644.528C176.704 648.112 175.936 651.269 174.4 654C172.864 656.731 170.752 658.843 168.064 660.336C165.376 661.787 162.389 662.512 159.104 662.512ZM159.104 658.608C161.408 658.608 163.541 658.096 165.504 657.072C167.466 656.005 169.045 654.427 170.24 652.336C171.477 650.203 172.096 647.6 172.096 644.528C172.096 641.456 171.498 638.875 170.304 636.784C169.109 634.651 167.53 633.072 165.568 632.048C163.605 630.981 161.472 630.448 159.168 630.448C156.864 630.448 154.73 630.981 152.768 632.048C150.805 633.072 149.226 634.651 148.032 636.784C146.88 638.875 146.304 641.456 146.304 644.528C146.304 647.6 146.88 650.203 148.032 652.336C149.226 654.427 150.784 656.005 152.704 657.072C154.666 658.096 156.8 658.608 159.104 658.608Z" fill="black"/>
<path d="M128.945 630.32C127.665 627.376 125.702 625.072 123.057 623.408C120.454 621.701 117.382 620.848 113.841 620.848C110.513 620.848 107.526 621.616 104.881 623.152C102.236 624.688 100.145 626.885 98.609 629.744C97.073 632.56 96.305 635.845 96.305 639.6C96.305 643.355 97.073 646.661 98.609 649.52C100.145 652.379 102.236 654.576 104.881 656.112C107.526 657.648 110.513 658.416 113.841 658.416C116.956 658.416 119.75 657.755 122.225 656.432C124.742 655.067 126.748 653.147 128.241 650.672C129.777 648.155 130.652 645.232 130.865 641.904H112.049V638.256H135.601V641.52C135.388 645.445 134.321 649.008 132.401 652.208C130.481 655.365 127.9 657.861 124.657 659.696C121.457 661.531 117.852 662.448 113.841 662.448C109.702 662.448 105.948 661.488 102.577 659.568C99.2064 657.605 96.5397 654.896 94.577 651.44C92.657 647.941 91.697 643.995 91.697 639.6C91.697 635.205 92.657 631.28 94.577 627.824C96.5397 624.325 99.2064 621.616 102.577 619.696C105.948 617.733 109.702 616.752 113.841 616.752C118.62 616.752 122.801 617.947 126.385 620.336C129.969 622.725 132.572 626.053 134.193 630.32H128.945Z" fill="black"/>
<path d="M549.445 36C549.445 24.992 551.557 16.32 555.781 9.98398C560.069 3.64798 566.949 0.47998 576.421 0.47998C585.893 0.47998 592.741 3.64798 596.965 9.98398C601.253 16.32 603.397 24.992 603.397 36C603.397 47.136 601.253 55.872 596.965 62.208C592.741 68.544 585.893 71.712 576.421 71.712C566.949 71.712 560.069 68.544 555.781 62.208C551.557 55.872 549.445 47.136 549.445 36ZM587.269 36C587.269 29.536 586.565 24.576 585.157 21.12C583.749 17.6 580.837 15.84 576.421 15.84C572.005 15.84 569.093 17.6 567.685 21.12C566.277 24.576 565.573 29.536 565.573 36C565.573 40.352 565.829 43.968 566.341 46.848C566.853 49.664 567.877 51.968 569.413 53.76C571.013 55.488 573.349 56.352 576.421 56.352C579.493 56.352 581.797 55.488 583.333 53.76C584.933 51.968 585.989 49.664 586.501 46.848C587.013 43.968 587.269 40.352 587.269 36Z" fill="black"/>
<path d="M511.623 17.184V1.92004H538.215V72H521.127V17.184H511.623Z" fill="black"/>
<path d="M500.576 31.488V45.12H458.336V31.488H500.576Z" fill="black"/>
<path d="M419.842 17.184V1.92004H446.434V72H429.346V17.184H419.842Z" fill="black"/>
<path d="M576.867 337C576.867 325.992 578.979 317.32 583.203 310.984C587.491 304.648 594.371 301.48 603.843 301.48C613.315 301.48 620.163 304.648 624.387 310.984C628.675 317.32 630.819 325.992 630.819 337C630.819 348.136 628.675 356.872 624.387 363.208C620.163 369.544 613.315 372.712 603.843 372.712C594.371 372.712 587.491 369.544 583.203 363.208C578.979 356.872 576.867 348.136 576.867 337ZM614.691 337C614.691 330.536 613.987 325.576 612.579 322.12C611.171 318.6 608.259 316.84 603.843 316.84C599.427 316.84 596.515 318.6 595.107 322.12C593.699 325.576 592.995 330.536 592.995 337C592.995 341.352 593.251 344.968 593.763 347.848C594.275 350.664 595.299 352.968 596.835 354.76C598.435 356.488 600.771 357.352 603.843 357.352C606.915 357.352 609.219 356.488 610.755 354.76C612.355 352.968 613.411 350.664 613.923 347.848C614.435 344.968 614.691 341.352 614.691 337Z" fill="black"/>
<path d="M521.447 359.848C523.623 358.12 524.615 357.32 524.423 357.448C530.695 352.264 535.623 348.008 539.207 344.68C542.855 341.352 545.927 337.864 548.423 334.216C550.919 330.568 552.167 327.016 552.167 323.56C552.167 320.936 551.559 318.888 550.343 317.416C549.127 315.944 547.303 315.208 544.871 315.208C542.439 315.208 540.519 316.136 539.111 317.992C537.767 319.784 537.095 322.344 537.095 325.672H521.255C521.383 320.232 522.535 315.688 524.711 312.04C526.951 308.392 529.863 305.704 533.447 303.976C537.095 302.248 541.127 301.384 545.543 301.384C553.159 301.384 558.887 303.336 562.727 307.24C566.631 311.144 568.583 316.232 568.583 322.504C568.583 329.352 566.247 335.72 561.575 341.608C556.903 347.432 550.951 353.128 543.719 358.696H569.639V372.04H521.447V359.848Z" fill="black"/>
<path d="M509.248 332.488V346.12H467.008V332.488H509.248Z" fill="black"/>
<path d="M428.514 318.184V302.92H455.106V373H438.018V318.184H428.514Z" fill="black"/>
<path d="M392.42 318.184V302.92H419.012V373H401.924V318.184H392.42Z" fill="black"/>
<path d="M587.882 638C587.882 626.992 589.994 618.32 594.218 611.984C598.506 605.648 605.386 602.48 614.858 602.48C624.33 602.48 631.178 605.648 635.402 611.984C639.69 618.32 641.834 626.992 641.834 638C641.834 649.136 639.69 657.872 635.402 664.208C631.178 670.544 624.33 673.712 614.858 673.712C605.386 673.712 598.506 670.544 594.218 664.208C589.994 657.872 587.882 649.136 587.882 638ZM625.706 638C625.706 631.536 625.002 626.576 623.594 623.12C622.186 619.6 619.274 617.84 614.858 617.84C610.442 617.84 607.53 619.6 606.122 623.12C604.714 626.576 604.01 631.536 604.01 638C604.01 642.352 604.266 645.968 604.778 648.848C605.29 651.664 606.314 653.968 607.85 655.76C609.45 657.488 611.786 658.352 614.858 658.352C617.93 658.352 620.234 657.488 621.77 655.76C623.37 653.968 624.426 651.664 624.938 648.848C625.45 645.968 625.706 642.352 625.706 638Z" fill="black"/>
<path d="M530.333 623.696C530.589 616.848 532.829 611.568 537.053 607.856C541.277 604.144 547.005 602.288 554.237 602.288C559.037 602.288 563.133 603.12 566.525 604.784C569.981 606.448 572.573 608.72 574.301 611.6C576.093 614.48 576.989 617.712 576.989 621.296C576.989 625.52 575.933 628.976 573.821 631.664C571.709 634.288 569.245 636.08 566.429 637.04V637.424C570.077 638.64 572.957 640.656 575.069 643.472C577.181 646.288 578.237 649.904 578.237 654.32C578.237 658.288 577.309 661.808 575.453 664.88C573.661 667.888 571.005 670.256 567.485 671.984C564.029 673.712 559.901 674.576 555.101 674.576C547.421 674.576 541.277 672.688 536.669 668.912C532.125 665.136 529.725 659.44 529.469 651.824H545.405C545.469 654.64 546.269 656.88 547.805 658.544C549.341 660.144 551.581 660.944 554.525 660.944C557.021 660.944 558.941 660.24 560.285 658.832C561.693 657.36 562.397 655.44 562.397 653.072C562.397 650 561.405 647.792 559.421 646.448C557.501 645.04 554.397 644.336 550.109 644.336H547.037V630.992H550.109C553.373 630.992 555.997 630.448 557.981 629.36C560.029 628.208 561.053 626.192 561.053 623.312C561.053 621.008 560.413 619.216 559.133 617.936C557.853 616.656 556.093 616.016 553.853 616.016C551.421 616.016 549.597 616.752 548.381 618.224C547.229 619.696 546.557 621.52 546.365 623.696H530.333Z" fill="black"/>
<path d="M516.982 633.488V647.12H474.742V633.488H516.982Z" fill="black"/>
<path d="M436.248 619.184V603.92H462.84V674H445.752V619.184H436.248Z" fill="black"/>
<path d="M382.557 660.848C384.733 659.12 385.725 658.32 385.533 658.448C391.805 653.264 396.733 649.008 400.317 645.68C403.965 642.352 407.037 638.864 409.533 635.216C412.029 631.568 413.277 628.016 413.277 624.56C413.277 621.936 412.669 619.888 411.453 618.416C410.237 616.944 408.413 616.208 405.981 616.208C403.549 616.208 401.629 617.136 400.221 618.992C398.877 620.784 398.205 623.344 398.205 626.672H382.365C382.493 621.232 383.645 616.688 385.821 613.04C388.061 609.392 390.973 606.704 394.557 604.976C398.205 603.248 402.237 602.384 406.653 602.384C414.269 602.384 419.997 604.336 423.837 608.24C427.741 612.144 429.693 617.232 429.693 623.504C429.693 630.352 427.357 636.72 422.685 642.608C418.013 648.432 412.061 654.128 404.829 659.696H430.749V673.04H382.557V660.848Z" fill="black"/>
<path d="M499 106H507V238H499V106Z" fill="#C97A7A"/>
<path d="M499 440H507V572H499V440Z" fill="#C97A7A"/>
</svg>
