<svg id="eWjCoBtlX2g1" xmlns="http://www.w3.org/2000/svg" xmlns:xlink="http://www.w3.org/1999/xlink" viewBox="0 0 900 600" shape-rendering="geometricPrecision" text-rendering="geometricPrecision" project-id="5f06c21fe47e4cf0808224d6ff4f5ff5" export-id="f414b01e3f2b4f9a9b2d53645e143ae2" cached="false"><g mask="url(#eWjCoBtlX2g33)"><g id="eWjCoBtlX2g3" transform="matrix(.84-.088288 0 0.74-298.247301 291.720993)" opacity="0.47"><g><path d="M21.8,70.5c0,2.2-.6,4-1.7,5.4s-2.8,2-5,2-3.8-.7-4.9-2-1.7-3.1-1.7-5.4h-8.5c0,4.6,1.4,8.2,4.2,10.9s6.5,4,11,4s8.2-1.3,11-4s4.2-6.3,4.2-10.9v-37.1h-8.5v37.1h-.1Z" fill="#2167db" stroke-width="0"/><path d="M114.8,42.5c2.7-1.5,5.7-2.3,9.1-2.3s5.8.7,8.2,2s4.2,3.4,5.6,6.1h10.1c-1.9-4.9-5-8.7-9.3-11.4s-9.1-4-14.6-4-9.2,1.1-13.2,3.4c-4,2.2-7.2,5.4-9.5,9.4s-3.5,8.5-3.5,13.5s1.2,9.5,3.5,13.5s5.5,7.1,9.5,9.4c4,2.2,8.4,3.4,13.2,3.4s10.3-1.3,14.6-4s7.4-6.5,9.3-11.4h-10.1c-1.3,2.7-3.2,4.7-5.6,6.1s-5.1,2-8.2,2-6.4-.8-9.1-2.3c-2.7-1.6-4.7-3.8-6.3-6.6-1.5-2.9-2.3-6.2-2.3-10s.8-7.1,2.3-10s3.6-5.1,6.3-6.6v-.2Z" fill="#2167db" stroke-width="0"/><path d="M198.8,36.2c-4-2.2-8.4-3.4-13.3-3.4s-9.2,1.1-13.2,3.4c-4,2.2-7.2,5.4-9.5,9.4s-3.5,8.5-3.5,13.5s1.2,9.6,3.5,13.6s5.5,7.2,9.5,9.4s8.4,3.4,13.2,3.4s9.3-1.1,13.3-3.4c4-2.2,7.2-5.4,9.5-9.4s3.5-8.5,3.5-13.6-1.2-9.5-3.5-13.5-5.5-7.1-9.5-9.4Zm2.1,32.9c-1.5,2.9-3.6,5.1-6.3,6.7s-5.7,2.3-9.1,2.3-6.4-.8-9.1-2.3c-2.7-1.6-4.7-3.8-6.3-6.7-1.5-2.9-2.3-6.2-2.3-10s.8-7.1,2.3-10s3.6-5.1,6.3-6.6s5.7-2.3,9.1-2.3s6.4.8,9.1,2.3s4.7,3.7,6.3,6.6c1.5,2.9,2.3,6.2,2.3,10s-.8,7.1-2.3,10Z" fill="#2167db" stroke-width="0"/><path d="M261.1,62.8c-1.9-2.4-4.3-3.9-7-4.4c2.7-.9,4.8-2.4,6.4-4.4s2.4-4.4,2.4-7.4-.6-4.7-1.9-6.7-3.2-3.6-5.7-4.8-5.5-1.8-9-1.8h-19.6v51.4h20.6c3.4,0,6.4-.6,9-1.8s4.5-2.9,5.9-5s2-4.5,2-7.1-1-5.8-2.9-8.2l-.2.2ZM234.9,40.3h10.4c2.8,0,4.9.7,6.5,2s2.3,3.1,2.3,5.4-.8,4.2-2.3,5.4c-1.6,1.3-3.7,1.9-6.5,1.9h-10.4v-14.7Zm18.2,35.6c-1.6,1.4-3.9,2.1-6.7,2.1h-11.4v-16.1h11.1c2.9,0,5.2.7,6.9,2.2s2.6,3.5,2.6,6-.8,4.4-2.4,5.8h-.1Z" fill="#2167db" stroke-width="0"/><path d="M61.4,33.4L43,84.9h8.8l3.7-10.5l2.4-6.9v0-.4h16.7v.4c.1,0,2.5,6.9,2.5,6.9l3.7,10.5h8.9L71.3,33.4h-9.8-.1Zm-1,26.9l5.9-16.7l5.9,16.7h-11.8Z" fill="#2167db" stroke-width="0"/></g><g><path d="M91.1,109.1h-30v50h10v-20h10v10h10v-20h10v-10h-10v-10Zm-.4,20h-19.6v-10h19.6v10Z" stroke-width="0"/><rect width="10" height="10" rx="0" ry="0" transform="translate(91.1 149.1)" stroke-width="0"/><path d="M196.8,109.1h-20v10h-10v40h10v-20h20v20h10v-40h-10v-10Zm0,20h-20v-9.6h20v9.6Z" stroke-width="0"/><rect width="10" height="50" rx="0" ry="0" transform="translate(268.5 109.1)" stroke-width="0"/><rect width="10" height="20" rx="0" ry="0" transform="translate(289.9 109.1)" stroke-width="0"/><rect width="10" height="20" rx="0" ry="0" transform="translate(329.9 109.1)" stroke-width="0"/><rect width="10" height="20" rx="0" ry="0" transform="translate(299.9 129.1)" stroke-width="0"/><rect width="10" height="20" rx="0" ry="0" transform="translate(319.9 129.1)" stroke-width="0"/><rect width="10" height="10" rx="0" ry="0" transform="translate(309.9 149.1)" stroke-width="0"/><polygon points="380.2,119.1 380.2,109.1 350.2,109.1 350.2,159.1 380.2,159.1 380.2,149.1 360.2,149.1 360.2,139.1 380.2,139.1 380.2,129.1 360.2,129.1 360.2,119.1 380.2,119.1" stroke-width="0"/><polygon points="0.7,129.1 0.7,139.1 0.7,149.1 10.7,149.1 10.7,139.1 10.7,129.1 10.7,119.1 0.7,119.1 0.7,129.1" stroke-width="0"/><polygon points="247.6,109.1 227.6,109.1 222.6,109.1 217.6,109.1 217.6,119.1 222.6,119.1 227.6,119.1 232.6,119.1 232.6,159.1 242.6,159.1 242.6,119.1 247.6,119.1 252.6,119.1 257.6,119.1 257.6,109.1 252.6,109.1 247.6,109.1" stroke-width="0"/><polygon points="141.5,129.1 126.4,129.1 126.4,119.1 141.3,119.1 146.4,119.1 151.3,119.1 151.3,109.1 146.4,109.1 141.3,109.1 116.4,109.1 116.4,159.1 141.5,159.1 146.4,159.1 151.5,159.1 151.5,149.1 146.4,149.1 141.5,149.1 126.4,149.1 126.4,139.1 141.5,139.1 146.4,139.1 151.5,139.1 151.5,129.1 146.4,129.1 141.5,129.1" stroke-width="0"/><polygon points="15.7,159.1 20.7,159.1 35.7,159.1 35.7,149.1 22.4,149.1 20.7,149.1 15.7,149.1 10.7,149.1 10.7,159.1 15.7,159.1" stroke-width="0"/><rect width="10" height="10" rx="0" ry="0" transform="translate(35.7 139.1)" stroke-width="0"/><polygon points="20.7,109.1 15.7,109.1 10.7,109.1 10.7,119.1 15.7,119.1 20.7,119.1 22.4,119.1 35.7,119.1 35.7,109.1 20.7,109.1" stroke-width="0"/><rect width="10" height="10" rx="0" ry="0" transform="translate(35.7 119.1)" stroke-width="0"/></g></g><mask id="eWjCoBtlX2g33" mask-type="luminance" x="-150%" y="-150%" height="400%" width="400%"><rect width="834.835304" height="580.844838" rx="0" ry="0" transform="translate(65.164696 3.843854)" fill="#d2dbed" stroke-width="0"/></mask></g><g id="eWjCoBtlX2g35" transform="matrix(1.36 0 0 1.36 28.570365 159.582112)"><g><g><path d="M103.6,67.3c-.5,1.7-2,2.8-3.7,2.8s-.7,0-1-.1L75.8,63.6L62.6,83.2c-.7,1.1-1.9,1.7-3.2,1.7s-1.5-.2-2.1-.7c-1.7-1.2-2.2-3.5-1-5.3L68.1,61.4L47.8,55.7c-2-.6-3.2-2.7-2.6-4.7s2.7-3.2,4.7-2.7l22.8,6.3L85.9,35c1.2-1.7,3.5-2.2,5.3-1c1.7,1.2,2.2,3.5,1,5.3L80.4,56.8L101,62.6c2,.6,3.2,2.7,2.7,4.7h-.1Z" fill="#feda29" stroke-width="0"/><path d="M195.2,111.5c-9.7,46.9-36.2,61.1-47.1,65-29.4,10.6-61.8,2-62.1,1.9l-1-.3c-.8-.2-1.6,0-2.2.6l-.7.7c-.2.2-22.9,24.4-40.9,17.9-16.8-6.1-15.6-23.2-13-40.2v-.8c.2-.5,0-1-.2-1.4l-.5-.7c-.1-.2-11.9-15.5-17.3-37.5C3,87.6,9.9,61,30.5,37.7c30.4-34,76.2-35.6,109-22.6l-12.8,5.5c-1.9.8-2.8,3.1-2,5s3.1,2.8,5,2l34.1-14.8L155,36.2c-.7,2,.2,4.2,2.2,4.9.4.2.9.2,1.4.2c1.5,0,3-.9,3.6-2.5l3.1-8.3c6.7,6,11.2,12.6,13.4,19.3-5.5.6-15.5,2.1-26.8,5.6C137,60,124.5,66.8,114.8,75.3c-.6.4-1,.9-1.5,1.4-4.3,4-8,8.3-11,13-.8.8-1.5.8-4.9-.7-2.6-1.1-5.8-2.6-9.8-2.2C73.8,88,63.8,98.3,60.9,114.4c-2,11.2,2.3,21.7,11.5,28.1c10.4,7.2,24.5,7.2,36.8-.1c9.4-5.6,16.3-12.2,23-18.7c10-9.6,20.3-19.5,39.4-26.8c9.7-3.7,18.6-4.6,22.8-4.8c1,3.7,2.5,11,.8,19.4Z" fill="#feda29" stroke-width="0"/></g><g><path d="M174.7,58.1l9.5,27.5c-4.4.8-9.7,2.1-15.2,4.2-3.1,1.2-5.9,2.4-8.6,3.7L150.3,64c9.4-3.3,18.3-5,24.5-6l-.1.1Z" fill="#fff" stroke-width="0"/><path d="M143.2,66.8l10.4,30.3c-8.7,5-15.3,10.6-21.3,16.2L120.9,80.1c6.8-5.7,14.6-10.1,22.2-13.3h.1Z" fill="#fff" stroke-width="0"/><path d="M79.9,97l14.7,42.9c-6.4,1.1-12.8,0-17.9-3.6-6.7-4.6-9.8-12.3-8.4-20.5.7-3.7,3.2-13.9,11.5-18.8h.1Z" fill="#fff" stroke-width="0"/><path d="M114.9,85.9l11.4,33.2c-6.4,6.2-12.6,12-20.8,16.9-1.1.7-2.3,1.3-3.5,1.8L87.2,94.6c.4,0,.8,0,1.2-.1c2-.2,4,.7,6,1.6c3.5,1.5,8.7,3.8,13.6-1.1l.3-.3.2-.3c1.9-3,4.1-5.8,6.4-8.4v-.1Z" fill="#fff" stroke-width="0"/></g><path d="M101,62.6L80.4,56.8L92.2,39.3c1.2-1.7.7-4.1-1-5.3s-4.1-.7-5.3,1L72.7,54.6L49.9,48.3c-2-.6-4.1.6-4.7,2.7-.6,2,.6,4.1,2.6,4.7l20.3,5.7L56.3,78.9c-1.2,1.7-.7,4.1,1,5.3.7.5,1.4.7,2.1.7c1.2,0,2.4-.6,3.2-1.7L75.8,63.6L98.9,70c.3,0,.7.1,1,.1c1.7,0,3.2-1.1,3.7-2.8.6-2-.6-4.1-2.7-4.7h.1Zm0,0L80.4,56.8L92.2,39.3c1.2-1.7.7-4.1-1-5.3s-4.1-.7-5.3,1L72.7,54.6L49.9,48.3c-2-.6-4.1.6-4.7,2.7-.6,2,.6,4.1,2.6,4.7l20.3,5.7L56.3,78.9c-1.2,1.7-.7,4.1,1,5.3.7.5,1.4.7,2.1.7c1.2,0,2.4-.6,3.2-1.7L75.8,63.6L98.9,70c.3,0,.7.1,1,.1c1.7,0,3.2-1.1,3.7-2.8.6-2-.6-4.1-2.7-4.7h.1Zm0,0L80.4,56.8L92.2,39.3c1.2-1.7.7-4.1-1-5.3s-4.1-.7-5.3,1L72.7,54.6L49.9,48.3c-2-.6-4.1.6-4.7,2.7-.6,2,.6,4.1,2.6,4.7l20.3,5.7L56.3,78.9c-1.2,1.7-.7,4.1,1,5.3.7.5,1.4.7,2.1.7c1.2,0,2.4-.6,3.2-1.7L75.8,63.6L98.9,70c.3,0,.7.1,1,.1c1.7,0,3.2-1.1,3.7-2.8.6-2-.6-4.1-2.7-4.7h.1Zm0,0L80.4,56.8L92.2,39.3c1.2-1.7.7-4.1-1-5.3s-4.1-.7-5.3,1L72.7,54.6L49.9,48.3c-2-.6-4.1.6-4.7,2.7-.6,2,.6,4.1,2.6,4.7l20.3,5.7L56.3,78.9c-1.2,1.7-.7,4.1,1,5.3.7.5,1.4.7,2.1.7c1.2,0,2.4-.6,3.2-1.7L75.8,63.6L98.9,70c.3,0,.7.1,1,.1c1.7,0,3.2-1.1,3.7-2.8.6-2-.6-4.1-2.7-4.7h.1Zm99.7,24.2l-.5-1.3c-.3-.6-.8-1-1.5-1.1h-1.4c-.2,0-2.2,0-5.5.2l-9.4-27.5c.7,0,1.2,0,1.2,0h.5c2-.1,3.5-2,3.1-4v-.5C185.1,42,178.6,31.8,168,23l3.4-8.9c1-2.6.3-5.6-1.7-7.5s-5-2.5-7.6-1.4L149,10.9C113.5,-6,59.8,-6.5,24.9,32.8C-3.1,64.3,-2.5,97,3,118.9c5,19.9,14.5,34.4,17.7,38.8-2.2,14.2-5,38.6,18.2,47c3,1.1,6,1.5,9.1,1.5c16.9,0,33.3-14.8,38.4-19.8c8.2,1.9,37.1,7.3,64.5-2.6c14.7-5.3,27-15.7,36.5-30.9c9-14.3,13.4-29.5,15.5-39.8c2.9-14.2-1.8-25.8-2-26.2l-.2-.1ZM85.1,178.2c-.8-.2-1.6,0-2.2.6l-.7.7c-.2.2-22.9,24.4-40.9,17.9-16.8-6.1-15.6-23.2-13-40.2v-.8c.2-.5,0-1-.2-1.4l-.5-.7c-.1-.2-11.9-15.5-17.3-37.5-7.2-29.1-.3-55.7,20.3-79C60.9,3.7,106.7,2.1,139.5,15.1l-12.8,5.5c-1.9.8-2.8,3.1-2,5s3.1,2.8,5,2l34.1-14.8L155,36.2c-.7,2,.2,4.2,2.2,4.9.4.2.9.2,1.4.2c1.5,0,3-.9,3.6-2.5l3.1-8.3c6.7,6,11.2,12.6,13.4,19.3-5.5.6-15.5,2.1-26.8,5.6C137,60,124.5,66.8,114.8,75.3c-.6.4-1,.9-1.5,1.4-4.3,4-8,8.3-11,13-.8.8-1.5.8-4.9-.7-2.6-1.1-5.8-2.6-9.8-2.2C73.8,88,63.8,98.3,60.9,114.4c-2,11.2,2.3,21.7,11.5,28.1c10.4,7.2,24.5,7.2,36.8-.1c9.4-5.6,16.3-12.2,23-18.7c10-9.6,20.3-19.5,39.4-26.8c9.7-3.7,18.6-4.6,22.8-4.8c1,3.7,2.5,11,.8,19.4-9.7,46.9-36.2,61.1-47.1,65-29.4,10.6-61.8,2-62.1,1.9l-1-.3.1.1Zm2-83.6c.4,0,.8-.1,1.2-.1c2-.2,3.9.7,6,1.6c3.5,1.5,8.7,3.8,13.6-1.1l.3-.3.2-.4c1.9-3,4.1-5.8,6.4-8.3l11.4,33.2c-6.4,6.2-12.6,12-20.8,16.9-1.1.7-2.3,1.3-3.5,1.8L87.1,94.7v-.1ZM94.7,140c-6.4,1.1-12.8,0-17.9-3.6-6.7-4.6-9.8-12.3-8.4-20.5.6-3.7,3.2-13.9,11.5-18.8L94.6,140h.1Zm26.2-59.9c6.8-5.7,14.6-10.1,22.2-13.3l10.4,30.3c-8.7,5-15.3,10.6-21.3,16.2L120.8,80.1h.1Zm29.4-16c9.4-3.3,18.3-5,24.5-6l9.5,27.5c-4.4.8-9.7,2.1-15.2,4.2-3.1,1.2-5.9,2.4-8.6,3.7L150.4,64l-.1.1Zm-87.7,19L75.8,63.5l23.1,6.4c.3,0,.7.1,1,.1c1.7,0,3.2-1.1,3.7-2.8.6-2-.6-4.1-2.7-4.7L80.3,56.7L92.1,39.2c1.2-1.7.7-4.1-1-5.3s-4.1-.7-5.3,1L72.6,54.5L49.8,48.2c-2-.6-4.1.6-4.7,2.7-.6,2,.6,4.1,2.6,4.7L68,61.3L56.2,78.8c-1.2,1.7-.7,4.1,1,5.3.7.5,1.4.7,2.1.7c1.2,0,2.4-.6,3.2-1.7h.1ZM101,62.6L80.4,56.8L92.2,39.3c1.2-1.7.7-4.1-1-5.3s-4.1-.7-5.3,1L72.7,54.6L49.9,48.3c-2-.6-4.1.6-4.7,2.7-.6,2,.6,4.1,2.6,4.7l20.3,5.7L56.3,78.9c-1.2,1.7-.7,4.1,1,5.3.7.5,1.4.7,2.1.7c1.2,0,2.4-.6,3.2-1.7L75.8,63.6L98.9,70c.3,0,.7.1,1,.1c1.7,0,3.2-1.1,3.7-2.8.6-2-.6-4.1-2.7-4.7h.1Zm0,0L80.4,56.8L92.2,39.3c1.2-1.7.7-4.1-1-5.3s-4.1-.7-5.3,1L72.7,54.6L49.9,48.3c-2-.6-4.1.6-4.7,2.7-.6,2,.6,4.1,2.6,4.7l20.3,5.7L56.3,78.9c-1.2,1.7-.7,4.1,1,5.3.7.5,1.4.7,2.1.7c1.2,0,2.4-.6,3.2-1.7L75.8,63.6L98.9,70c.3,0,.7.1,1,.1c1.7,0,3.2-1.1,3.7-2.8.6-2-.6-4.1-2.7-4.7h.1Z" fill="#2167db" stroke-width="0"/><path d="M194.5,92.2c-4.2.2-13.1,1.1-22.8,4.8-19.1,7.3-29.4,17.2-39.4,26.8-6.7,6.5-13.7,13.1-23,18.7-12.3,7.3-26.4,7.4-36.8.1-9.2-6.4-13.5-16.9-11.5-28.1C63.9,98.4,73.8,88,87.7,86.9c3.9-.3,7.2,1.1,9.8,2.2c3.4,1.5,4,1.5,4.9.7c3-4.7,6.7-9,11-13c.5-.5,1-1,1.5-1.4c9.7-8.5,22.2-15.3,37.1-19.9c11.3-3.5,21.3-5,26.8-5.6-2.2-6.7-6.8-13.3-13.4-19.3l-3.1,8.3c-.6,1.5-2,2.5-3.6,2.5s-.9,0-1.4-.2c-2-.7-2.9-2.9-2.2-4.9l8.8-23.4-34.1,14.8c-1.9.8-4.2,0-5-2-.8-1.9,0-4.2,2-5l12.8-5.5C106.7,2.1,60.9,3.7,30.6,37.8C9.9,61.1,3.1,87.7,10.3,116.8c5.4,22,17.2,37.4,17.3,37.5l.5.7c.3.4.4.9.4,1.4v.8c-2.8,17-3.9,34.2,12.9,40.2c18,6.5,40.6-17.7,40.9-17.9l.7-.7c.6-.6,1.4-.8,2.2-.6l1,.3c.3,0,32.8,8.7,62.1-1.9c10.9-3.9,37.4-18.2,47.1-65c1.7-8.3.3-15.7-.8-19.4h-.1Zm-137.1-8c-1.7-1.2-2.2-3.5-1-5.3L68.2,61.4L47.9,55.7c-2-.6-3.2-2.7-2.6-4.7s2.7-3.2,4.7-2.7l22.8,6.3L86,35c1.2-1.7,3.5-2.2,5.3-1c1.7,1.2,2.2,3.5,1,5.3L80.5,56.8l20.6,5.8c2,.6,3.2,2.7,2.7,4.7-.5,1.7-2,2.8-3.7,2.8s-.7,0-1-.1L76,63.6L62.8,83.2c-.7,1.1-1.9,1.7-3.2,1.7s-1.5-.2-2.1-.7h-.1Z" fill="#feda29" stroke-width="0"/></g></g><g id="eWjCoBtlX2g52" transform="matrix(1.285905-.442773 0.442773 1.285905-11.60726 210.625713)" opacity="0"><g><path d="M2421.7,2118.9l19.9,57.9c-9.3,1.6-20.3,4.3-32,8.8-6.5,2.5-12.5,5.1-18.1,7.8l-21.2-61.9c19.8-6.9,38.4-10.6,51.4-12.5v-.1Z" fill="#fff" stroke-width="0"/><path d="M2355.4,2137.1l21.9,63.7c-18.3,10.5-32.1,22.2-44.7,33.9l-23.9-69.7c14.3-12,30.6-21.1,46.7-27.9Z" fill="#fff" stroke-width="0"/><path d="M2222.6,2200.6l31,90.2c-13.5,2.3-26.8-.2-37.5-7.6-14.1-9.7-20.6-25.9-17.6-43.1c1.4-7.7,6.7-29.2,24.1-39.5Z" fill="#fff" stroke-width="0"/><path d="M2296,2177.2l23.9,69.7c-13.5,12.9-26.4,25.1-43.8,35.5-2.4,1.4-4.8,2.7-7.3,3.8l-31.1-90.7c.8-.1,1.6-.2,2.5-.3c4.2-.4,8.3,1.5,12.7,3.4c7.2,3.2,18.2,8,28.5-2.4l.6-.6.5-.7c4-6.4,8.6-12.2,13.5-17.6v-.1Z" fill="#fff" stroke-width="0"/></g><g><g><path d="M4.5,96c0,.2,0,.5,0,.7v-.7v0Z" fill="#feda29" stroke-width="0"/><path d="M187.1,97v-11.8c-1-.2-2.1-.4-3.3-.6-5.9-.9-13.4-1.8-21.8-1.8v4c0,0,0,10.3,0,10.3c9.7-.8,18.2-.7,25.1-.1Z" fill="#fff" stroke-width="0"/><path d="M129.1,102.7c9-2.3,17.5-3.9,25.4-4.8v-14.8c-.6,0-1.2.1-1.9.2-7.8.7-15.8,2.2-23.5,5.2v14.3-.1Z" fill="#fff" stroke-width="0"/><path d="M65.2,116.9c6.4-.2,13-.8,19.6-1.8v-24c-3.7.8-6.8,2.6-9.3,4.7-2,1.6-3.6,3.5-4.9,5.2s-2.2,3.2-2.8,4.2c-1.3,2.3-2.1,4.6-2.5,7-.3,1.6-.3,3.2-.2,4.8l.1-.1Z" fill="#fff" stroke-width="0"/><path d="M109.6,108.8c4-1.5,8-2.8,11.9-3.9v-12.9c-.6.3-1.1.6-1.7,1-2.4,1.4-4.8,3-7.1,4.8l-.3.3v0c0,0-.4.2-.4.2-2.3,1.1-4.3,1.3-6,1-3.1-.6-5.4-2.7-7.2-4.3-1.7-1.5-3.2-3-5.2-3.5-.3,0-.5-.1-.8-.2-.1,0-.3,0-.4,0v22.5c5.7-1.2,11.5-2.8,17.2-4.9v-.1Z" fill="#fff" stroke-width="0"/><path d="M66.9,40.5c.3.4.6.8,1.1,1.1l17.4,12L68.6,66.3c-.4.3-.8.7-1,1.1s-.4.9-.5,1.4c0,.2,0,.5,0,.7c0,.7.3,1.5.8,2.1s1.1,1.1,1.8,1.3c1.2.4,2.5.2,3.5-.6L92.1,58.1l19.7,13.6c.3.2.6.3.9.5c1.6.5,3.4,0,4.4-1.4.4-.6.7-1.4.7-2.1c0-.2,0-.5,0-.7-.2-1-.7-1.8-1.6-2.4L98.5,53.4v0c0,0,16.8-12.7,16.8-12.7.6-.5,1.1-1.1,1.3-1.8.2-.5.2-1,.2-1.4c0-.7-.3-1.5-.8-2.1s-1.1-1.1-1.8-1.3c-1.2-.4-2.5-.2-3.5.6l-9.4,7.1-9.4,7.1L72.4,35.5c-.2-.1-.4-.3-.7-.4-1.2-.5-2.5-.4-3.5.3-.2.1-.4.3-.6.5s-.4.4-.5.6c-.3.4-.5.9-.6,1.4c0,.5-.1,1,0,1.5c0,.5.3.9.5,1.4l-.1-.3Z" fill="#2167db" stroke-width="0"/></g><g><path d="M162.1,97.2v16.9c1.7-.2,3.6-.4,5.4-.5c1.3,0,2.5-.2,3.9-.2c4.6-.2,8.9.1,12.7.6c1.1.1,2.1.3,3,.4v-.8c0,0,0-16.6,0-16.6-6.9-.5-15.4-.6-25.1.1l.1.1Z" fill="#fff" stroke-width="0"/><path d="M129.1,102.7v13.1c0,0,0,7.7,0,7.7c7.5-3.3,15.5-6.4,25.4-8.3v-10.7c0,0,0-6.6,0-6.6-7.8.9-16.3,2.5-25.4,4.8Z" fill="#fff" stroke-width="0"/><path d="M65.2,116.9c.3,3.7,1.6,7.2,3.9,10.4c3.5,4.8,8.8,7.9,14.8,9c.3,0,.6.1.9.2v-18.2c0,0,0-3.3,0-3.3-6.6,1-13.2,1.6-19.6,1.8v.1Z" fill="#fff" stroke-width="0"/><path d="M121.5,104.9c-3.9,1.2-7.8,2.5-11.9,3.9-5.7,2.1-11.4,3.7-17.2,4.9v23.1c1,0,2-.2,3.1-.4.2,0,.5,0,.7-.1c8.1-1.7,15-4.5,21.8-7.6c1.1-.5,2.2-1,3.4-1.5v-22.2l.1-.1Z" fill="#fff" stroke-width="0"/><path d="M192,123.1c-1.1-.3-2.3-.5-3.6-.8-1.3-.2-2.8-.5-4.4-.7-1-.1-2.1-.3-3.3-.4-2.8-.2-5.9-.4-9.1-.3-2.6,0-5,.3-7.3.5-16.4,1.7-27.7,6.9-38.6,12-6.3,2.9-12.8,6-20.2,8.2-2.4.8-5,1.4-7.7,2-1.8.4-3.5.6-5.2.8-1.7.1-3.4.2-5.1,0-5.8-.3-11.3-2-16-4.8-2-1.2-3.9-2.7-5.5-4.3-1.1-1.1-2.1-2.3-3.1-3.6-2.5-3.4-4.1-7.1-4.9-11-.3-1.3-.4-2.6-.5-3.8c0-.7,0-1.3,0-2c0-4.6,1.3-9.2,3.7-13.6C67.7,89.7,77.3,83.2,88,83c.4,0,.8,0,1.2,0c.8,0,1.6,0,2.5.2.8.1,1.7.2,2.5.4.4,0,.8.2,1.3.3s.9.3,1.4.4c1.3.5,2.5,1.1,3.5,1.8.4.2.7.5,1,.7c1,.8,1.8,1.5,2.6,2.3c2.7,2.5,3.3,2.7,4.4,2.3c2.2-1.7,4.5-3.3,6.9-4.8c1.2-.7,2.5-1.4,3.8-2.1s2.6-1.3,3.9-1.9c.3-.2.6-.4.9-.5.2,0,.3-.1.5-.2.2,0,.3,0,.5,0c4.5-1.8,9.2-3.3,14.3-4.4c1.7-.4,3.4-.7,5.1-1s3.5-.5,5.3-.7s3.6-.4,5.5-.5c1.8-.1,3.7-.2,5.6-.2s3.8,0,5.8,0c2.2,0,4.4.2,6.4.4c2.1.2,4.1.4,5.9.6c1.3.1,2.5.3,3.6.5.6,0,1.1.2,1.7.3c3.9.6,7.1,1.3,9.5,1.8c0-2.7-.2-5.4-.8-8.2-1-4.7-2.9-9.5-5.6-14.4l-5.7,6.8c-.1.2-.3.3-.4.4-.3.3-.6.5-1,.6-.9.4-1.9.4-2.8.1-.1,0-.2,0-.3-.1-.3-.1-.6-.3-.9-.5-.2-.2-.4-.4-.5-.6-.3-.4-.6-.9-.7-1.3c0-.2-.1-.5-.1-.7c0-1,.2-2,.9-2.8l16-19.2-18.5,1.4-18.5,1.4c-.3,0-.5,0-.8,0-.5,0-1-.2-1.4-.5-.6-.4-1.2-.9-1.5-1.6-.2-.4-.4-.9-.4-1.5c0,0,0-.2,0-.3c0-.2,0-.3,0-.5.1-1,.6-1.9,1.4-2.5.6-.5,1.3-.8,2.1-.8L168,32.8c-1.7-1.4-3.4-2.8-5.2-4.2-.9-.7-1.8-1.4-2.8-2-1.9-1.3-3.8-2.6-5.8-3.8-4-2.4-8.1-4.6-12.5-6.6-2.2-1-4.4-1.9-6.6-2.7-2.3-.8-4.6-1.6-6.9-2.3-7-2-14.2-3.4-21.7-3.8-6.2-.4-12.5-.1-18.8.8-10.1,1.5-20.3,4.9-30.2,10.5-.8.5-1.7,1-2.5,1.5s-1.6,1-2.4,1.5c-1.6,1-3.2,2.1-4.7,3.1-1.5,1.1-3,2.2-4.4,3.3-7.8,6.2-14.1,13.3-19,21.3-.9,1.5-1.7,2.9-2.5,4.4-1.6,3-3,6.1-4.2,9.4-2.7,7.3-4.5,15.2-5.2,23.6c0,1-.2,1.9-.2,2.9-.1,2-.2,4-.2,5.9v0v21.1c0,0,0,1.2.2,1.6c0,0,0,0,0,0c.5,2.2,2,7.7,4.7,10.3c0,.2.1.5,0,.8c0,.3,0,.5-.2.7l-.4.7c-.8,1.4-1.5,2.9-2.2,4.3-.2.5-.5,1-.7,1.4-.5,1-.9,1.9-1.3,2.9-2.1,4.8-3.8,9.5-4.4,14.1-.2,1.4-.2,2.7-.2,4c0,.4,0,.9,0,1.3c0,.9.2,1.7.4,2.6.3,1.3.7,2.5,1.2,3.7c1.3,2.8,3.3,5.5,6.4,8c2.3,1.9,5,3.1,7.9,3.8c1.2.3,2.3.5,3.5.6s2.4.2,3.6.2c2.4,0,4.9-.3,7.3-.7c1.8-.3,3.6-.7,5.3-1.1c9.2-2.4,16.6-6.3,16.8-6.4l.9-.5c.2,0,.4-.2.6-.2.4,0,.8,0,1.1,0c.2,0,.4.2.5.3l.8.6c0,0,0,0,.1,0s.3.2.7.4c.3.2.8.5,1.3.8.3.2.5.3.9.5.6.4,1.3.8,2.1,1.2.4.2.8.4,1.2.7c1.3.7,2.8,1.5,4.4,2.3c1.1.6,2.3,1.1,3.5,1.7c1.9.9,3.9,1.7,6,2.6c1.4.6,2.9,1.1,4.4,1.7c3.8,1.4,8,2.7,12.4,3.7c1.8.4,3.5.8,5.4,1.2c5.5,1,11.2,1.6,17.1,1.5c2.2,0,5-.2,8.3-.8c1.1-.2,2.2-.4,3.4-.7s2.4-.6,3.7-1c4.5-1.3,9.5-3.4,14.8-6.5c1.5-.9,3-1.8,4.6-2.9c3.9-2.6,7.9-5.8,11.9-9.8c1.6-1.6,3.2-3.2,4.8-5c.8-.9,1.6-1.8,2.4-2.8c4-4.8,7.9-10.3,11.8-16.8c1.1-1.8,2-3.7,2.7-5.5c2-4.9,2.6-9.5,2.9-12.4c0-.3,0-.5,0-.8-.8-.2-1.7-.5-2.8-.7v.8ZM66.4,37.7c.1-.5.3-1,.6-1.4.2-.2.3-.4.5-.6s.4-.3.6-.5c1-.7,2.4-.8,3.5-.3.2,0,.5.2.7.4L91.8,48.7l9.4-7.1l9.4-7.1c1.1-.8,2.4-1,3.5-.6.7.2,1.3.7,1.8,1.3s.7,1.4.8,2.1c0,.5,0,1-.2,1.4-.2.7-.7,1.3-1.3,1.8L98.3,53.2L116,65.4c.9.6,1.4,1.5,1.6,2.4c0,.2,0,.5,0,.7c0,.7-.2,1.5-.7,2.1-1,1.4-2.8,2-4.4,1.4-.3-.1-.6-.3-.9-.5L91.9,57.9L73,72.1c-1.1.8-2.4,1-3.5.6-.7-.2-1.3-.7-1.8-1.3s-.7-1.4-.8-2.1c0-.2,0-.5,0-.7c0-.5.2-1,.5-1.4.2-.4.6-.8,1-1.1L85.2,53.4l-17.4-12c-.4-.3-.8-.7-1.1-1.1s-.4-.9-.5-1.4c0-.5,0-1,0-1.5l.2.3Z" fill="#feda29" stroke-width="0"/><path d="M202.4,120.8v-1.4c-.1-.7-.5-1.2-1.2-1.5l-1.3-.5c-.2,0-2.1-.8-5.2-1.6v-18.1c-.5,0-1.1-.1-1.7-.2.6,0,1.2.1,1.7.2v-10.9c.7.2,1.2.3,1.2.3h.5c1.9.7,3.9-.6,4.2-2.6v-.5c1.7-10.6-1.2-22.4-8.3-34.2l6.1-7.3c1.8-2.2,2.1-5.2.8-7.7s-3.9-4-6.7-3.8l-14.3,1.1c-28-27.5-78.7-45.4-124.4-19.6C17,33.2,6.9,64.3,5,86.8c0,1.1-.2,2.2-.2,3.3-.1,2-.2,4-.2,5.9c0,.2,0,.5,0,.7v20.4v0c0,1.2.4,2.8,1,4.4c1.3,3.6,3.3,7.3,3.5,7.6q0,0,0,0C2.4,141.8,-8.2,164,11,179.4c2.5,2,5.2,3.4,8,4.4c16,5.5,36.3-3.1,42.8-6.2c7.1,4.4,32.7,18.9,61.8,18.5c15.6-.2,30.6-6.1,44.5-17.3c13.1-10.6,22.2-23.6,27.6-32.6c7.4-12.5,6.7-24.9,6.7-25.5v.1Zm-77.1-17c1.3-.4,2.5-.7,3.8-1v-14.3c7.7-3,15.8-4.5,23.5-5.2.6,0,1.2-.1,1.9-.2v14.8c0,0,0,0,0,0s0,0,0,0v6.6c0,0,0,10.7,0,10.7-4.9,1-9.4,2.2-13.6,3.6s-8.1,3-11.8,4.7v-7.7c0,0,0-13.1,0-13.1-1.2.3-2.5.7-3.8,1v.1Zm-59.9,8.4c.4-2.4,1.2-4.7,2.5-7c.6-1,1.5-2.5,2.8-4.2s2.9-3.5,4.9-5.2c2.6-2.1,5.7-3.9,9.4-4.7v0v23.9c0,0,0,3.3,0,3.3v18.2c-.3,0-.6-.1-.9-.2-6.1-1.2-11.3-4.3-14.8-9-2.3-3.2-3.6-6.7-3.9-10.4-.1-1.6,0-3.2.2-4.8l-.2.1Zm27,1.5v-22.5c.2,0,.3,0,.4,0c.2,0,.5,0,.8.2c1.9.5,3.5,1.9,5.2,3.5c1.8,1.6,4.1,3.8,7.2,4.4c1.8.3,3.8.1,6-1l.4-.2v0c0,0,.3-.3.3-.3c2.3-1.8,4.6-3.4,7.1-4.8.6-.3,1.2-.7,1.7-1v12.9c0,0,0,22.2,0,22.2-1.1.5-2.2,1-3.4,1.5-6.9,3.1-13.7,6-21.8,7.6-.2,0-.5,0-.7.1-1,.2-2.1.3-3.1.4v-23.1l-.1.1Zm69.7-16.5v-10.3c0,0,0-4,0-4v0c8.3,0,15.9.8,21.8,1.8c1.2.2,2.3.4,3.3.6v11.8c0,0,0,16.6,0,16.6v.8c-1-.1-2-.3-3.1-.4-3.8-.5-8.1-.7-12.7-.6-1.3,0-2.6.1-3.9.2-1.9.1-3.7.3-5.5.5v0-16.9l.1-.1Zm32.6,27.4c-.2,2.9-.9,7.5-2.9,12.4-.7,1.8-1.6,3.6-2.7,5.5-3.8,6.4-7.8,12-11.8,16.8-.8.9-1.6,1.9-2.4,2.8-1.6,1.8-3.2,3.5-4.8,5-4,3.9-8,7.1-11.9,9.8-1.6,1.1-3.1,2-4.6,2.9-5.3,3.1-10.3,5.1-14.8,6.5-1.3.4-2.5.7-3.7,1s-2.4.5-3.4.7c-3.3.6-6.1.8-8.3.8-5.9,0-11.6-.5-17.1-1.5-1.8-.3-3.6-.7-5.4-1.2-4.4-1.1-8.5-2.3-12.4-3.7-1.5-.6-3-1.1-4.4-1.7-2.1-.9-4.1-1.7-6-2.6-1.2-.6-2.4-1.1-3.5-1.7-1.6-.8-3.1-1.6-4.4-2.3-.4-.2-.8-.5-1.2-.7-.8-.4-1.5-.9-2.1-1.2-.3-.2-.6-.4-.9-.5-.5-.3-.9-.6-1.3-.8-.3-.2-.6-.4-.7-.4c0,0-.1,0-.1,0l-.8-.6c-.2-.1-.3-.2-.5-.3-.4-.1-.8-.1-1.1,0-.2,0-.4.1-.6.2l-.9.5c-.1,0-7.5,4-16.8,6.4-1.7.4-3.5.8-5.3,1.1-2.4.4-4.9.7-7.3.7-1.2,0-2.4,0-3.6-.2-1.2-.1-2.4-.3-3.5-.6-2.9-.7-5.5-1.9-7.9-3.8-3-2.4-5.1-5.1-6.4-8-.6-1.2-.9-2.5-1.2-3.7-.2-.8-.3-1.7-.4-2.6c0-.4,0-.9,0-1.3c0-1.3,0-2.7.2-4c.6-4.5,2.2-9.3,4.4-14.1.4-.9.9-1.9,1.3-2.9.2-.5.5-1,.7-1.4.7-1.4,1.5-2.9,2.2-4.3l.4-.7c.1-.2.2-.5.2-.7s0-.5,0-.8c-2.6-2.6-4.1-8.1-4.7-10.3c0,0,0,0,0,0-.1-.5-.2-1.6-.2-1.6v-21.1v0c0-1.9,0-3.9.2-5.9c0-1,.1-1.9.2-2.9.8-8.4,2.5-16.3,5.2-23.6c1.2-3.2,2.6-6.4,4.2-9.4.8-1.5,1.6-3,2.5-4.4c4.9-8,11.2-15.1,19-21.3c1.4-1.1,2.9-2.2,4.4-3.3s3.1-2.1,4.7-3.1c.8-.5,1.6-1,2.4-1.5s1.7-1,2.5-1.5c9.9-5.6,20.1-9,30.2-10.5c6.3-1,12.6-1.2,18.8-.8c7.4.5,14.7,1.8,21.7,3.8c2.3.7,4.6,1.4,6.9,2.3c2.2.8,4.5,1.7,6.6,2.7c4.3,1.9,8.5,4.1,12.5,6.6c2,1.2,3.9,2.5,5.8,3.8.9.7,1.8,1.3,2.8,2c1.8,1.3,3.5,2.8,5.2,4.2L154,34.7c-.8,0-1.5.4-2.1.8-.8.6-1.3,1.5-1.4,2.5c0,.2,0,.3,0,.5s0,.2,0,.3c0,.5.2,1,.4,1.5.3.7.9,1.2,1.5,1.6.4.2.9.4,1.4.5.2,0,.5,0,.8,0L173.1,41l18.5-1.4-16,19.2c-.7.8-1,1.8-.9,2.8c0,.2,0,.5.1.7.1.5.4.9.7,1.3.2.2.3.4.5.6.3.2.6.4.9.5.1,0,.2,0,.3.1.9.3,1.9.3,2.8-.1.3-.2.7-.4,1-.6.1-.1.3-.3.4-.4l5.7-6.8c2.7,4.9,4.6,9.7,5.6,14.4.6,2.8.9,5.5.8,8.2-2.4-.5-5.6-1.2-9.5-1.8-.6,0-1.1-.2-1.7-.3-1.2-.2-2.4-.3-3.6-.5-1.9-.2-3.9-.4-5.9-.6-2.1-.2-4.2-.3-6.4-.4-1.9,0-3.9,0-5.8,0s-3.8,0-5.6.2c-1.9.1-3.7.3-5.5.5s-3.6.4-5.3.7-3.4.6-5.1,1c-5,1.1-9.8,2.6-14.3,4.4-.2,0-.3,0-.5,0s-.3.1-.5.2c-.3.1-.6.3-.9.5-1.3.6-2.6,1.2-3.9,1.9s-2.5,1.4-3.8,2.1c-2.4,1.4-4.8,3-6.9,4.8-1.1.5-1.6.3-4.4-2.3-.8-.7-1.6-1.5-2.6-2.3-.3-.2-.6-.5-1-.7-1-.7-2.2-1.4-3.5-1.8-.4-.2-.9-.3-1.4-.4-.4,0-.8-.2-1.3-.3-.8-.2-1.7-.3-2.5-.4-.8,0-1.7-.1-2.5-.2-.4,0-.8,0-1.2,0-10.6.2-20.3,6.7-26.8,18.3-2.4,4.4-3.7,9-3.7,13.6c0,.7,0,1.3,0,2c0,1.3.2,2.6.5,3.8.8,3.8,2.4,7.6,4.9,11c.9,1.3,2,2.5,3.1,3.6c1.7,1.6,3.5,3.1,5.5,4.3c4.7,2.8,10.1,4.5,16,4.8c1.7,0,3.4,0,5.1,0c1.7-.1,3.4-.4,5.2-.8c2.7-.6,5.2-1.2,7.7-2c7.4-2.3,13.9-5.3,20.2-8.2c11-5.1,22.3-10.3,38.6-12c2.3-.2,4.8-.4,7.3-.5c3.2-.1,6.3,0,9.1.3c1.1.1,2.2.2,3.3.4c1.6.2,3,.5,4.4.7c1.3.3,2.5.5,3.6.8s2,.5,2.8.7c0,.2,0,.5,0,.8v-.8Z" fill="#2167db" stroke-width="0"/></g></g></g><g id="eWjCoBtlX2g73" opacity="0" mask="url(#eWjCoBtlX2g106)"><g id="eWjCoBtlX2g74" transform="matrix(1.36 0 0 1.36 24.581549-152.461509)"><g><path d="M190.9,331.2v15.8h-125.8v-27.2c.2,0,.4,0,.6,0c6.6-.2,12.9-.8,19-1.7v16.5h7.6v-17.8c.4-.1.9-.2,1.3-.3c6.1-1.3,12.1-3,17.7-5c3.4-1.2,6.8-2.4,10.1-3.4v26.5h7.6v-28.7c.5-.1,1-.3,1.5-.4c8-2,16-3.6,23.9-4.6v33.7h7.6v-34.5c.3,0,.5,0,.8,0c8.4-.7,16.6-.7,24.3-.2v31.4h3.8v-.1Z" fill="#fff" stroke-width="0"/><path d="M194.7,298.8v32.4h-7.6v-31.4c-8-.6-16.4-.5-25.1.2v0c0,0,0,34.5,0,34.5h-7.6v-33.7c-7.9,1-16,2.5-23.9,4.6-.5.1-1,.2-1.5.4v28.7h-7.6v-26.5c-3.3,1-6.7,2.1-10.1,3.4-6,2.2-12.4,4-19,5.3v0c0,0,0,32.9,0,32.9h-7.6v-31.6c-6.1.9-12.5,1.5-19,1.7-.2,0-.4,0-.6,0v29.2h-7.6v-36.6h1.7c.7,0,1.4,0,2.1,0c1.3,0,2.6,0,3.8,0c.1,0,.3,0,.4,0c6.6-.2,13.1-.8,19.2-1.8c2.7-.4,5.1-.9,7.4-1.4c5.8-1.2,11.4-2.8,16.7-4.8c4-1.5,8.1-2.8,12.1-4c2.1-.6,4.2-1.2,6.1-1.7.6-.1,1.1-.3,1.6-.4c8.6-2.2,17.3-3.9,25.8-4.9c2.5-.3,5.1-.6,7.8-.8c8.9-.7,17.4-.7,25.6-.2h.1c.3,0,.6,0,.9,0c3.3.3,5.9,3.1,5.9,6.4v.1Z" fill="#2167db" stroke-width="0"/></g><g><path d="M187.1,90.3v28h-11.7c-4.3,0-8.7.2-13.2.6c0,0-.1,0-.2,0v-28.6h25.1Z" fill="#fff" stroke-width="0"/><path d="M154.4,90.3v29.4c-8.4,1-16.9,2.6-25.4,4.8v-26.2h-7.6v28.2c-.2,0-.4.1-.6.2-4,1.2-8,2.5-12.1,4-5.2,1.9-10.7,3.5-16.4,4.7v-40.9h-7.6v42.3c0,0,0,0-.1,0-6.1,1-12.6,1.6-19.2,1.8-.1,0-.3,0-.4,0v-23.1h-3.8v-25.3h93.1l.1.1Z" fill="#fff" stroke-width="0"/><path d="M194.7,87.9v31.5c0,3.6-2.9,6.4-6.4,6.4h-11.1c-.7,0-1.3,0-2,0-4,0-8.1.2-12.3.5-2.6.2-5,.5-7.4.8-8.2,1-16.6,2.6-24.9,4.7-2.3.6-4.8,1.3-7.5,2.1-3.8,1.1-7.8,2.4-11.7,3.9-5.6,2-11.6,3.7-17.7,5-2.4.5-5,1-7.8,1.5-6.4,1-13.2,1.6-20.1,1.9-.2,0-.4,0-.7,0-1.2,0-2.5,0-3.8,0-.7,0-1.4,0-2.1,0h-1.7v-30.6h7.6v23.1c0,0,0,0,0,0c6.8-.2,13.4-.8,19.7-1.8v0c0,0,0-42.3,0-42.3h7.6v40.9c5.7-1.2,11.2-2.8,16.4-4.7c4-1.5,8.1-2.8,12.1-4c.2,0,.4-.1.6-.2v-28.2h7.6v26.2c8.5-2.2,17-3.8,25.4-4.8v-31.8h7.6v31c0,0,.1,0,.2,0c4.5-.4,8.9-.5,13.2-.6h11.7v-30.4h7.6l-.1-.1Z" fill="#2167db" stroke-width="0"/></g><rect width="7.7" height="228.2" rx="0" ry="0" transform="translate(57.5 116.9)" fill="#2167db" stroke-width="0"/><rect width="7.6" height="228" rx="0" ry="0" transform="translate(4.5 117)" fill="#2167db" stroke-width="0"/><rect width="45.4" height="232.2" rx="0" ry="0" transform="translate(12.1 112.8)" fill="#feda29" stroke-width="0"/><g><path d="M4.5,96c0,.2,0,.5,0,.7v-.7v0Z" fill="#feda29" stroke-width="0"/><path d="M187.1,97v-11.8c-1-.2-2.1-.4-3.3-.6-5.9-.9-13.4-1.8-21.8-1.8v4c0,0,0,10.3,0,10.3c9.7-.8,18.2-.7,25.1-.1Z" fill="#fff" stroke-width="0"/><path d="M129.1,102.7c9-2.3,17.5-3.9,25.4-4.8v-14.8c-.6,0-1.2.1-1.9.2-7.8.7-15.8,2.2-23.5,5.2v14.3-.1Z" fill="#fff" stroke-width="0"/><path d="M65.2,116.9c6.4-.2,13-.8,19.6-1.8v-24c-3.7.8-6.8,2.6-9.3,4.7-2,1.6-3.6,3.5-4.9,5.2s-2.2,3.2-2.8,4.2c-1.3,2.3-2.1,4.6-2.5,7-.3,1.6-.3,3.2-.2,4.8l.1-.1Z" fill="#fff" stroke-width="0"/><path d="M109.6,108.8c4-1.5,8-2.8,11.9-3.9v-12.9c-.6.3-1.1.6-1.7,1-2.4,1.4-4.8,3-7.1,4.8l-.3.3v0c0,0-.4.2-.4.2-2.3,1.1-4.3,1.3-6,1-3.1-.6-5.4-2.7-7.2-4.3-1.7-1.5-3.2-3-5.2-3.5-.3,0-.5-.1-.8-.2-.1,0-.3,0-.4,0v22.5c5.7-1.2,11.5-2.8,17.2-4.9v-.1Z" fill="#fff" stroke-width="0"/><path d="M66.9,40.5c.3.4.6.8,1.1,1.1l17.4,12L68.6,66.3c-.4.3-.8.7-1,1.1s-.4.9-.5,1.4c0,.2,0,.5,0,.7c0,.7.3,1.5.8,2.1s1.1,1.1,1.8,1.3c1.2.4,2.5.2,3.5-.6L92.1,58.1l19.7,13.6c.3.2.6.3.9.5c1.6.5,3.4,0,4.4-1.4.4-.6.7-1.4.7-2.1c0-.2,0-.5,0-.7-.2-1-.7-1.8-1.6-2.4L98.5,53.4v0c0,0,16.8-12.7,16.8-12.7.6-.5,1.1-1.1,1.3-1.8.2-.5.2-1,.2-1.4c0-.7-.3-1.5-.8-2.1s-1.1-1.1-1.8-1.3c-1.2-.4-2.5-.2-3.5.6l-9.4,7.1-9.4,7.1L72.4,35.5c-.2-.1-.4-.3-.7-.4-1.2-.5-2.5-.4-3.5.3-.2.1-.4.3-.6.5s-.4.4-.5.6c-.3.4-.5.9-.6,1.4c0,.5-.1,1,0,1.5c0,.5.3.9.5,1.4l-.1-.3Z" fill="#2167db" stroke-width="0"/><path d="M200.8,84.1v.5c-.4,2-2.4,3.3-4.3,2.7h-.5c0-.2-.4-.3-1.2-.5v10.9c-2.3-.3-4.8-.6-7.6-.8v-11.8c-1-.2-2.1-.4-3.3-.6-5.9-.9-13.4-1.8-21.8-1.8v0c0,0,0,4,0,4v10.3c-2.5.2-5,.4-7.6.8v-14.8c-.6,0-1.2,0-1.8.2-7.8.7-15.8,2.2-23.5,5.2v14.3c-2.5.6-5.1,1.3-7.6,2.1v-12.9c-.6.3-1.1.6-1.7,1-2.4,1.4-4.8,3-7.1,4.8l-.3.2v0c0,0-.4.2-.4.2-2.3,1.1-4.3,1.3-6,1-3.1-.6-5.4-2.7-7.2-4.4-1.7-1.5-3.2-3-5.2-3.5-.3,0-.5-.1-.8-.2-.1,0-.3,0-.4,0v22.5c-2.6.5-5.1,1-7.6,1.4v-24c0,0,0,0,0,0-3.7.8-6.8,2.6-9.4,4.7-2,1.6-3.6,3.5-4.9,5.2s-2.2,3.2-2.8,4.2c-1.2,2.3-2.1,4.6-2.5,7-.3,1.6-.3,3.2-.2,4.8-2.2,0-4.3.1-6.4,0h-1.3c0-.7,0-1.3,0-2c0-4.6,1.3-9.2,3.7-13.6c6.5-11.6,16.1-18.1,26.8-18.3.4,0,.8,0,1.2,0c.8,0,1.6,0,2.5.2.8.1,1.7.2,2.5.4.4,0,.8.2,1.3.3s.9.3,1.4.4c1.3.5,2.5,1.1,3.5,1.9.4.2.7.5,1,.7c1,.8,1.8,1.5,2.6,2.3c2.7,2.5,3.3,2.7,4.4,2.3c2.2-1.7,4.5-3.3,6.9-4.8c1.2-.7,2.5-1.4,3.8-2.1s2.6-1.3,3.9-1.9c.3-.2.6-.4.9-.5.2,0,.3-.1.5-.2.2,0,.3,0,.5,0c4.5-1.8,9.2-3.3,14.3-4.4c1.7-.4,3.4-.7,5.1-1s3.5-.5,5.3-.7s3.6-.4,5.5-.5c1.8-.1,3.7-.2,5.6-.2s3.8,0,5.8,0c2.2,0,4.4.2,6.4.4c2.1.2,4.1.4,5.9.6c1.3.1,2.5.3,3.6.5.6,0,1.1.2,1.7.3c3.9.6,7.1,1.3,9.5,1.8c0-2.6-.2-5.4-.8-8.2-1-4.7-2.9-9.5-5.6-14.4l-5.7,6.8c-.1.2-.3.3-.4.4-.3.3-.6.5-1,.6-.9.4-1.9.4-2.8.1-.1,0-.2,0-.3-.1-.3-.1-.6-.3-.9-.5-.2-.2-.4-.4-.5-.6-.3-.4-.6-.8-.7-1.3c0-.2-.1-.5-.1-.7c0-1,.2-2,.9-2.8l16-19.2-18.5,1.4-18.5,1.4c-.3,0-.5,0-.8,0-.5,0-1-.2-1.4-.5-.6-.4-1.2-.9-1.5-1.6-.2-.4-.4-.9-.4-1.5c0,0,0-.2,0-.3c0-.2,0-.3,0-.5.1-1,.6-1.9,1.4-2.5.6-.5,1.3-.8,2.1-.8l13.9-1.1c-1.7-1.4-3.4-2.8-5.2-4.2-.9-.7-1.8-1.4-2.8-2-1.9-1.3-3.8-2.6-5.8-3.8-4-2.4-8.1-4.6-12.5-6.6-2.2-1-4.4-1.9-6.6-2.7-2.3-.8-4.6-1.6-6.9-2.3-7-2-14.2-3.4-21.7-3.8-6.2-.4-12.5-.1-18.8.8-10.1,1.5-20.3,4.9-30.2,10.5-.8.5-1.7,1-2.5,1.5s-1.6,1-2.4,1.5c-1.6,1-3.2,2.1-4.7,3.1-1.5,1.1-3,2.2-4.4,3.3-7.8,6.2-14.1,13.3-19,21.3-.9,1.5-1.7,2.9-2.5,4.4-1.6,3-3,6.1-4.2,9.4-2.7,7.3-4.5,15.1-5.2,23.6c0,1-.2,1.9-.2,2.9-.1,2-.2,4-.2,5.9v0v21.1h-7.6v-20.4c0-.2,0-.5,0-.7c0-1.9,0-3.9.2-5.9c0-1.1.1-2.2.2-3.3C6.9,63.9,17,32.8,53.7,12.1c45.7-25.8,96.4-7.8,124.5,19.8l14.3-1.1c2.8-.2,5.4,1.3,6.7,3.8s1,5.5-.8,7.7l-6.1,7.3c7.1,11.8,10,23.5,8.4,34.2l.1.3Z" fill="#2167db" stroke-width="0"/><path d="M192.8,70.6c-1-4.7-2.9-9.5-5.6-14.4L181.5,63c-.1.2-.3.3-.4.4-.3.3-.6.5-1,.6-.9.4-1.9.4-2.8.1-.1,0-.2,0-.3-.1-.3-.1-.6-.3-.9-.5-.2-.2-.4-.4-.5-.6-.3-.4-.6-.8-.7-1.3c0-.2-.1-.5-.1-.7c0-1,.2-2,.9-2.8l16-19.2-18.5,1.4-18.5,1.4c-.3,0-.5,0-.8,0-.5,0-1-.2-1.4-.5-.6-.4-1.2-.9-1.5-1.6-.2-.4-.4-.9-.4-1.5c0,0,0-.2,0-.3c0-.2,0-.3,0-.5.1-1,.6-1.9,1.4-2.5.6-.5,1.3-.8,2.1-.8L168,32.9c-1.7-1.4-3.4-2.8-5.2-4.2-.9-.7-1.8-1.4-2.8-2-1.9-1.3-3.8-2.6-5.8-3.8-4-2.4-8.1-4.6-12.5-6.6-2.2-1-4.4-1.9-6.6-2.7-2.3-.8-4.6-1.6-6.9-2.3-7-2-14.2-3.4-21.7-3.8-6.2-.4-12.5-.1-18.8.8-10.1,1.5-20.3,4.9-30.2,10.5-.8.5-1.7,1-2.5,1.5s-1.6,1-2.4,1.5c-1.6,1-3.2,2.1-4.7,3.1-1.5,1.1-3,2.2-4.4,3.3-7.8,6.2-14.1,13.3-19,21.3-.9,1.5-1.7,2.9-2.5,4.4-1.6,3-3,6.1-4.2,9.4-2.7,7.3-4.5,15.1-5.2,23.6c0,1-.2,1.9-.2,2.9-.1,2-.2,4-.2,5.9v0v21.1h45.4c0-.7,0-1.3,0-2c0-4.6,1.3-9.2,3.7-13.6c6.5-11.6,16.1-18.1,26.8-18.3.4,0,.8,0,1.2,0c.8,0,1.6,0,2.5.2.8.1,1.7.2,2.5.4.4,0,.8.2,1.3.3s.9.3,1.4.4c1.3.5,2.5,1.1,3.5,1.9.4.2.7.5,1,.7c1,.8,1.8,1.5,2.6,2.3c2.7,2.5,3.3,2.7,4.4,2.3c2.2-1.7,4.5-3.3,6.9-4.8c1.2-.7,2.5-1.4,3.8-2.1s2.6-1.3,3.9-1.9c.3-.2.6-.4.9-.5.2,0,.3-.1.5-.2.2,0,.3,0,.5,0c4.5-1.8,9.2-3.3,14.3-4.4c1.7-.4,3.4-.7,5.1-1s3.5-.5,5.3-.7s3.6-.4,5.5-.5c1.8-.1,3.7-.2,5.6-.2s3.8,0,5.8,0c2.2,0,4.4.2,6.4.4c2.1.2,4.1.4,5.9.6c1.3.1,2.5.3,3.6.5.6,0,1.1.2,1.7.3c3.9.6,7.1,1.3,9.5,1.8c0-2.6-.2-5.4-.8-8.2l-.1.1Zm-75.9.2c-1,1.4-2.8,2-4.4,1.4-.3-.1-.6-.3-.9-.5L91.9,58.1L73,72.3c-1.1.8-2.4,1-3.5.6-.7-.2-1.3-.7-1.8-1.3s-.7-1.4-.8-2.1c0-.2,0-.5,0-.7c0-.5.2-1,.5-1.4.2-.4.6-.8,1-1.1L85.2,53.6l-17.4-12c-.4-.3-.8-.7-1.1-1.1s-.4-.9-.5-1.4c0-.5,0-1,0-1.5.1-.5.3-1,.6-1.4.2-.2.3-.4.5-.6s.4-.3.6-.5c1-.7,2.4-.8,3.5-.3.2,0,.5.2.7.4L91.6,48.6l9.4-7.1l9.4-7.1c1.1-.8,2.4-1,3.5-.6.7.2,1.3.7,1.8,1.3s.7,1.4.8,2.1c0,.5,0,1-.2,1.4-.2.7-.7,1.3-1.3,1.8L98.1,53.1l17.7,12.2c.9.6,1.4,1.5,1.6,2.4c0,.2,0,.5,0,.7c0,.7-.2,1.5-.7,2.1l.2.3Z" fill="#feda29" stroke-width="0"/></g><g><path d="M162.1,325.2v16.9c1.7-.2,3.6-.4,5.4-.5c1.3,0,2.5-.2,3.9-.2c4.6-.2,8.9.1,12.7.6c1.1.1,2.1.3,3,.4v-.8c0,0,0-16.6,0-16.6-6.9-.5-15.4-.6-25.1.1l.1.1Z" fill="#fff" stroke-width="0"/><path d="M129.1,330.8v13.1c0,0,0,7.7,0,7.7c7.5-3.3,15.5-6.4,25.4-8.3v-10.7c0,0,0-6.6,0-6.6-7.8.9-16.3,2.5-25.4,4.8Z" fill="#fff" stroke-width="0"/><path d="M65.2,345c.3,3.7,1.6,7.2,3.9,10.4c3.5,4.8,8.8,7.9,14.8,9c.3,0,.6.1.9.2v-18.2c0,0,0-3.3,0-3.3-6.6,1-13.2,1.6-19.6,1.8v.1Z" fill="#fff" stroke-width="0"/><path d="M121.5,332.9c-3.9,1.2-7.8,2.5-11.9,3.9-5.7,2.1-11.4,3.7-17.2,4.9v23.1c1,0,2-.2,3.1-.4.2,0,.5,0,.7-.1c8.1-1.7,15-4.5,21.8-7.6c1.1-.5,2.2-1,3.4-1.5v-22.2l.1-.1Z" fill="#fff" stroke-width="0"/><path d="M194.8,351.9c0,.2,0,.5,0,.8-.2,2.9-.9,7.5-2.9,12.4-.7,1.8-1.6,3.6-2.7,5.5-3.8,6.4-7.8,12-11.8,16.8-.8,1-1.6,1.9-2.4,2.8-1.6,1.8-3.2,3.5-4.8,5-4,3.9-8,7.1-11.9,9.8-1.6,1-3.1,2-4.6,2.9-5.3,3.1-10.3,5.1-14.8,6.5-1.3.4-2.5.7-3.7,1s-2.4.5-3.4.7c-3.3.6-6.1.8-8.3.8-5.9,0-11.6-.5-17.1-1.5-1.8-.3-3.6-.7-5.4-1.2-4.4-1-8.5-2.3-12.4-3.7-1.5-.5-3-1.1-4.4-1.7-2.1-.9-4.1-1.7-6-2.6-1.2-.6-2.4-1.1-3.5-1.7-1.6-.8-3.1-1.6-4.4-2.3-.4-.2-.8-.5-1.2-.7-.8-.5-1.5-.9-2.1-1.2-.3-.2-.6-.4-.9-.5-.5-.3-.9-.6-1.3-.8-.3-.2-.6-.4-.7-.4c0,0-.1,0-.1,0l-.8-.6c-.2-.1-.3-.2-.5-.3-.4-.1-.8-.1-1.1,0-.2,0-.4.1-.6.2l-.9.5c-.1,0-7.5,4-16.8,6.4-1.7.4-3.5.8-5.3,1.1-2.4.4-4.9.7-7.3.7-1.2,0-2.4,0-3.6-.2-1.2-.1-2.4-.3-3.5-.6-2.9-.7-5.5-1.9-7.9-3.8-3-2.4-5.1-5.1-6.4-8-.6-1.2-.9-2.5-1.2-3.7-.2-.8-.3-1.7-.4-2.6c0-.4,0-.9,0-1.3c0-1.3,0-2.7.2-4c.6-4.5,2.2-9.3,4.4-14c.4-1,.9-1.9,1.3-2.9.2-.5.5-1,.7-1.4.7-1.4,1.5-2.9,2.2-4.3l.4-.7c.1-.2.2-.5.2-.7s0-.5,0-.8c-2.6-2.6-4.1-8.1-4.7-10.3c0,0,0,0,0,0-.1-.5-.2-8.8-.2-8.8h45.4c0,1.3.2,9.7.5,11c.8,3.8,2.4,7.6,4.9,11c.9,1.3,2,2.5,3.1,3.6c1.7,1.6,3.5,3.1,5.5,4.3c4.7,2.8,10.1,4.5,16,4.8c1.7,0,3.4,0,5.1,0c1.7-.1,3.4-.4,5.2-.8c2.7-.5,5.2-1.2,7.7-2c7.4-2.3,13.9-5.3,20.2-8.2c11-5.1,22.3-10.3,38.6-12c2.3-.2,4.8-.4,7.3-.5c3.2-.1,6.3,0,9.1.3c1.1.1,2.2.2,3.3.4c1.6.2,3,.5,4.4.7c1.3.3,2.5.5,3.6.8s2,.5,2.8.7l-.1-.7Z" fill="#feda29" stroke-width="0"/><path d="M202.4,348.9v-1.4c-.1-.7-.5-1.2-1.2-1.5l-1.3-.5c-.2,0-2.1-.8-5.2-1.6v-18.1c-2.2-.3-4.8-.6-7.6-.8v16.6c0,0,0,.8,0,.8-1-.2-2-.3-3.1-.4-3.8-.5-8.1-.7-12.7-.6-1.3,0-2.6.1-3.9.2-1.9.1-3.7.3-5.5.5v0-16.9c-2.4.2-5,.4-7.6.8v6.6c0,0,0,10.7,0,10.7-4.9,1-9.4,2.2-13.6,3.6s-8.1,3-11.8,4.7v-7.7c0,0,0-13.1,0-13.1-2.5.6-5,1.3-7.6,2.1v22.2c-1.1.5-2.3,1-3.4,1.5-6.9,3.1-13.7,6-21.8,7.6-.2,0-.5,0-.7.1-1,.2-2.1.3-3.1.4v-23.1c-2.5.5-5.1,1-7.6,1.4v21.5c-.3,0-.6-.1-.9-.2-6.1-1.2-11.3-4.3-14.8-9-2.3-3.2-3.6-6.7-3.9-10.4-2.2,0-4.3,0-6.4,0l-1.1-.5c0,1.3,0,3.1.3,4.4.8,3.8,2.4,7.6,4.9,11c.9,1.3,2,2.5,3.1,3.6c1.7,1.6,3.5,3.1,5.5,4.3c4.7,2.8,10.1,4.5,16,4.8c1.7,0,3.4,0,5.1,0c1.7-.1,3.4-.4,5.2-.8c2.7-.5,5.2-1.2,7.7-2c7.4-2.3,13.9-5.3,20.2-8.2c11-5.1,22.3-10.3,38.6-12c2.3-.2,4.8-.4,7.3-.5c3.2-.1,6.3,0,9.1.3c1.1.1,2.2.2,3.3.4c1.6.2,3,.5,4.4.7c1.3.3,2.5.5,3.6.8s2,.5,2.8.7c0,.2,0,.5,0,.8-.2,2.9-.9,7.5-2.9,12.4-.7,1.8-1.6,3.6-2.7,5.5-3.8,6.4-7.8,12-11.8,16.8-.8,1-1.6,1.9-2.4,2.8-1.6,1.8-3.2,3.5-4.8,5-4,3.9-8,7.1-11.9,9.8-1.6,1-3.1,2-4.6,2.9-5.3,3.1-10.3,5.1-14.8,6.5-1.3.4-2.5.7-3.7,1s-2.4.5-3.4.7c-3.3.6-6.1.8-8.3.8-5.9,0-11.6-.5-17.1-1.5-1.8-.3-3.6-.7-5.4-1.2-4.4-1-8.5-2.3-12.4-3.7-1.5-.5-3-1.1-4.4-1.7-2.1-.9-4.1-1.7-6-2.6-1.2-.6-2.4-1.1-3.5-1.7-1.6-.8-3.1-1.6-4.4-2.3-.4-.2-.8-.5-1.2-.7-.8-.5-1.5-.9-2.1-1.2-.3-.2-.6-.4-.9-.5-.5-.3-.9-.6-1.3-.8-.3-.2-.6-.4-.7-.4c0,0-.1,0-.1,0l-.8-.6c-.2-.1-.3-.2-.5-.3-.4-.1-.8-.1-1.1,0-.2,0-.4.1-.6.2l-.9.5c-.1,0-7.5,4-16.8,6.4-1.7.4-3.5.8-5.3,1.1-2.4.4-4.9.7-7.3.7-1.2,0-2.4,0-3.6-.2-1.2-.1-2.4-.3-3.5-.6-2.9-.7-5.5-1.9-7.9-3.8-3-2.4-5.1-5.1-6.4-8-.6-1.2-.9-2.5-1.2-3.7-.2-.8-.3-1.7-.4-2.6c0-.4,0-.9,0-1.3c0-1.3,0-2.7.2-4c.6-4.5,2.2-9.3,4.4-14c.4-1,.9-1.9,1.3-2.9.2-.5.5-1,.7-1.4.7-1.4,1.5-2.9,2.2-4.3l.4-.7c.1-.2.2-.5.2-.7s0-.5,0-.8c-2.6-2.6-4.1-8.1-4.7-10.3c0,0,0,0,0,0-.1-.5-.2-1.6-.2-1.6h-7.6c0,1.2.4,2.9,1,4.5c1.3,3.6,3.3,7.3,3.5,7.6q0,0,0,0c-6.7,12.7-17.3,34.9,1.9,50.3c2.5,2,5.2,3.4,8,4.4c16,5.5,36.3-3.1,42.8-6.2c7.1,4.4,32.7,18.9,61.8,18.5c15.6-.2,30.6-6.1,44.5-17.3c13.1-10.6,22.2-23.6,27.6-32.6c7.4-12.5,6.7-24.9,6.7-25.5l.1-.5Z" fill="#2167db" stroke-width="0"/></g></g><mask id="eWjCoBtlX2g106" mask-type="alpha" x="-150%" y="-150%" height="400%" width="400%"><rect id="eWjCoBtlX2g107" width="346.553593" height="300" rx="0" ry="0" transform="translate(.000001 311)" fill="#d2dbed" stroke-width="0"/></mask></g><g id="eWjCoBtlX2g108" opacity="0" mask="url(#eWjCoBtlX2g141)"><g id="eWjCoBtlX2g109" transform="matrix(1.36 0 0 1.36 24.581545 159.061162)"><g><path d="M190.9,331.2v15.8h-125.8v-27.2c.2,0,.4,0,.6,0c6.6-.2,12.9-.8,19-1.7v16.5h7.6v-17.8c.4-.1.9-.2,1.3-.3c6.1-1.3,12.1-3,17.7-5c3.4-1.2,6.8-2.4,10.1-3.4v26.5h7.6v-28.7c.5-.1,1-.3,1.5-.4c8-2,16-3.6,23.9-4.6v33.7h7.6v-34.5c.3,0,.5,0,.8,0c8.4-.7,16.6-.7,24.3-.2v31.4h3.8v-.1Z" fill="#fff" stroke-width="0"/><path d="M194.7,298.8v32.4h-7.6v-31.4c-8-.6-16.4-.5-25.1.2v0c0,0,0,34.5,0,34.5h-7.6v-33.7c-7.9,1-16,2.5-23.9,4.6-.5.1-1,.2-1.5.4v28.7h-7.6v-26.5c-3.3,1-6.7,2.1-10.1,3.4-6,2.2-12.4,4-19,5.3v0c0,0,0,32.9,0,32.9h-7.6v-31.6c-6.1.9-12.5,1.5-19,1.7-.2,0-.4,0-.6,0v29.2h-7.6v-36.6h1.7c.7,0,1.4,0,2.1,0c1.3,0,2.6,0,3.8,0c.1,0,.3,0,.4,0c6.6-.2,13.1-.8,19.2-1.8c2.7-.4,5.1-.9,7.4-1.4c5.8-1.2,11.4-2.8,16.7-4.8c4-1.5,8.1-2.8,12.1-4c2.1-.6,4.2-1.2,6.1-1.7.6-.1,1.1-.3,1.6-.4c8.6-2.2,17.3-3.9,25.8-4.9c2.5-.3,5.1-.6,7.8-.8c8.9-.7,17.4-.7,25.6-.2h.1c.3,0,.6,0,.9,0c3.3.3,5.9,3.1,5.9,6.4v.1Z" fill="#2167db" stroke-width="0"/></g><g><path d="M187.1,90.3v28h-11.7c-4.3,0-8.7.2-13.2.6c0,0-.1,0-.2,0v-28.6h25.1Z" fill="#fff" stroke-width="0"/><path d="M154.4,90.3v29.4c-8.4,1-16.9,2.6-25.4,4.8v-26.2h-7.6v28.2c-.2,0-.4.1-.6.2-4,1.2-8,2.5-12.1,4-5.2,1.9-10.7,3.5-16.4,4.7v-40.9h-7.6v42.3c0,0,0,0-.1,0-6.1,1-12.6,1.6-19.2,1.8-.1,0-.3,0-.4,0v-23.1h-3.8v-25.3h93.1l.1.1Z" fill="#fff" stroke-width="0"/><path d="M194.7,87.9v31.5c0,3.6-2.9,6.4-6.4,6.4h-11.1c-.7,0-1.3,0-2,0-4,0-8.1.2-12.3.5-2.6.2-5,.5-7.4.8-8.2,1-16.6,2.6-24.9,4.7-2.3.6-4.8,1.3-7.5,2.1-3.8,1.1-7.8,2.4-11.7,3.9-5.6,2-11.6,3.7-17.7,5-2.4.5-5,1-7.8,1.5-6.4,1-13.2,1.6-20.1,1.9-.2,0-.4,0-.7,0-1.2,0-2.5,0-3.8,0-.7,0-1.4,0-2.1,0h-1.7v-30.6h7.6v23.1c0,0,0,0,0,0c6.8-.2,13.4-.8,19.7-1.8v0c0,0,0-42.3,0-42.3h7.6v40.9c5.7-1.2,11.2-2.8,16.4-4.7c4-1.5,8.1-2.8,12.1-4c.2,0,.4-.1.6-.2v-28.2h7.6v26.2c8.5-2.2,17-3.8,25.4-4.8v-31.8h7.6v31c0,0,.1,0,.2,0c4.5-.4,8.9-.5,13.2-.6h11.7v-30.4h7.6l-.1-.1Z" fill="#2167db" stroke-width="0"/></g><rect width="7.7" height="228.2" rx="0" ry="0" transform="translate(57.5 116.9)" fill="#2167db" stroke-width="0"/><rect width="7.6" height="228" rx="0" ry="0" transform="translate(4.5 117)" fill="#2167db" stroke-width="0"/><rect width="45.4" height="232.2" rx="0" ry="0" transform="translate(12.1 112.8)" fill="#feda29" stroke-width="0"/><g><path d="M4.5,96c0,.2,0,.5,0,.7v-.7v0Z" fill="#feda29" stroke-width="0"/><path d="M187.1,97v-11.8c-1-.2-2.1-.4-3.3-.6-5.9-.9-13.4-1.8-21.8-1.8v4c0,0,0,10.3,0,10.3c9.7-.8,18.2-.7,25.1-.1Z" fill="#fff" stroke-width="0"/><path d="M129.1,102.7c9-2.3,17.5-3.9,25.4-4.8v-14.8c-.6,0-1.2.1-1.9.2-7.8.7-15.8,2.2-23.5,5.2v14.3-.1Z" fill="#fff" stroke-width="0"/><path d="M65.2,116.9c6.4-.2,13-.8,19.6-1.8v-24c-3.7.8-6.8,2.6-9.3,4.7-2,1.6-3.6,3.5-4.9,5.2s-2.2,3.2-2.8,4.2c-1.3,2.3-2.1,4.6-2.5,7-.3,1.6-.3,3.2-.2,4.8l.1-.1Z" fill="#fff" stroke-width="0"/><path d="M109.6,108.8c4-1.5,8-2.8,11.9-3.9v-12.9c-.6.3-1.1.6-1.7,1-2.4,1.4-4.8,3-7.1,4.8l-.3.3v0c0,0-.4.2-.4.2-2.3,1.1-4.3,1.3-6,1-3.1-.6-5.4-2.7-7.2-4.3-1.7-1.5-3.2-3-5.2-3.5-.3,0-.5-.1-.8-.2-.1,0-.3,0-.4,0v22.5c5.7-1.2,11.5-2.8,17.2-4.9v-.1Z" fill="#fff" stroke-width="0"/><path d="M66.9,40.5c.3.4.6.8,1.1,1.1l17.4,12L68.6,66.3c-.4.3-.8.7-1,1.1s-.4.9-.5,1.4c0,.2,0,.5,0,.7c0,.7.3,1.5.8,2.1s1.1,1.1,1.8,1.3c1.2.4,2.5.2,3.5-.6L92.1,58.1l19.7,13.6c.3.2.6.3.9.5c1.6.5,3.4,0,4.4-1.4.4-.6.7-1.4.7-2.1c0-.2,0-.5,0-.7-.2-1-.7-1.8-1.6-2.4L98.5,53.4v0c0,0,16.8-12.7,16.8-12.7.6-.5,1.1-1.1,1.3-1.8.2-.5.2-1,.2-1.4c0-.7-.3-1.5-.8-2.1s-1.1-1.1-1.8-1.3c-1.2-.4-2.5-.2-3.5.6l-9.4,7.1-9.4,7.1L72.4,35.5c-.2-.1-.4-.3-.7-.4-1.2-.5-2.5-.4-3.5.3-.2.1-.4.3-.6.5s-.4.4-.5.6c-.3.4-.5.9-.6,1.4c0,.5-.1,1,0,1.5c0,.5.3.9.5,1.4l-.1-.3Z" fill="#2167db" stroke-width="0"/><path d="M200.8,84.1v.5c-.4,2-2.4,3.3-4.3,2.7h-.5c0-.2-.4-.3-1.2-.5v10.9c-2.3-.3-4.8-.6-7.6-.8v-11.8c-1-.2-2.1-.4-3.3-.6-5.9-.9-13.4-1.8-21.8-1.8v0c0,0,0,4,0,4v10.3c-2.5.2-5,.4-7.6.8v-14.8c-.6,0-1.2,0-1.8.2-7.8.7-15.8,2.2-23.5,5.2v14.3c-2.5.6-5.1,1.3-7.6,2.1v-12.9c-.6.3-1.1.6-1.7,1-2.4,1.4-4.8,3-7.1,4.8l-.3.2v0c0,0-.4.2-.4.2-2.3,1.1-4.3,1.3-6,1-3.1-.6-5.4-2.7-7.2-4.4-1.7-1.5-3.2-3-5.2-3.5-.3,0-.5-.1-.8-.2-.1,0-.3,0-.4,0v22.5c-2.6.5-5.1,1-7.6,1.4v-24c0,0,0,0,0,0-3.7.8-6.8,2.6-9.4,4.7-2,1.6-3.6,3.5-4.9,5.2s-2.2,3.2-2.8,4.2c-1.2,2.3-2.1,4.6-2.5,7-.3,1.6-.3,3.2-.2,4.8-2.2,0-4.3.1-6.4,0h-1.3c0-.7,0-1.3,0-2c0-4.6,1.3-9.2,3.7-13.6c6.5-11.6,16.1-18.1,26.8-18.3.4,0,.8,0,1.2,0c.8,0,1.6,0,2.5.2.8.1,1.7.2,2.5.4.4,0,.8.2,1.3.3s.9.3,1.4.4c1.3.5,2.5,1.1,3.5,1.9.4.2.7.5,1,.7c1,.8,1.8,1.5,2.6,2.3c2.7,2.5,3.3,2.7,4.4,2.3c2.2-1.7,4.5-3.3,6.9-4.8c1.2-.7,2.5-1.4,3.8-2.1s2.6-1.3,3.9-1.9c.3-.2.6-.4.9-.5.2,0,.3-.1.5-.2.2,0,.3,0,.5,0c4.5-1.8,9.2-3.3,14.3-4.4c1.7-.4,3.4-.7,5.1-1s3.5-.5,5.3-.7s3.6-.4,5.5-.5c1.8-.1,3.7-.2,5.6-.2s3.8,0,5.8,0c2.2,0,4.4.2,6.4.4c2.1.2,4.1.4,5.9.6c1.3.1,2.5.3,3.6.5.6,0,1.1.2,1.7.3c3.9.6,7.1,1.3,9.5,1.8c0-2.6-.2-5.4-.8-8.2-1-4.7-2.9-9.5-5.6-14.4l-5.7,6.8c-.1.2-.3.3-.4.4-.3.3-.6.5-1,.6-.9.4-1.9.4-2.8.1-.1,0-.2,0-.3-.1-.3-.1-.6-.3-.9-.5-.2-.2-.4-.4-.5-.6-.3-.4-.6-.8-.7-1.3c0-.2-.1-.5-.1-.7c0-1,.2-2,.9-2.8l16-19.2-18.5,1.4-18.5,1.4c-.3,0-.5,0-.8,0-.5,0-1-.2-1.4-.5-.6-.4-1.2-.9-1.5-1.6-.2-.4-.4-.9-.4-1.5c0,0,0-.2,0-.3c0-.2,0-.3,0-.5.1-1,.6-1.9,1.4-2.5.6-.5,1.3-.8,2.1-.8l13.9-1.1c-1.7-1.4-3.4-2.8-5.2-4.2-.9-.7-1.8-1.4-2.8-2-1.9-1.3-3.8-2.6-5.8-3.8-4-2.4-8.1-4.6-12.5-6.6-2.2-1-4.4-1.9-6.6-2.7-2.3-.8-4.6-1.6-6.9-2.3-7-2-14.2-3.4-21.7-3.8-6.2-.4-12.5-.1-18.8.8-10.1,1.5-20.3,4.9-30.2,10.5-.8.5-1.7,1-2.5,1.5s-1.6,1-2.4,1.5c-1.6,1-3.2,2.1-4.7,3.1-1.5,1.1-3,2.2-4.4,3.3-7.8,6.2-14.1,13.3-19,21.3-.9,1.5-1.7,2.9-2.5,4.4-1.6,3-3,6.1-4.2,9.4-2.7,7.3-4.5,15.1-5.2,23.6c0,1-.2,1.9-.2,2.9-.1,2-.2,4-.2,5.9v0v21.1h-7.6v-20.4c0-.2,0-.5,0-.7c0-1.9,0-3.9.2-5.9c0-1.1.1-2.2.2-3.3C6.9,63.9,17,32.8,53.7,12.1c45.7-25.8,96.4-7.8,124.5,19.8l14.3-1.1c2.8-.2,5.4,1.3,6.7,3.8s1,5.5-.8,7.7l-6.1,7.3c7.1,11.8,10,23.5,8.4,34.2l.1.3Z" fill="#2167db" stroke-width="0"/><path d="M192.8,70.6c-1-4.7-2.9-9.5-5.6-14.4L181.5,63c-.1.2-.3.3-.4.4-.3.3-.6.5-1,.6-.9.4-1.9.4-2.8.1-.1,0-.2,0-.3-.1-.3-.1-.6-.3-.9-.5-.2-.2-.4-.4-.5-.6-.3-.4-.6-.8-.7-1.3c0-.2-.1-.5-.1-.7c0-1,.2-2,.9-2.8l16-19.2-18.5,1.4-18.5,1.4c-.3,0-.5,0-.8,0-.5,0-1-.2-1.4-.5-.6-.4-1.2-.9-1.5-1.6-.2-.4-.4-.9-.4-1.5c0,0,0-.2,0-.3c0-.2,0-.3,0-.5.1-1,.6-1.9,1.4-2.5.6-.5,1.3-.8,2.1-.8L168,32.9c-1.7-1.4-3.4-2.8-5.2-4.2-.9-.7-1.8-1.4-2.8-2-1.9-1.3-3.8-2.6-5.8-3.8-4-2.4-8.1-4.6-12.5-6.6-2.2-1-4.4-1.9-6.6-2.7-2.3-.8-4.6-1.6-6.9-2.3-7-2-14.2-3.4-21.7-3.8-6.2-.4-12.5-.1-18.8.8-10.1,1.5-20.3,4.9-30.2,10.5-.8.5-1.7,1-2.5,1.5s-1.6,1-2.4,1.5c-1.6,1-3.2,2.1-4.7,3.1-1.5,1.1-3,2.2-4.4,3.3-7.8,6.2-14.1,13.3-19,21.3-.9,1.5-1.7,2.9-2.5,4.4-1.6,3-3,6.1-4.2,9.4-2.7,7.3-4.5,15.1-5.2,23.6c0,1-.2,1.9-.2,2.9-.1,2-.2,4-.2,5.9v0v21.1h45.4c0-.7,0-1.3,0-2c0-4.6,1.3-9.2,3.7-13.6c6.5-11.6,16.1-18.1,26.8-18.3.4,0,.8,0,1.2,0c.8,0,1.6,0,2.5.2.8.1,1.7.2,2.5.4.4,0,.8.2,1.3.3s.9.3,1.4.4c1.3.5,2.5,1.1,3.5,1.9.4.2.7.5,1,.7c1,.8,1.8,1.5,2.6,2.3c2.7,2.5,3.3,2.7,4.4,2.3c2.2-1.7,4.5-3.3,6.9-4.8c1.2-.7,2.5-1.4,3.8-2.1s2.6-1.3,3.9-1.9c.3-.2.6-.4.9-.5.2,0,.3-.1.5-.2.2,0,.3,0,.5,0c4.5-1.8,9.2-3.3,14.3-4.4c1.7-.4,3.4-.7,5.1-1s3.5-.5,5.3-.7s3.6-.4,5.5-.5c1.8-.1,3.7-.2,5.6-.2s3.8,0,5.8,0c2.2,0,4.4.2,6.4.4c2.1.2,4.1.4,5.9.6c1.3.1,2.5.3,3.6.5.6,0,1.1.2,1.7.3c3.9.6,7.1,1.3,9.5,1.8c0-2.6-.2-5.4-.8-8.2l-.1.1Zm-75.9.2c-1,1.4-2.8,2-4.4,1.4-.3-.1-.6-.3-.9-.5L91.9,58.1L73,72.3c-1.1.8-2.4,1-3.5.6-.7-.2-1.3-.7-1.8-1.3s-.7-1.4-.8-2.1c0-.2,0-.5,0-.7c0-.5.2-1,.5-1.4.2-.4.6-.8,1-1.1L85.2,53.6l-17.4-12c-.4-.3-.8-.7-1.1-1.1s-.4-.9-.5-1.4c0-.5,0-1,0-1.5.1-.5.3-1,.6-1.4.2-.2.3-.4.5-.6s.4-.3.6-.5c1-.7,2.4-.8,3.5-.3.2,0,.5.2.7.4L91.6,48.6l9.4-7.1l9.4-7.1c1.1-.8,2.4-1,3.5-.6.7.2,1.3.7,1.8,1.3s.7,1.4.8,2.1c0,.5,0,1-.2,1.4-.2.7-.7,1.3-1.3,1.8L98.1,53.1l17.7,12.2c.9.6,1.4,1.5,1.6,2.4c0,.2,0,.5,0,.7c0,.7-.2,1.5-.7,2.1l.2.3Z" fill="#feda29" stroke-width="0"/></g><g><path d="M162.1,325.2v16.9c1.7-.2,3.6-.4,5.4-.5c1.3,0,2.5-.2,3.9-.2c4.6-.2,8.9.1,12.7.6c1.1.1,2.1.3,3,.4v-.8c0,0,0-16.6,0-16.6-6.9-.5-15.4-.6-25.1.1l.1.1Z" fill="#fff" stroke-width="0"/><path d="M129.1,330.8v13.1c0,0,0,7.7,0,7.7c7.5-3.3,15.5-6.4,25.4-8.3v-10.7c0,0,0-6.6,0-6.6-7.8.9-16.3,2.5-25.4,4.8Z" fill="#fff" stroke-width="0"/><path d="M65.2,345c.3,3.7,1.6,7.2,3.9,10.4c3.5,4.8,8.8,7.9,14.8,9c.3,0,.6.1.9.2v-18.2c0,0,0-3.3,0-3.3-6.6,1-13.2,1.6-19.6,1.8v.1Z" fill="#fff" stroke-width="0"/><path d="M121.5,332.9c-3.9,1.2-7.8,2.5-11.9,3.9-5.7,2.1-11.4,3.7-17.2,4.9v23.1c1,0,2-.2,3.1-.4.2,0,.5,0,.7-.1c8.1-1.7,15-4.5,21.8-7.6c1.1-.5,2.2-1,3.4-1.5v-22.2l.1-.1Z" fill="#fff" stroke-width="0"/><path d="M194.8,351.9c0,.2,0,.5,0,.8-.2,2.9-.9,7.5-2.9,12.4-.7,1.8-1.6,3.6-2.7,5.5-3.8,6.4-7.8,12-11.8,16.8-.8,1-1.6,1.9-2.4,2.8-1.6,1.8-3.2,3.5-4.8,5-4,3.9-8,7.1-11.9,9.8-1.6,1-3.1,2-4.6,2.9-5.3,3.1-10.3,5.1-14.8,6.5-1.3.4-2.5.7-3.7,1s-2.4.5-3.4.7c-3.3.6-6.1.8-8.3.8-5.9,0-11.6-.5-17.1-1.5-1.8-.3-3.6-.7-5.4-1.2-4.4-1-8.5-2.3-12.4-3.7-1.5-.5-3-1.1-4.4-1.7-2.1-.9-4.1-1.7-6-2.6-1.2-.6-2.4-1.1-3.5-1.7-1.6-.8-3.1-1.6-4.4-2.3-.4-.2-.8-.5-1.2-.7-.8-.5-1.5-.9-2.1-1.2-.3-.2-.6-.4-.9-.5-.5-.3-.9-.6-1.3-.8-.3-.2-.6-.4-.7-.4c0,0-.1,0-.1,0l-.8-.6c-.2-.1-.3-.2-.5-.3-.4-.1-.8-.1-1.1,0-.2,0-.4.1-.6.2l-.9.5c-.1,0-7.5,4-16.8,6.4-1.7.4-3.5.8-5.3,1.1-2.4.4-4.9.7-7.3.7-1.2,0-2.4,0-3.6-.2-1.2-.1-2.4-.3-3.5-.6-2.9-.7-5.5-1.9-7.9-3.8-3-2.4-5.1-5.1-6.4-8-.6-1.2-.9-2.5-1.2-3.7-.2-.8-.3-1.7-.4-2.6c0-.4,0-.9,0-1.3c0-1.3,0-2.7.2-4c.6-4.5,2.2-9.3,4.4-14c.4-1,.9-1.9,1.3-2.9.2-.5.5-1,.7-1.4.7-1.4,1.5-2.9,2.2-4.3l.4-.7c.1-.2.2-.5.2-.7s0-.5,0-.8c-2.6-2.6-4.1-8.1-4.7-10.3c0,0,0,0,0,0-.1-.5-.2-8.8-.2-8.8h45.4c0,1.3.2,9.7.5,11c.8,3.8,2.4,7.6,4.9,11c.9,1.3,2,2.5,3.1,3.6c1.7,1.6,3.5,3.1,5.5,4.3c4.7,2.8,10.1,4.5,16,4.8c1.7,0,3.4,0,5.1,0c1.7-.1,3.4-.4,5.2-.8c2.7-.5,5.2-1.2,7.7-2c7.4-2.3,13.9-5.3,20.2-8.2c11-5.1,22.3-10.3,38.6-12c2.3-.2,4.8-.4,7.3-.5c3.2-.1,6.3,0,9.1.3c1.1.1,2.2.2,3.3.4c1.6.2,3,.5,4.4.7c1.3.3,2.5.5,3.6.8s2,.5,2.8.7l-.1-.7Z" fill="#feda29" stroke-width="0"/><path d="M202.4,348.9v-1.4c-.1-.7-.5-1.2-1.2-1.5l-1.3-.5c-.2,0-2.1-.8-5.2-1.6v-18.1c-2.2-.3-4.8-.6-7.6-.8v16.6c0,0,0,.8,0,.8-1-.2-2-.3-3.1-.4-3.8-.5-8.1-.7-12.7-.6-1.3,0-2.6.1-3.9.2-1.9.1-3.7.3-5.5.5v0-16.9c-2.4.2-5,.4-7.6.8v6.6c0,0,0,10.7,0,10.7-4.9,1-9.4,2.2-13.6,3.6s-8.1,3-11.8,4.7v-7.7c0,0,0-13.1,0-13.1-2.5.6-5,1.3-7.6,2.1v22.2c-1.1.5-2.3,1-3.4,1.5-6.9,3.1-13.7,6-21.8,7.6-.2,0-.5,0-.7.1-1,.2-2.1.3-3.1.4v-23.1c-2.5.5-5.1,1-7.6,1.4v21.5c-.3,0-.6-.1-.9-.2-6.1-1.2-11.3-4.3-14.8-9-2.3-3.2-3.6-6.7-3.9-10.4-2.2,0-4.3,0-6.4,0l-1.1-.5c0,1.3,0,3.1.3,4.4.8,3.8,2.4,7.6,4.9,11c.9,1.3,2,2.5,3.1,3.6c1.7,1.6,3.5,3.1,5.5,4.3c4.7,2.8,10.1,4.5,16,4.8c1.7,0,3.4,0,5.1,0c1.7-.1,3.4-.4,5.2-.8c2.7-.5,5.2-1.2,7.7-2c7.4-2.3,13.9-5.3,20.2-8.2c11-5.1,22.3-10.3,38.6-12c2.3-.2,4.8-.4,7.3-.5c3.2-.1,6.3,0,9.1.3c1.1.1,2.2.2,3.3.4c1.6.2,3,.5,4.4.7c1.3.3,2.5.5,3.6.8s2,.5,2.8.7c0,.2,0,.5,0,.8-.2,2.9-.9,7.5-2.9,12.4-.7,1.8-1.6,3.6-2.7,5.5-3.8,6.4-7.8,12-11.8,16.8-.8,1-1.6,1.9-2.4,2.8-1.6,1.8-3.2,3.5-4.8,5-4,3.9-8,7.1-11.9,9.8-1.6,1-3.1,2-4.6,2.9-5.3,3.1-10.3,5.1-14.8,6.5-1.3.4-2.5.7-3.7,1s-2.4.5-3.4.7c-3.3.6-6.1.8-8.3.8-5.9,0-11.6-.5-17.1-1.5-1.8-.3-3.6-.7-5.4-1.2-4.4-1-8.5-2.3-12.4-3.7-1.5-.5-3-1.1-4.4-1.7-2.1-.9-4.1-1.7-6-2.6-1.2-.6-2.4-1.1-3.5-1.7-1.6-.8-3.1-1.6-4.4-2.3-.4-.2-.8-.5-1.2-.7-.8-.5-1.5-.9-2.1-1.2-.3-.2-.6-.4-.9-.5-.5-.3-.9-.6-1.3-.8-.3-.2-.6-.4-.7-.4c0,0-.1,0-.1,0l-.8-.6c-.2-.1-.3-.2-.5-.3-.4-.1-.8-.1-1.1,0-.2,0-.4.1-.6.2l-.9.5c-.1,0-7.5,4-16.8,6.4-1.7.4-3.5.8-5.3,1.1-2.4.4-4.9.7-7.3.7-1.2,0-2.4,0-3.6-.2-1.2-.1-2.4-.3-3.5-.6-2.9-.7-5.5-1.9-7.9-3.8-3-2.4-5.1-5.1-6.4-8-.6-1.2-.9-2.5-1.2-3.7-.2-.8-.3-1.7-.4-2.6c0-.4,0-.9,0-1.3c0-1.3,0-2.7.2-4c.6-4.5,2.2-9.3,4.4-14c.4-1,.9-1.9,1.3-2.9.2-.5.5-1,.7-1.4.7-1.4,1.5-2.9,2.2-4.3l.4-.7c.1-.2.2-.5.2-.7s0-.5,0-.8c-2.6-2.6-4.1-8.1-4.7-10.3c0,0,0,0,0,0-.1-.5-.2-1.6-.2-1.6h-7.6c0,1.2.4,2.9,1,4.5c1.3,3.6,3.3,7.3,3.5,7.6q0,0,0,0c-6.7,12.7-17.3,34.9,1.9,50.3c2.5,2,5.2,3.4,8,4.4c16,5.5,36.3-3.1,42.8-6.2c7.1,4.4,32.7,18.9,61.8,18.5c15.6-.2,30.6-6.1,44.5-17.3c13.1-10.6,22.2-23.6,27.6-32.6c7.4-12.5,6.7-24.9,6.7-25.5l.1-.5Z" fill="#2167db" stroke-width="0"/></g></g><mask id="eWjCoBtlX2g141" mask-type="alpha" x="-150%" y="-150%" height="400%" width="400%"><rect id="eWjCoBtlX2g142" width="300" height="311" rx="0" ry="0" fill="#d2dbed" stroke-width="0"/></mask></g><path d="" fill="none" stroke="#3f5787" stroke-width="1.8"/>
<script><![CDATA[
!function(t,e){"object"==typeof exports&&"undefined"!=typeof module?module.exports=e():"function"==typeof __SVGATOR_DEFINE__&&__SVGATOR_DEFINE__.amd?__SVGATOR_DEFINE__(e):((t="undefined"!=typeof globalThis?globalThis:t||self).__SVGATOR_PLAYER__=t.__SVGATOR_PLAYER__||{},t.__SVGATOR_PLAYER__["91c80d77"]=e())}(this,(function(){"use strict";function t(t,e){var n=Object.keys(t);if(Object.getOwnPropertySymbols){var r=Object.getOwnPropertySymbols(t);e&&(r=r.filter((function(e){return Object.getOwnPropertyDescriptor(t,e).enumerable}))),n.push.apply(n,r)}return n}function e(e){for(var n=1;n<arguments.length;n++){var r=null!=arguments[n]?arguments[n]:{};n%2?t(Object(r),!0).forEach((function(t){o(e,t,r[t])})):Object.getOwnPropertyDescriptors?Object.defineProperties(e,Object.getOwnPropertyDescriptors(r)):t(Object(r)).forEach((function(t){Object.defineProperty(e,t,Object.getOwnPropertyDescriptor(r,t))}))}return e}function n(t){return(n="function"==typeof Symbol&&"symbol"==typeof Symbol.iterator?function(t){return typeof t}:function(t){return t&&"function"==typeof Symbol&&t.constructor===Symbol&&t!==Symbol.prototype?"symbol":typeof t})(t)}function r(t,e){if(!(t instanceof e))throw new TypeError("Cannot call a class as a function")}function i(t,e){for(var n=0;n<e.length;n++){var r=e[n];r.enumerable=r.enumerable||!1,r.configurable=!0,"value"in r&&(r.writable=!0),Object.defineProperty(t,r.key,r)}}function u(t,e,n){return e&&i(t.prototype,e),n&&i(t,n),t}function o(t,e,n){return e in t?Object.defineProperty(t,e,{value:n,enumerable:!0,configurable:!0,writable:!0}):t[e]=n,t}function a(t){return(a=Object.setPrototypeOf?Object.getPrototypeOf:function(t){return t.__proto__||Object.getPrototypeOf(t)})(t)}function l(t,e){return(l=Object.setPrototypeOf||function(t,e){return t.__proto__=e,t})(t,e)}function s(){if("undefined"==typeof Reflect||!Reflect.construct)return!1;if(Reflect.construct.sham)return!1;if("function"==typeof Proxy)return!0;try{return Boolean.prototype.valueOf.call(Reflect.construct(Boolean,[],(function(){}))),!0}catch(t){return!1}}function f(t,e,n){return(f=s()?Reflect.construct:function(t,e,n){var r=[null];r.push.apply(r,e);var i=new(Function.bind.apply(t,r));return n&&l(i,n.prototype),i}).apply(null,arguments)}function c(t,e){if(e&&("object"==typeof e||"function"==typeof e))return e;if(void 0!==e)throw new TypeError("Derived constructors may only return object or undefined");return function(t){if(void 0===t)throw new ReferenceError("this hasn't been initialised - super() hasn't been called");return t}(t)}function h(t,e,n){return(h="undefined"!=typeof Reflect&&Reflect.get?Reflect.get:function(t,e,n){var r=function(t,e){for(;!Object.prototype.hasOwnProperty.call(t,e)&&null!==(t=a(t)););return t}(t,e);if(r){var i=Object.getOwnPropertyDescriptor(r,e);return i.get?i.get.call(n):i.value}})(t,e,n||t)}function v(t){return function(t){if(Array.isArray(t))return d(t)}(t)||function(t){if("undefined"!=typeof Symbol&&null!=t[Symbol.iterator]||null!=t["@@iterator"])return Array.from(t)}(t)||function(t,e){if(!t)return;if("string"==typeof t)return d(t,e);var n=Object.prototype.toString.call(t).slice(8,-1);"Object"===n&&t.constructor&&(n=t.constructor.name);if("Map"===n||"Set"===n)return Array.from(t);if("Arguments"===n||/^(?:Ui|I)nt(?:8|16|32)(?:Clamped)?Array$/.test(n))return d(t,e)}(t)||function(){throw new TypeError("Invalid attempt to spread non-iterable instance.\nIn order to be iterable, non-array objects must have a [Symbol.iterator]() method.")}()}function d(t,e){(null==e||e>t.length)&&(e=t.length);for(var n=0,r=new Array(e);n<e;n++)r[n]=t[n];return r}function y(t,e,n){if(Number.isInteger(t))return t;var r=Math.pow(10,e);return Math[n]((+t+Number.EPSILON)*r)/r}Number.isInteger||(Number.isInteger=function(t){return"number"==typeof t&&isFinite(t)&&Math.floor(t)===t}),Number.EPSILON||(Number.EPSILON=2220446049250313e-31);var g=p(Math.pow(10,-6));function p(t){var e=arguments.length>1&&void 0!==arguments[1]?arguments[1]:6;return y(t,e,"round")}function m(t,e){var n=arguments.length>2&&void 0!==arguments[2]?arguments[2]:g;return Math.abs(t-e)<n}p(Math.pow(10,-2)),p(Math.pow(10,-4));var b=Math.PI/180;function w(t){return t*b}function k(t){return t/b}function _(t){return t}function A(t,e,n){var r=1-n;return 3*n*r*(t*r+e*n)+n*n*n}function x(){var t=arguments.length>0&&void 0!==arguments[0]?arguments[0]:0,e=arguments.length>1&&void 0!==arguments[1]?arguments[1]:0,n=arguments.length>2&&void 0!==arguments[2]?arguments[2]:1,r=arguments.length>3&&void 0!==arguments[3]?arguments[3]:1;return t<0||t>1||n<0||n>1?null:m(t,e)&&m(n,r)?_:function(i){if(i<=0)return t>0?i*e/t:0===e&&n>0?i*r/n:0;if(i>=1)return n<1?1+(i-1)*(r-1)/(n-1):1===n&&t<1?1+(i-1)*(e-1)/(t-1):1;for(var u,o=0,a=1;o<a;){var l=A(t,n,u=(o+a)/2);if(m(i,l))break;l<i?o=u:a=u}return A(e,r,u)}}function S(){return 1}function O(t){return 1===t?1:0}function E(){var t=arguments.length>0&&void 0!==arguments[0]?arguments[0]:1,e=arguments.length>1&&void 0!==arguments[1]?arguments[1]:0;if(1===t){if(0===e)return O;if(1===e)return S}var n=1/t;return function(t){return t>=1?1:(t+=e*n)-t%n}}var j=Math.sin,M=Math.cos,P=Math.acos,B=Math.asin,I=Math.tan,T=Math.atan2,N=Math.sqrt,R=function(){function t(){var e=arguments.length>0&&void 0!==arguments[0]?arguments[0]:1,n=arguments.length>1&&void 0!==arguments[1]?arguments[1]:0,i=arguments.length>2&&void 0!==arguments[2]?arguments[2]:0,u=arguments.length>3&&void 0!==arguments[3]?arguments[3]:1,o=arguments.length>4&&void 0!==arguments[4]?arguments[4]:0,a=arguments.length>5&&void 0!==arguments[5]?arguments[5]:0;r(this,t),this.m=[e,n,i,u,o,a],this.i=null,this.w=null,this.s=null}return u(t,[{key:"determinant",get:function(){var t=this.m;return t[0]*t[3]-t[1]*t[2]}},{key:"isIdentity",get:function(){if(null===this.i){var t=this.m;this.i=1===t[0]&&0===t[1]&&0===t[2]&&1===t[3]&&0===t[4]&&0===t[5]}return this.i}},{key:"point",value:function(t,e){var n=this.m;return{x:n[0]*t+n[2]*e+n[4],y:n[1]*t+n[3]*e+n[5]}}},{key:"translateSelf",value:function(){var t=arguments.length>0&&void 0!==arguments[0]?arguments[0]:0,e=arguments.length>1&&void 0!==arguments[1]?arguments[1]:0;if(!t&&!e)return this;var n=this.m;return n[4]+=n[0]*t+n[2]*e,n[5]+=n[1]*t+n[3]*e,this.w=this.s=this.i=null,this}},{key:"rotateSelf",value:function(){var t=arguments.length>0&&void 0!==arguments[0]?arguments[0]:0;if(t%=360){t=w(t);var e=j(t),n=M(t),r=this.m,i=r[0],u=r[1];r[0]=i*n+r[2]*e,r[1]=u*n+r[3]*e,r[2]=r[2]*n-i*e,r[3]=r[3]*n-u*e,this.w=this.s=this.i=null}return this}},{key:"scaleSelf",value:function(){var t=arguments.length>0&&void 0!==arguments[0]?arguments[0]:1,e=arguments.length>1&&void 0!==arguments[1]?arguments[1]:1;if(1!==t||1!==e){var n=this.m;n[0]*=t,n[1]*=t,n[2]*=e,n[3]*=e,this.w=this.s=this.i=null}return this}},{key:"skewSelf",value:function(t,e){if(e%=360,(t%=360)||e){var n=this.m,r=n[0],i=n[1],u=n[2],o=n[3];t&&(t=I(w(t)),n[2]+=r*t,n[3]+=i*t),e&&(e=I(w(e)),n[0]+=u*e,n[1]+=o*e),this.w=this.s=this.i=null}return this}},{key:"resetSelf",value:function(){var t=arguments.length>0&&void 0!==arguments[0]?arguments[0]:1,e=arguments.length>1&&void 0!==arguments[1]?arguments[1]:0,n=arguments.length>2&&void 0!==arguments[2]?arguments[2]:0,r=arguments.length>3&&void 0!==arguments[3]?arguments[3]:1,i=arguments.length>4&&void 0!==arguments[4]?arguments[4]:0,u=arguments.length>5&&void 0!==arguments[5]?arguments[5]:0,o=this.m;return o[0]=t,o[1]=e,o[2]=n,o[3]=r,o[4]=i,o[5]=u,this.w=this.s=this.i=null,this}},{key:"recomposeSelf",value:function(){var t=arguments.length>0&&void 0!==arguments[0]?arguments[0]:null,e=arguments.length>1&&void 0!==arguments[1]?arguments[1]:null,n=arguments.length>2&&void 0!==arguments[2]?arguments[2]:null,r=arguments.length>3&&void 0!==arguments[3]?arguments[3]:null,i=arguments.length>4&&void 0!==arguments[4]?arguments[4]:null;return this.isIdentity||this.resetSelf(),t&&(t.x||t.y)&&this.translateSelf(t.x,t.y),e&&this.rotateSelf(e),n&&(n.x&&this.skewSelf(n.x,0),n.y&&this.skewSelf(0,n.y)),!r||1===r.x&&1===r.y||this.scaleSelf(r.x,r.y),i&&(i.x||i.y)&&this.translateSelf(i.x,i.y),this}},{key:"decompose",value:function(){var t=arguments.length>0&&void 0!==arguments[0]?arguments[0]:0,e=arguments.length>1&&void 0!==arguments[1]?arguments[1]:0,n=this.m,r=n[0]*n[0]+n[1]*n[1],i=[[n[0],n[1]],[n[2],n[3]]],u=N(r);if(0===u)return{origin:{x:p(n[4]),y:p(n[5])},translate:{x:p(t),y:p(e)},scale:{x:0,y:0},skew:{x:0,y:0},rotate:0};i[0][0]/=u,i[0][1]/=u;var o=n[0]*n[3]-n[1]*n[2]<0;o&&(u=-u);var a=i[0][0]*i[1][0]+i[0][1]*i[1][1];i[1][0]-=i[0][0]*a,i[1][1]-=i[0][1]*a;var l,s=N(i[1][0]*i[1][0]+i[1][1]*i[1][1]);return 0===s?{origin:{x:p(n[4]),y:p(n[5])},translate:{x:p(t),y:p(e)},scale:{x:p(u),y:0},skew:{x:0,y:0},rotate:0}:(i[1][0]/=s,i[1][1]/=s,a/=s,i[1][1]<0?(l=k(P(i[1][1])),i[0][1]<0&&(l=360-l)):l=k(B(i[0][1])),o&&(l=-l),a=k(T(a,N(i[0][0]*i[0][0]+i[0][1]*i[0][1]))),o&&(a=-a),{origin:{x:p(n[4]),y:p(n[5])},translate:{x:p(t),y:p(e)},scale:{x:p(u),y:p(s)},skew:{x:p(a),y:0},rotate:p(l)})}},{key:"multiply",value:function(t){return this.clone().multiplySelf(t)}},{key:"preMultiply",value:function(t){return t.multiply(this)}},{key:"multiplySelf",value:function(t){var e=F(this.m,t.m),n=e.a,r=e.b,i=e.c,u=e.d,o=e.tx,a=e.ty;return this.resetSelf(n,r,i,u,o,a),this}},{key:"preMultiplySelf",value:function(t){var e=F(t.m,this.m),n=e.a,r=e.b,i=e.c,u=e.d,o=e.tx,a=e.ty;return this.resetSelf(n,r,i,u,o,a),this}},{key:"clone",value:function(){var t=this.m;return new this.constructor(t[0],t[1],t[2],t[3],t[4],t[5])}},{key:"toString",value:function(){var t=arguments.length>0&&void 0!==arguments[0]?arguments[0]:" ";if(null===this.s){var e=this.m.map((function(t){return p(t)}));1===e[0]&&0===e[1]&&0===e[2]&&1===e[3]?this.s="translate("+e[4]+t+e[5]+")":this.s="matrix("+e.join(t)+")"}return this.s}}],[{key:"create",value:function(t){return t?Array.isArray(t)?f(this,v(t)):t instanceof this?t.clone():(new this).recomposeSelf(t.origin,t.rotate,t.skew,t.scale,t.translate):new this}}]),t}();function F(t,e){return{a:t[0]*e[0]+t[2]*e[1],b:t[1]*e[0]+t[3]*e[1],c:t[0]*e[2]+t[2]*e[3],d:t[1]*e[2]+t[3]*e[3],tx:t[0]*e[4]+t[2]*e[5]+t[4],ty:t[1]*e[4]+t[3]*e[5]+t[5]}}function D(t,e,n){return t>=.5?n:e}function C(t,e,n){return 0===t||e===n?e:t*(n-e)+e}function L(t,e,n){var r=C(t,e,n);return r<=0?0:r}function q(t,e,n){var r=C(t,e,n);return r<=0?0:r>=1?1:r}function V(t,e,n){return 0===t?e:1===t?n:{x:C(t,e.x,n.x),y:C(t,e.y,n.y)}}function G(t,e,n){return 0===t?e:1===t?n:{x:L(t,e.x,n.x),y:L(t,e.y,n.y)}}function z(t,e,n){var r=function(t,e,n){return Math.round(C(t,e,n))}(t,e,n);return r<=0?0:r>=255?255:r}function Y(t,e,n){return 0===t?e:1===t?n:{r:z(t,e.r,n.r),g:z(t,e.g,n.g),b:z(t,e.b,n.b),a:C(t,null==e.a?1:e.a,null==n.a?1:n.a)}}function U(t,e,n){var r=e.length;if(r!==n.length)return D(t,e,n);for(var i=new Array(r),u=0;u<r;u++)i[u]=C(t,e[u],n[u]);return i}function W(t,e){for(var n=[],r=0;r<t;r++)n.push(e);return n}function $(t,e){if(--e<=0)return t;var n=(t=Object.assign([],t)).length;do{for(var r=0;r<n;r++)t.push(t[r])}while(--e>0);return t}var H,Q=function(){function t(e){r(this,t),this.list=e,this.length=e.length}return u(t,[{key:"setAttribute",value:function(t,e){for(var n=this.list,r=0;r<this.length;r++)n[r].setAttribute(t,e)}},{key:"removeAttribute",value:function(t){for(var e=this.list,n=0;n<this.length;n++)e[n].removeAttribute(t)}},{key:"style",value:function(t,e){for(var n=this.list,r=0;r<this.length;r++)n[r].style[t]=e}}]),t}(),X=/-./g,J=function(t,e){return e.toUpperCase()};function K(t){return"function"==typeof t?t:D}function Z(t){return t?"function"==typeof t?t:Array.isArray(t)?function(t){var e=arguments.length>1&&void 0!==arguments[1]?arguments[1]:_;if(!Array.isArray(t))return e;switch(t.length){case 1:return E(t[0])||e;case 2:return E(t[0],t[1])||e;case 4:return x(t[0],t[1],t[2],t[3])||e}return e}(t,null):function(t,e){var n=arguments.length>2&&void 0!==arguments[2]?arguments[2]:_;switch(t){case"linear":return _;case"steps":return E(e.steps||1,e.jump||0)||n;case"bezier":case"cubic-bezier":return x(e.x1||0,e.y1||0,e.x2||0,e.y2||0)||n}return n}(t.type,t.value,null):null}function tt(t,e,n){var r=arguments.length>3&&void 0!==arguments[3]&&arguments[3],i=e.length-1;if(t<=e[0].t)return r?[0,0,e[0].v]:e[0].v;if(t>=e[i].t)return r?[i,1,e[i].v]:e[i].v;var u,o=e[0],a=null;for(u=1;u<=i;u++){if(!(t>e[u].t)){a=e[u];break}o=e[u]}return null==a?r?[i,1,e[i].v]:e[i].v:o.t===a.t?r?[u,1,a.v]:a.v:(t=(t-o.t)/(a.t-o.t),o.e&&(t=o.e(t)),r?[u,t,n(t,o.v,a.v)]:n(t,o.v,a.v))}function et(t,e){var n=arguments.length>2&&void 0!==arguments[2]?arguments[2]:null;return t&&t.length?"function"!=typeof e?null:("function"!=typeof n&&(n=null),function(r){var i=tt(r,t,e);return null!=i&&n&&(i=n(i)),i}):null}function nt(t,e){return t.t-e.t}function rt(t,e,r,i,u){var o,a="@"===r[0],l="#"===r[0],s=H[r],f=D;switch(a?(o=r.substr(1),r=o.replace(X,J)):l&&(r=r.substr(1)),n(s)){case"function":if(f=s(i,u,tt,Z,r,a,e,t),l)return f;break;case"string":f=et(i,K(s));break;case"object":if((f=et(i,K(s.i),s.f))&&"function"==typeof s.u)return s.u(e,f,r,a,t)}return f?function(t,e,n){if(arguments.length>3&&void 0!==arguments[3]&&arguments[3])return t instanceof Q?function(r){return t.style(e,n(r))}:function(r){return t.style[e]=n(r)};if(Array.isArray(e)){var r=e.length;return function(i){var u=n(i);if(null==u)for(var o=0;o<r;o++)t[o].removeAttribute(e);else for(var a=0;a<r;a++)t[a].setAttribute(e,u)}}return function(r){var i=n(r);null==i?t.removeAttribute(e):t.setAttribute(e,i)}}(e,r,f,a):null}function it(t,e,r,i){if(!i||"object"!==n(i))return null;var u=null,o=null;return Array.isArray(i)?o=function(t){if(!t||!t.length)return null;for(var e=0;e<t.length;e++)t[e].e&&(t[e].e=Z(t[e].e));return t.sort(nt)}(i):(o=i.keys,u=i.data||null),o?rt(t,e,r,o,u):null}function ut(t,e,n){if(!n)return null;var r=[];for(var i in n)if(n.hasOwnProperty(i)){var u=it(t,e,i,n[i]);u&&r.push(u)}return r.length?r:null}function ot(t,e){if(!e.settings.duration||e.settings.duration<0)return null;var n,r,i,u,o,a=function(t,e){if(!e)return null;var n=[];if(Array.isArray(e))for(var r=e.length,i=0;i<r;i++){var u=e[i];if(2===u.length){var o=null;if("string"==typeof u[0])o=t.getElementById(u[0]);else if(Array.isArray(u[0])){o=[];for(var a=0;a<u[0].length;a++)if("string"==typeof u[0][a]){var l=t.getElementById(u[0][a]);l&&o.push(l)}o=o.length?1===o.length?o[0]:new Q(o):null}if(o){var s=ut(t,o,u[1]);s&&(n=n.concat(s))}}}else for(var f in e)if(e.hasOwnProperty(f)){var c=t.getElementById(f);if(c){var h=ut(t,c,e[f]);h&&(n=n.concat(h))}}return n.length?n:null}(t,e.elements);return a?(n=a,r=e.settings,i=r.duration,u=n.length,o=null,function(t,e){var a=r.iterations||1/0,l=(r.alternate&&a%2==0)^r.direction>0?i:0,s=t%i,f=1+(t-s)/i;e*=r.direction,r.alternate&&f%2==0&&(e=-e);var c=!1;if(f>a)s=l,c=!0,-1===r.fill&&(s=r.direction>0?0:i);else if(e<0&&(s=i-s),s===o)return!1;o=s;for(var h=0;h<u;h++)n[h](s);return c}):null}function at(t,e){for(var n=e.querySelectorAll("svg"),r=0;r<n.length;r++)if(n[r].id===t.root&&!n[r].svgatorAnimation)return n[r].svgatorAnimation=!0,n[r];return null}function lt(t){var e=function(t){return t.shadowRoot};return document?Array.from(t.querySelectorAll(":not("+["a","area","audio","br","canvas","circle","datalist","embed","g","head","hr","iframe","img","input","link","object","path","polygon","rect","script","source","style","svg","title","track","video"].join()+")")).filter(e).map(e):[]}function st(t){var e=arguments.length>1&&void 0!==arguments[1]?arguments[1]:document,n=arguments.length>2&&void 0!==arguments[2]?arguments[2]:0,r=at(t,e);if(r)return r;if(n>=20)return null;for(var i=lt(e),u=0;u<i.length;u++){var o=st(t,i[u],n+1);if(o)return o}return null}function ft(t,e){if(H=e,!t||!t.root||!Array.isArray(t.animations))return null;var n=st(t);if(!n)return null;var r=t.animations.map((function(t){return ot(n,t)})).filter((function(t){return!!t}));return r.length?{svg:n,animations:r,animationSettings:t.animationSettings,options:t.options||void 0}:null}function ct(t){var e=arguments.length>1&&void 0!==arguments[1]?arguments[1]:null,n=arguments.length>2&&void 0!==arguments[2]?arguments[2]:Number,r=arguments.length>3&&void 0!==arguments[3]?arguments[3]:"undefined"!=typeof BigInt&&BigInt,i="0x"+(t.replace(/[^0-9a-fA-F]+/g,"")||27);return e&&r&&n.isSafeInteger&&!n.isSafeInteger(+i)?n(r(i))%e+e:+i}function ht(t,e,n){return!t||!n||e>t.length?t:t.substring(0,e)+ht(t.substring(e+1),n,n)}function vt(t){var e=arguments.length>1&&void 0!==arguments[1]?arguments[1]:27;return!t||t%e?t%e:[0,1].includes(e)?e:vt(t/e,e)}function dt(t,e,n){if(t&&t.length){var r=ct(n),i=vt(r)+5,u=ht(t,vt(r,5),i);return u=u.replace(/\x7c$/g,"==").replace(/\x2f$/g,"="),u=function(t,e,n){var r=+("0x"+t.substring(0,4));t=t.substring(4);for(var i=ct(e,r)%r+n%27,u=[],o=0;o<t.length;o+=2)if("|"!==t[o]){var a=+("0x"+t[o]+t[o+1])-i;u.push(a)}else{var l=+("0x"+t.substring(o+1,o+1+4))-i;o+=3,u.push(l)}return String.fromCharCode.apply(String,u)}(u=(u=atob(u)).replace(/[\x41-\x5A]/g,""),e,r),u=JSON.parse(u)}}var yt=[{key:"alternate",def:!1},{key:"fill",def:1},{key:"iterations",def:0},{key:"direction",def:1},{key:"speed",def:1},{key:"fps",def:100}],gt=function(){function t(e,n){var i=this,u=arguments.length>2&&void 0!==arguments[2]?arguments[2]:null;r(this,t),this._id=0,this._running=!1,this._rollingBack=!1,this._animations=e,this._settings=n,(!u||u<"2022-05-02")&&delete this._settings.speed,yt.forEach((function(t){i._settings[t.key]=i._settings[t.key]||t.def})),this.duration=n.duration,this.offset=n.offset||0,this.rollbackStartOffset=0}return u(t,[{key:"alternate",get:function(){return this._settings.alternate}},{key:"fill",get:function(){return this._settings.fill}},{key:"iterations",get:function(){return this._settings.iterations}},{key:"direction",get:function(){return this._settings.direction}},{key:"speed",get:function(){return this._settings.speed}},{key:"fps",get:function(){return this._settings.fps}},{key:"maxFiniteDuration",get:function(){return this.iterations>0?this.iterations*this.duration:this.duration}},{key:"_apply",value:function(t){for(var e=arguments.length>1&&void 0!==arguments[1]?arguments[1]:{},n=this._animations,r=n.length,i=0,u=0;u<r;u++)e[u]?i++:(e[u]=n[u](t,1),e[u]&&i++);return i}},{key:"_rollback",value:function(t){var e=this,n=1/0,r=null;this.rollbackStartOffset=t,this._rollingBack=!0,this._running=!0;this._id=window.requestAnimationFrame((function i(u){if(e._rollingBack){null==r&&(r=u);var o=Math.round(t-(u-r)*e.speed);if(o>e.duration&&n!==1/0){var a=!!e.alternate&&o/e.duration%2>1,l=o%e.duration;o=(l+=a?e.duration:0)||e.duration}var s=(e.fps?1e3/e.fps:0)*e.speed,f=Math.max(0,o);f<=n-s&&(e.offset=f,n=f,e._apply(f));var c=e.iterations>0&&-1===e.fill&&o>=e.maxFiniteDuration;(o<=0||e.offset<o||c)&&e.stop(),e._id=window.requestAnimationFrame(i)}}))}},{key:"_start",value:function(){var t=this,e=arguments.length>0&&void 0!==arguments[0]?arguments[0]:0,n=-1/0,r=null,i={};this._running=!0;var u=function u(o){null==r&&(r=o);var a=Math.round((o-r)*t.speed+e),l=(t.fps?1e3/t.fps:0)*t.speed;if(a>=n+l&&!t._rollingBack&&(t.offset=a,n=a,t._apply(a,i)===t._animations.length))return void t.pause(!0);t._id=window.requestAnimationFrame(u)};this._id=window.requestAnimationFrame(u)}},{key:"_pause",value:function(){this._id&&window.cancelAnimationFrame(this._id),this._running=!1}},{key:"play",value:function(){if(!this._running)return this._rollingBack?this._rollback(this.offset):this._start(this.offset)}},{key:"stop",value:function(){this._pause(),this.offset=0,this.rollbackStartOffset=0,this._rollingBack=!1,this._apply(0)}},{key:"reachedToEnd",value:function(){return this.iterations>0&&this.offset>=this.iterations*this.duration}},{key:"restart",value:function(){var t=arguments.length>0&&void 0!==arguments[0]&&arguments[0];this.stop(t),this.play(t)}},{key:"pause",value:function(){this._pause()}},{key:"toggle",value:function(){return this._running?this.pause():this.reachedToEnd()?this.restart():this.play()}},{key:"trigger",value:function(t,e){}},{key:"_adjustOffset",value:function(){var t=arguments.length>0&&void 0!==arguments[0]&&arguments[0],e=this.alternate?2*this.duration:this.duration;if(t){if(!this._rollingBack&&0===this.offset)return void(this.offset=e);this._rollingBack&&(this.offset,this.maxFiniteDuration)}!this._rollingBack||this.rollbackStartOffset<=this.duration?0!==this.iterations&&(this.offset=Math.min(this.offset,this.maxFiniteDuration)):(this.offset=this.rollbackStartOffset-(this.rollbackStartOffset-this.offset)%e,this.rollbackStartOffset=0)}},{key:"reverse",value:function(){var t=arguments.length>0&&void 0!==arguments[0]&&arguments[0];if(!this._running)return this._adjustOffset(t),this._rollingBack=!this._rollingBack,t&&this.play(!1),void this.trigger("reverse",this.offset);this.pause(!1,!1),this._adjustOffset(),this._rollingBack=!this._rollingBack,this.play(!1),this.trigger("reverse",this.offset)}}],[{key:"build",value:function(t,e){delete t.animationSettings,t.options=dt(t.options,t.root,"91c80d77"),t.animations.map((function(e){e.settings=dt(e.s,t.root,"91c80d77"),delete e.s,t.animationSettings||(t.animationSettings=e.settings)}));var n=t.version;if(!(t=ft(t,e)))return null;var r=t.options||{},i=new this(t.animations,t.animationSettings,n);return{el:t.svg,options:r,player:i}}},{key:"push",value:function(t){return this.build(t)}},{key:"init",value:function(){var t=this,e=window.__SVGATOR_PLAYER__&&window.__SVGATOR_PLAYER__["91c80d77"];Array.isArray(e)&&e.splice(0).forEach((function(e){return t.build(e)}))}}]),t}();function pt(t){return p(t)+""}function mt(t){var e=arguments.length>1&&void 0!==arguments[1]?arguments[1]:" ";return t&&t.length?t.map(pt).join(e):""}function bt(t){return pt(t.x)+","+pt(t.y)}function wt(t){return t?null==t.a||t.a>=1?function(t){if(!t)return"transparent";var e=function(t){return parseInt(t).toString(16).padStart(2,"0")};return function(t){for(var e=[],n="#"===t[0]?e.push("#"):0;n<t.length;n+=2){if(t[n]!==t[n+1])return t;e.push(t[n])}return e.join("")}("#"+e(t.r)+e(t.g)+e(t.b)+(null==t.a||t.a>=1?"":e(255*t.a)))}(t):"rgba("+t.r+","+t.g+","+t.b+","+t.a+")":"transparent"}function kt(t){return t?"url(#"+t+")":"none"}!function(){for(var t=0,e=["ms","moz","webkit","o"],n=0;n<e.length&&!window.requestAnimationFrame;++n)window.requestAnimationFrame=window[e[n]+"RequestAnimationFrame"],window.cancelAnimationFrame=window[e[n]+"CancelAnimationFrame"]||window[e[n]+"CancelRequestAnimationFrame"];window.requestAnimationFrame||(window.requestAnimationFrame=function(e){var n=Date.now(),r=Math.max(0,16-(n-t)),i=window.setTimeout((function(){e(n+r)}),r);return t=n+r,i},window.cancelAnimationFrame=window.clearTimeout)}();var _t={f:null,i:G,u:function(t,e){return function(n){var r=e(n);t.setAttribute("rx",pt(r.x)),t.setAttribute("ry",pt(r.y))}}},At={f:null,i:function(t,e,n){return 0===t?e:1===t?n:{width:L(t,e.width,n.width),height:L(t,e.height,n.height)}},u:function(t,e){return function(n){var r=e(n);t.setAttribute("width",pt(r.width)),t.setAttribute("height",pt(r.height))}}};Object.freeze({M:2,L:2,Z:0,H:1,V:1,C:6,Q:4,T:2,S:4,A:7});var xt={},St=null;function Ot(t){var e=function(){if(St)return St;if("object"!==("undefined"==typeof document?"undefined":n(document))||!document.createElementNS)return{};var t=document.createElementNS("http://www.w3.org/2000/svg","svg");return t&&t.style?(t.style.position="absolute",t.style.opacity="0.01",t.style.zIndex="-9999",t.style.left="-9999px",t.style.width="1px",t.style.height="1px",St={svg:t}):{}}().svg;if(!e)return function(t){return null};var r=document.createElementNS(e.namespaceURI,"path");r.setAttributeNS(null,"d",t),r.setAttributeNS(null,"fill","none"),r.setAttributeNS(null,"stroke","none"),e.appendChild(r);var i=r.getTotalLength();return function(t){var e=r.getPointAtLength(i*t);return{x:e.x,y:e.y}}}function Et(t){return xt[t]?xt[t]:xt[t]=Ot(t)}function jt(t,e,n,r){if(!t||!r)return!1;var i=["M",t.x,t.y];if(e&&n&&(i.push("C"),i.push(e.x),i.push(e.y),i.push(n.x),i.push(n.y)),e?!n:n){var u=e||n;i.push("Q"),i.push(u.x),i.push(u.y)}return e||n||i.push("L"),i.push(r.x),i.push(r.y),i.join(" ")}function Mt(t,e,n,r){var i=arguments.length>4&&void 0!==arguments[4]?arguments[4]:1,u=jt(t,e,n,r),o=Et(u);try{return o(i)}catch(t){return null}}function Pt(t,e,n){return t+(e-t)*n}function Bt(t,e,n){var r=arguments.length>3&&void 0!==arguments[3]&&arguments[3],i={x:Pt(t.x,e.x,n),y:Pt(t.y,e.y,n)};return r&&(i.a=It(t,e)),i}function It(t,e){return Math.atan2(e.y-t.y,e.x-t.x)}function Tt(t,e,n,r){var i=1-r;return i*i*t+2*i*r*e+r*r*n}function Nt(t,e,n,r){return 2*(1-r)*(e-t)+2*r*(n-e)}function Rt(t,e,n,r){var i=arguments.length>4&&void 0!==arguments[4]&&arguments[4],u=Mt(t,e,null,n,r);return u||(u={x:Tt(t.x,e.x,n.x,r),y:Tt(t.y,e.y,n.y,r)}),i&&(u.a=Ft(t,e,n,r)),u}function Ft(t,e,n,r){return Math.atan2(Nt(t.y,e.y,n.y,r),Nt(t.x,e.x,n.x,r))}function Dt(t,e,n,r,i){var u=i*i;return i*u*(r-t+3*(e-n))+3*u*(t+n-2*e)+3*i*(e-t)+t}function Ct(t,e,n,r,i){var u=1-i;return 3*(u*u*(e-t)+2*u*i*(n-e)+i*i*(r-n))}function Lt(t,e,n,r,i){var u=arguments.length>5&&void 0!==arguments[5]&&arguments[5],o=Mt(t,e,n,r,i);return o||(o={x:Dt(t.x,e.x,n.x,r.x,i),y:Dt(t.y,e.y,n.y,r.y,i)}),u&&(o.a=qt(t,e,n,r,i)),o}function qt(t,e,n,r,i){return Math.atan2(Ct(t.y,e.y,n.y,r.y,i),Ct(t.x,e.x,n.x,r.x,i))}function Vt(t,e,n){var r=arguments.length>3&&void 0!==arguments[3]&&arguments[3];if(zt(e)){if(Yt(n))return Rt(e,n.start,n,t,r)}else if(zt(n)){if(Ut(e))return Rt(e,e.end,n,t,r)}else{if(Ut(e))return Yt(n)?Lt(e,e.end,n.start,n,t,r):Rt(e,e.end,n,t,r);if(Yt(n))return Rt(e,n.start,n,t,r)}return Bt(e,n,t,r)}function Gt(t,e,n){var r=Vt(t,e,n,!0);return r.a=k(function(t){return arguments.length>1&&void 0!==arguments[1]&&arguments[1]?t+Math.PI:t}(r.a)),r}function zt(t){return!t.type||"corner"===t.type}function Yt(t){return null!=t.start&&!zt(t)}function Ut(t){return null!=t.end&&!zt(t)}var Wt=new R;var $t={f:function(t){return t?t.join(" "):""},i:function(t,e,r){if(0===t)return e;if(1===t)return r;var i=e.length;if(i!==r.length)return D(t,e,r);for(var u,o=new Array(i),a=0;a<i;a++){if((u=n(e[a]))!==n(r[a]))return D(t,e,r);if("number"===u)o[a]=C(t,e[a],r[a]);else{if(e[a]!==r[a])return D(t,e,r);o[a]=e[a]}}return o}},Ht={f:null,i:U,u:function(t,e){return function(n){var r=e(n);t.setAttribute("x1",pt(r[0])),t.setAttribute("y1",pt(r[1])),t.setAttribute("x2",pt(r[2])),t.setAttribute("y2",pt(r[3]))}}},Qt={f:pt,i:C},Xt={f:pt,i:q},Jt={f:function(t){var e=arguments.length>1&&void 0!==arguments[1]?arguments[1]:" ";return t&&t.length>0&&(t=t.map((function(t){return p(t,4)}))),mt(t,e)},i:function(t,e,n){var r,i,u,o=e.length,a=n.length;if(o!==a)if(0===o)e=W(o=a,0);else if(0===a)a=o,n=W(o,0);else{var l=(u=(r=o)*(i=a)/function(t,e){for(var n;e;)n=e,e=t%e,t=n;return t||1}(r,i))<0?-u:u;e=$(e,Math.floor(l/o)),n=$(n,Math.floor(l/a)),o=a=l}for(var s=[],f=0;f<o;f++)s.push(p(L(t,e[f],n[f])));return s}};function Kt(t,e,n){return t.map((function(t){return function(t,e,n){var r=t.v;if(!r||"g"!==r.t||r.s||!r.v||!r.r)return t;var i=n.getElementById(r.r),u=i&&i.querySelectorAll("stop")||[];return r.s=r.v.map((function(t,e){var n=u[e]&&u[e].getAttribute("offset");return{c:t,o:n=p(parseInt(n)/100)}})),delete r.v,t}(t,0,n)}))}var Zt={gt:"gradientTransform",c:{x:"cx",y:"cy"},rd:"r",f:{x:"x1",y:"y1"},to:{x:"x2",y:"y2"}};function te(t,e,r,i,u,o,a,l){return Kt(t,0,l),e=function(t,e,n){for(var r,i,u,o=t.length-1,a={},l=0;l<=o;l++)(r=t[l]).e&&(r.e=e(r.e)),r.v&&"g"===(i=r.v).t&&i.r&&(u=n.getElementById(i.r))&&(a[i.r]={e:u,s:u.querySelectorAll("stop")});return a}(t,i,l),function(i){var u=r(i,t,ee);if(!u)return"none";if("c"===u.t)return wt(u.v);if("g"===u.t){if(!e[u.r])return kt(u.r);var o=e[u.r];return function(t,e){for(var n=t.s,r=n.length;r<e.length;r++){var i=n[n.length-1].cloneNode();i.id=ie(i.id),t.e.appendChild(i),n=t.s=t.e.querySelectorAll("stop")}for(var u=0,o=n.length,a=e.length-1;u<o;u++)n[u].setAttribute("stop-color",wt(e[Math.min(u,a)].c)),n[u].setAttribute("offset",e[Math.min(u,a)].o)}(o,u.s),Object.keys(Zt).forEach((function(t){if(void 0!==u[t])if("object"!==n(Zt[t])){var e,r="gt"===t?(e=u[t],Array.isArray(e)?"matrix("+e.join(" ")+")":""):u[t],i=Zt[t];o.e.setAttribute(i,r)}else Object.keys(Zt[t]).forEach((function(e){if(void 0!==u[t][e]){var n=u[t][e],r=Zt[t][e];o.e.setAttribute(r,n)}}))})),kt(u.r)}return"none"}}function ee(t,n,r){if(0===t)return n;if(1===t)return r;if(n&&r){var i=n.t;if(i===r.t)switch(n.t){case"c":return{t:i,v:Y(t,n.v,r.v)};case"g":if(n.r===r.r){var u={t:i,s:ne(t,n.s,r.s),r:n.r};return n.gt&&r.gt&&(u.gt=U(t,n.gt,r.gt)),n.c?(u.c=V(t,n.c,r.c),u.rd=L(t,n.rd,r.rd)):n.f&&(u.f=V(t,n.f,r.f),u.to=V(t,n.to,r.to)),u}}if("c"===n.t&&"g"===r.t||"c"===r.t&&"g"===n.t){var o="c"===n.t?n:r,a="g"===n.t?e({},n):e({},r),l=a.s.map((function(t){return{c:o.v,o:t.o}}));return a.s="c"===n.t?ne(t,l,a.s):ne(t,a.s,l),a}}return D(t,n,r)}function ne(t,e,n){if(e.length===n.length)return e.map((function(e,r){return re(t,e,n[r])}));for(var r=Math.max(e.length,n.length),i=[],u=0;u<r;u++){var o=re(t,e[Math.min(u,e.length-1)],n[Math.min(u,n.length-1)]);i.push(o)}return i}function re(t,e,n){return{o:q(t,e.o,n.o||0),c:Y(t,e.c,n.c||{})}}function ie(t){return t.replace(/-fill-([0-9]+)$/,(function(t,e){return"-fill-"+(+e+1)}))}function ue(t,e,n){return 0===t?e:1===t?n:{blur:G(t,e.blur,n.blur),offset:V(t,e.offset,n.offset),color:Y(t,e.color,n.color)}}var oe={blur:G,brightness:L,contrast:L,"drop-shadow":ue,"inner-shadow":ue,grayscale:L,"hue-rotate":C,invert:L,opacity:L,saturate:L,sepia:L};function ae(t,e,n){if(0===t)return e;if(1===t)return n;var r=e.length;if(r!==n.length)return D(t,e,n);for(var i,u=[],o=0;o<r;o++){if(e[o].type!==n[o].type)return e;if(!(i=oe[e[o].type]))return D(t,e,n);u.push({type:e.type,value:i(t,e[o].value,n[o].value)})}return u}var le={blur:function(t){return t?function(e){t.setAttribute("stdDeviation",bt(e))}:null},brightness:function(t,e,n){return(t=fe(n,e))?function(e){e=pt(e),t.map((function(t){return t.setAttribute("slope",e)}))}:null},contrast:function(t,e,n){return(t=fe(n,e))?function(e){var n=pt((1-e)/2);e=pt(e),t.map((function(t){t.setAttribute("slope",e),t.setAttribute("intercept",n)}))}:null},"drop-shadow":function(t,e,n){var r=n.getElementById(e+"-blur");if(!r)return null;var i=n.getElementById(e+"-offset");if(!i)return null;var u=n.getElementById(e+"-flood");return u?function(t){r.setAttribute("stdDeviation",bt(t.blur)),i.setAttribute("dx",pt(t.offset.x)),i.setAttribute("dy",pt(t.offset.y)),u.setAttribute("flood-color",wt(t.color))}:null},"inner-shadow":function(t,e,n){var r=n.getElementById(e+"-blur");if(!r)return null;var i=n.getElementById(e+"-offset");if(!i)return null;var u=n.getElementById(e+"-color-matrix");return u?function(t){r.setAttribute("stdDeviation",bt(t.blur)),i.setAttribute("dx",pt(t.offset.x)),i.setAttribute("dy",pt(t.offset.y));var e=[0,0,0,0,t.color.r/255,0,0,0,0,t.color.g/255,0,0,0,0,t.color.b/255,0,0,0,t.color.a,0];u.setAttribute("values",mt(e))}:null},grayscale:function(t){return t?function(e){t.setAttribute("values",mt(function(t){return[.2126+.7874*(t=1-t),.7152-.7152*t,.0722-.0722*t,0,0,.2126-.2126*t,.7152+.2848*t,.0722-.0722*t,0,0,.2126-.2126*t,.7152-.7152*t,.0722+.9278*t,0,0,0,0,0,1,0]}(e)))}:null},"hue-rotate":function(t){return t?function(e){return t.setAttribute("values",pt(e))}:null},invert:function(t,e,n){return(t=fe(n,e))?function(e){e=pt(e)+" "+pt(1-e),t.map((function(t){return t.setAttribute("tableValues",e)}))}:null},opacity:function(t,e,n){return(t=n.getElementById(e+"-A"))?function(e){return t.setAttribute("tableValues","0 "+pt(e))}:null},saturate:function(t){return t?function(e){return t.setAttribute("values",pt(e))}:null},sepia:function(t){return t?function(e){return t.setAttribute("values",mt(function(t){return[.393+.607*(t=1-t),.769-.769*t,.189-.189*t,0,0,.349-.349*t,.686+.314*t,.168-.168*t,0,0,.272-.272*t,.534-.534*t,.131+.869*t,0,0,0,0,0,1,0]}(e)))}:null}};var se=["R","G","B"];function fe(t,e){var n=se.map((function(n){return t.getElementById(e+"-"+n)||null}));return-1!==n.indexOf(null)?null:n}var ce={fill:te,"fill-opacity":Xt,stroke:te,"stroke-opacity":Xt,"stroke-width":Qt,"stroke-dashoffset":{f:pt,i:C},"stroke-dasharray":Jt,opacity:Xt,transform:function(t,e,r,i){if(!(t=function(t,e){if(!t||"object"!==n(t))return null;var r=!1;for(var i in t)t.hasOwnProperty(i)&&(t[i]&&t[i].length?(t[i].forEach((function(t){t.e&&(t.e=e(t.e))})),r=!0):delete t[i]);return r?t:null}(t,i)))return null;var u=function(n,i,u){var o=arguments.length>3&&void 0!==arguments[3]?arguments[3]:null;return t[n]?r(i,t[n],u):e&&e[n]?e[n]:o};return e&&e.a&&t.o?function(e){var n=r(e,t.o,Gt);return Wt.recomposeSelf(n,u("r",e,C,0)+n.a,u("k",e,V),u("s",e,V),u("t",e,V)).toString()}:function(t){return Wt.recomposeSelf(u("o",t,Vt,null),u("r",t,C,0),u("k",t,V),u("s",t,V),u("t",t,V)).toString()}},"#filter":function(t,e,n,r,i,u,o,a){if(!e.items||!t||!t.length)return null;var l=function(t,e){var n=(t=t.map((function(t){return t&&le[t[0]]?(e.getElementById(t[1]),le[t[0]](e.getElementById(t[1]),t[1],e)):null}))).length;return function(e){for(var r=0;r<n;r++)t[r]&&t[r](e[r].value)}}(e.items,a);return l?(t=function(t,e){return t.map((function(t){return t.e=e(t.e),t}))}(t,r),function(e){l(n(e,t,ae))}):null},"#line":Ht,points:{f:mt,i:U},d:$t,r:Qt,"#size":At,"#radius":_t,_:function(t,e){if(Array.isArray(t))for(var n=0;n<t.length;n++)this[t[n]]=e;else this[t]=e}},he={currentTime:"offset",duration:"duration",hasEnded:function(){return this.reachedToEnd()},isAlternate:"alternate",isPlaying:"_running",isRollingBack:"_rollingBack",state:function(t,e){return e.isPlaying?e.isRollingBack?"rollback":"playing":e.hasEnded?"ended":"paused"},totalTime:"maxFiniteDuration",iterations:"iterations",direction:"direction",fill:"fill",isReversed:function(t,e){return-1===e.direction},isBackwards:function(t,e){return-1===e.fill},isInfinite:function(t,e){return 0===e.iterations},speed:"speed",fps:"fps"},ve={destruct:"destruct",pause:"pause",play:function(t,e){return de(t,e.hasEnded?"restart":"play",e)},restart:"restart",reverse:function(t,e){return de(t,"reverse",e,[!0])},seek:"seek",seekBy:"seekBy",seekTo:"seekTo",stop:"stop",toggle:"toggle",togglePlay:"toggle",set:"set"};function de(t,e,n){var r=arguments.length>3&&void 0!==arguments[3]?arguments[3]:[];return function(){var i,u=Array.prototype.slice.call(arguments);return u.unshift.apply(u,v(r)),(i=t[e]).call.apply(i,[t].concat(v(u))),n}}var ye=function t(e){r(this,t);var n={},i=["on","off"],u={get:function(t,e,r){return he[e]?"function"==typeof he[e]?he[e].call(t,t,r):t[he[e]]:ve[e]?"function"==typeof ve[e]?ve[e].call(t,t,r):de(t,ve[e],r):-1!==i.indexOf(e)?n[e]:"ready"===e?function(t){return t&&t.call(r,r),r}:void 0},set:function(t,e,r){return-1!==i.indexOf(e)&&(n[e]=r)},ownKeys:function(t){return Object.keys(he)},has:function(t,e){return void 0!==he[e]}};if("function"==typeof Proxy)return new Proxy(e,u);var o=Object.keys(he).concat(Object.keys(ve)).concat(i),a={};return o.forEach((function(t){var n={enumerable:!1,configurable:!1,get:function(){return u.get(e,t,a)}};-1!==i.indexOf(t)&&(n.set=function(n){return u.set(e,t,n)}),Object.defineProperty(a,t,n)})),a};function ge(t){t||(t=this);var e={};this.on=function(t,n){var r=arguments.length>2&&void 0!==arguments[2]&&arguments[2];return"function"==typeof n&&(t.split(/[, ]+/g).forEach((function(t){return e[t]=e[t]||[],r?e[t].unshift(n):e[t].push(n)})),!0)},this.off=function(t,n){for(var r in e)if(e.hasOwnProperty(r)&&r.substr(0,t.length)===t)if(n)for(var i=0;i<e[r].length;i++)e[r][i]===n&&(e[r][i]=null);else e[r]=null},this.trigger=function(){var n,r=Array.prototype.slice.call(arguments),i=r[0],u=r.slice(1);t:for(var o in e)if(e.hasOwnProperty(o)&&e[o]&&(o===i||o.substr(0,i.length+1)===i+"."))for(var a=0;a<(e[o]||[]).length;a++)if(e[o][a]&&!1===(n=e[o][a].apply(t,u)))break t;return n}}var pe=function(){function t(e,n,i){r(this,t);var u=function(t){var e,n,r,i=t&&1===(null===(e=t.ownerDocument)||void 0===e||null===(n=e.childNodes)||void 0===n?void 0:n.length)&&window.parent!==window,u={el:t,window:window};if(!i)return u;try{r=window.parent.document}catch(t){return u}return u.window=window.parent,u.el=Array.from(r.querySelectorAll("iframe,object")).filter((function(t){return t.contentWindow===window}))[0]||u.el,u}(e);n=Math.max(1,n||1),n=Math.min(n,100),this.el=u.el,this._handlers=[],this.onThresholdChange=i&&i.call?i:function(){},this.thresholdPercent=n||1,this.currentVisibility=null,this.visibilityCalculator=function(t,e){var n=arguments.length>2&&void 0!==arguments[2]?arguments[2]:n,r=!1,i=null,u=function(){for(var u=0,o=n.innerHeight,a=0,l=n.innerWidth,s=t.parentNode;s instanceof Element;){var f=n.getComputedStyle(s);if("visible"!==f.overflowY||"visible"!==f.overflowX){var c=s.getBoundingClientRect();"visible"!==f.overflowY&&(u=Math.max(u,c.top),o=Math.min(o,c.bottom)),"visible"!==f.overflowX&&(a=Math.max(a,c.left),l=Math.min(l,c.right))}if(s===s.parentNode)break;s=s.parentNode}r=!1;var h=t.getBoundingClientRect(),v=Math.min(h.height,Math.max(0,u-h.top)),d=Math.min(h.height,Math.max(0,h.bottom-o)),y=Math.min(h.width,Math.max(0,a-h.left)),g=Math.min(h.width,Math.max(0,h.right-l)),p=(h.height-v-d)/h.height,m=(h.width-y-g)/h.width,b=Math.round(p*m*100);null!==i&&i===b||(i=b,e(b))};return function(t){r&&clearTimeout(r),r=setTimeout((function(){return u()}),100)}}(this.el,this.onVisibilityUpdate.bind(this),u.window),this.bindScrollWatchers(),this.visibilityCalculator()}return u(t,[{key:"bindScrollWatchers",value:function(){for(var t=this.el.parentNode;t&&(this._handlers.push({element:t,event:"scroll",handler:this.visibilityCalculator}),t.addEventListener("scroll",this.visibilityCalculator),t!==t.parentNode&&t!==document);)t=t.parentNode}},{key:"onVisibilityUpdate",value:function(t){var e=this.currentVisibility>=this.thresholdPercent,n=t>=this.thresholdPercent;if(null===this.currentVisibility||e!==n)return this.currentVisibility=t,void this.onThresholdChange(n);this.currentVisibility=t}},{key:"destruct",value:function(){this._handlers.forEach((function(t){t.element.removeEventListener(t.event,t.handler)}))}}]),t}(),me=function(){function t(){r(this,t)}return u(t,null,[{key:"adjustLink",value:function(t){var e,n,r=t&&1===(null===(e=t.ownerDocument)||void 0===e||null===(n=e.childNodes)||void 0===n?void 0:n.length)&&window.parent!==window,i=null==t?void 0:t.firstElementChild;r&&i&&"a"===i.tagName&&!i.getAttribute("target")&&i.setAttributeNS(null,"target","_parent")}},{key:"autoPlay",value:function(t,e,n){var r=arguments.length>3&&void 0!==arguments[3]?arguments[3]:[];if("click"===n.start){var i=function(){switch(n.click){case"freeze":return!t._running&&t.reachedToEnd()?t.restart():t.toggle();case"restart":return t.offset>0?t.restart():t.play();case"reverse":return t._running?t.reverse():t.reachedToEnd()?1===t.fill?t.reverse(!0):t.restart():t.play();case"none":default:if(t._running)return;return t.reachedToEnd()?t.restart():t.play()}};return r.push({element:e,event:"click",handler:i}),void e.addEventListener("click",i)}if("hover"===n.start){var u=function(){return t.reachedToEnd()?t.restart():t._rollingBack?t.reverse():t.play()};r.push({element:e,event:"mouseenter",handler:u}),e.addEventListener("mouseenter",u);var o=function(){switch(n.hover){case"freeze":return t.pause();case"reset":return t.stop();case"reverse":if(t.reverse(),t._running)return;return t.play();case"none":default:return}};return r.push({element:e,event:"mouseleave",handler:o}),void e.addEventListener("mouseleave",o)}if("scroll"!==n.start)"programmatic"!==n.start&&t.play();else{var a=new pe(e,n.scroll||25,(function(e){e?t.reachedToEnd()?t.restart():t.play():t.pause()}));r.push({callback:function(){return a.destruct()}})}}}]),t}(),be=!0,we=["iterations","speed","fps","direction","fill","alternate"],ke=function(t){!function(t,e){if("function"!=typeof e&&null!==e)throw new TypeError("Super expression must either be null or a function");t.prototype=Object.create(e&&e.prototype,{constructor:{value:t,writable:!0,configurable:!0}}),e&&l(t,e)}(o,t);var e,n,i=(e=o,n=s(),function(){var t,r=a(e);if(n){var i=a(this).constructor;t=Reflect.construct(r,arguments,i)}else t=r.apply(this,arguments);return c(this,t)});function o(t,e){var n,u=arguments.length>2&&void 0!==arguments[2]?arguments[2]:null;return r(this,o),(n=i.call(this,t,e,u))._handlers=[],n}return u(o,[{key:"play",value:function(){var t=arguments.length>0&&void 0!==arguments[0]?arguments[0]:be,e=h(a(o.prototype),"play",this).call(this);return t===be&&this.trigger("play",this.offset),e}},{key:"pause",value:function(){var t=arguments.length>0&&void 0!==arguments[0]&&arguments[0],e=arguments.length>1&&void 0!==arguments[1]?arguments[1]:be,n=h(a(o.prototype),"pause",this).call(this);return e===be&&this.trigger(t?"end":"pause",this.offset),n}},{key:"restart",value:function(){var t=h(a(o.prototype),"restart",this).call(this,!1);return this.trigger("restart",this.offset),t}},{key:"stop",value:function(){var t=arguments.length>0&&void 0!==arguments[0]?arguments[0]:be,e=h(a(o.prototype),"stop",this).call(this);return t===be&&this.trigger("stop",this.offset),e}},{key:"_apply",value:function(t){var e=this,n=arguments.length>2&&void 0!==arguments[2]?arguments[2]:be,r=h(a(o.prototype),"_apply",this).call(this,t);if(n===be){var i=function(){return e.trigger("keyframe",t)};window.requestAnimationFrame(i)}return r}},{key:"seekTo",value:function(t){var e,n,r,i=this._running;i&&this.pause(!1,!1),this.offset=this.iterations>0?(e=t,n=0,r=this.maxFiniteDuration,e<n?n:e>r?r:e):Math.max(t,0),this._apply(this.offset),i&&this.play(!1)}},{key:"seek",value:function(t){return this.seekTo(Math.round(t/100*this.maxFiniteDuration))}},{key:"seekBy",value:function(t){return this.seekTo(this.offset+t)}},{key:"set",value:function(t,e){if(we.includes(t)){var n=this._running;n&&this.pause(!1,!1),this._settings[t]=e,n?this.play(!1):this._apply(this.offset,{},!1)}}},{key:"destruct",value:function(){var t=this;this.stop(),this._handlers.forEach((function(t){t.element?t.element.removeEventListener(t.event,t.handler):t.callback&&t.callback.call&&t.callback.call()}));var e=function(){},n=Object.getOwnPropertyNames(Object.getPrototypeOf(this));n.push.apply(n,v(Object.getOwnPropertyNames(this))),n.forEach((function(n){"function"==typeof t[n]?t[n]=e:delete t[n]}))}}],[{key:"build",value:function(t){var e=h(a(o),"build",this).call(this,t,ce);if(!e)return null;var n=e.el,r=e.options,i=e.player,u=new ye(i),l=new ge(u);u.on=l.on,u.off=l.off,i.trigger=l.trigger;var s=n.svgatorPlayer&&n.svgatorPlayer.ready&&n.svgatorPlayer.ready.call&&n.svgatorPlayer.ready.call();n.svgatorPlayer=u,me.adjustLink(n),me.autoPlay(i,n,r,i._handlers),function(t,e,n){var r;"function"==typeof Event?r=new Event("ready"):(r=document.createEvent("Event")).initEvent("ready",!0,!0);if(t.dispatchEvent(r),!n||!n.length)return;n.forEach((function(t){return e.ready(t)}))}(n,n.svgatorPlayer,s)}}]),o}(gt);return ke.init(),ke}));
(function(s,i,o,w,d,a,b){(a=Array.from(d.querySelectorAll('svg#' + i.root)).filter(n=> !n.svgatorPlayer)[0]||{}).svgatorPlayer={ready:(function(a){b=[];return function(c){return c?(b.push(c),a.svgatorPlayer):b}})(a)};w[o]=w[o]||{};w[o][s]=w[o][s]||[];w[o][s].push(i);})('91c80d77',{"root":"eWjCoBtlX2g1","version":"2024-09-05","animations":[{"elements":{"eWjCoBtlX2g3":{"transform":{"data":{"t":{"x":-190.100006,"y":-95.95}},"keys":{"o":[{"t":2470,"v":{"x":-138.563296,"y":345.940528,"type":"corner"}},{"t":2670,"v":{"x":173.44347,"y":302.478486,"type":"corner"},"e":[0,0,0.58,1]},{"t":2970,"v":{"x":641.45362,"y":288.387842,"type":"corner"}},{"t":3020,"v":{"x":656.671992,"y":288.387842,"type":"corner"}},{"t":3070,"v":{"x":641.45362,"y":288.387842,"type":"corner"}}],"k":[{"t":2470,"v":{"x":0,"y":-6}},{"t":2550,"v":{"x":0,"y":-6}},{"t":2620,"v":{"x":0,"y":-2}},{"t":2870,"v":{"x":0,"y":0}}],"s":[{"t":2470,"v":{"x":0.84,"y":0.74}},{"t":2670,"v":{"x":0.95,"y":0.85},"e":[0,0,0.533029,0.218792]},{"t":2970,"v":{"x":1.3,"y":1.17},"e":[0.341385,0.30584,0.676885,0.638508]},{"t":3020,"v":{"x":1.28,"y":1.43}},{"t":3070,"v":{"x":1.36,"y":1.36}}]}},"opacity":[{"t":2470,"v":0.47},{"t":2770,"v":1}]},"eWjCoBtlX2g35":{"transform":{"data":{"o":{"x":167.184312,"y":299.791011,"type":"corner"},"s":{"x":1.36,"y":1.36},"t":{"x":-101.92202,"y":-103.094779}},"keys":{"r":[{"t":1570,"v":0},{"t":1860,"v":19.69},{"t":3250,"v":19.69},{"t":3490,"v":-5},{"t":3550,"v":-3.52},{"t":3700,"v":0}]}},"opacity":[{"t":1860,"v":1},{"t":1870,"v":0},{"t":3240,"v":0},{"t":3250,"v":1}]},"eWjCoBtlX2g52":{"transform":{"data":{"o":{"x":162.005096,"y":291.882823,"type":"corner"},"s":{"x":1.36,"y":1.36},"t":{"x":-101.24925,"y":-98.053501}},"keys":{"r":[{"t":1570,"v":-19},{"t":1910,"v":3.14,"e":[0.42,0,0.58,1]},{"t":2070,"v":0,"e":[0,0,0.58,1]}]}},"opacity":[{"t":1860,"v":0},{"t":1870,"v":1},{"t":2060,"v":1},{"t":2070,"v":0}]},"eWjCoBtlX2g73":{"opacity":[{"t":2060,"v":0},{"t":2070,"v":1},{"t":3240,"v":1},{"t":3250,"v":0}]},"eWjCoBtlX2g74":{"transform":{"data":{"s":{"x":1.36,"y":1.36},"t":{"x":-101.190387,"y":-212.218858}},"keys":{"o":[{"t":2070,"v":{"x":162.200475,"y":136.156138,"type":"corner"}},{"t":2570,"v":{"x":162.200475,"y":302.478485,"type":"corner"}},{"t":2870,"v":{"x":162.200475,"y":294.711553,"type":"corner"}},{"t":3250,"v":{"x":162.200475,"y":136.16,"type":"corner"}}]}}},"eWjCoBtlX2g107":{"transform":{"data":{"o":{"x":173.276797,"y":500.6337,"type":"corner"},"t":{"x":-173.276796,"y":-189.6337}},"keys":{"s":[{"t":2070,"v":{"x":1,"y":1}},{"t":2170,"v":{"x":1,"y":1}},{"t":2270,"v":{"x":1,"y":1.164792}},{"t":3070,"v":{"x":1,"y":1.14065}},{"t":3180,"v":{"x":1,"y":1.137412}},{"t":3190,"v":{"x":1,"y":1.035564}},{"t":3200,"v":{"x":1,"y":1.100586}},{"t":3210,"v":{"x":1,"y":1.058007}}]}}},"eWjCoBtlX2g108":{"opacity":[{"t":2060,"v":0},{"t":2070,"v":1},{"t":3240,"v":1},{"t":3250,"v":0}]},"eWjCoBtlX2g109":{"transform":{"data":{"s":{"x":1.36,"y":1.36},"t":{"x":-101.190387,"y":-212.218858}},"keys":{"o":[{"t":2070,"v":{"x":162.200471,"y":447.678809,"type":"corner"}},{"t":2570,"v":{"x":162.200469,"y":295.568229,"type":"corner"}},{"t":2870,"v":{"x":162.200476,"y":299.275636,"type":"corner"}},{"t":3250,"v":{"x":162.200469,"y":447.68,"type":"corner"}}]}}},"eWjCoBtlX2g142":{"transform":{"data":{"o":{"x":45,"y":30,"type":"corner"},"t":{"x":-45,"y":-30}},"keys":{"s":[{"t":2120,"v":{"x":1,"y":1}},{"t":2170,"v":{"x":1,"y":1.112948}},{"t":3070,"v":{"x":1,"y":0.984975}},{"t":3130,"v":{"x":1,"y":1.037562}},{"t":3180,"v":{"x":1,"y":0.969674}},{"t":3190,"v":{"x":1,"y":0.984938}},{"t":3210,"v":{"x":1,"y":0.981943}}]}}}},"s":"MDWA1ZGNhNzFiMJ2M0YzFiMGMzHYjhiZWJkNzEY4OTgyODY3ZjNdmN2I3MUhiMV2I4YzFiNGIyJYzNFYjhiZWJJkNzE4OVI4MDHdiNzFiOGMzYYjRBYzFiMGMzNYjhiZUpiZGMAyNzE4OTgwN2RI3MWI1SGI4YBmJVYmI3MTg5YODA3YjcxYjBNiYmMzYjRjMWWJkUWIwYzNGYJjQ3MTg5YjVHSYjBiYmMyYjQJ3YjcxYzJiZmBI0YjRiMzcxOMDk4MDdiNzFiMNWJmTWMyNzEX4OTgwN2Y3ZmJNj"}],"options":"MDFAxMDgyMjlVNS2E3YjY4Tzc5JSzdiMjk0MTIM5NzM3NjY4NmHIyOTg0"},'__SVGATOR_PLAYER__',window,document)
]]></script>
</svg>
