<?xml version="1.0" encoding="UTF-8"?>
<svg id="Layer_1" data-name="Layer 1" xmlns="http://www.w3.org/2000/svg" version="1.1" viewBox="0 0 641.3 206.2">
  <defs>
    <style>
      .yellow {
        fill: #feda29;
      }

      .yellow, .cls-2, .blue, .white {
        stroke-width: 0px;
      }

      .cls-2 {
        fill: #000;
      }

      .blue {
        fill: #2167db;
      }

      .white {
        fill: #fff;
      }

      .cls-5 {
        display: none;
      }
    </style>
  </defs>
  <g class="cls-5">
    <path class="white" d="M2435,2274.1l19.9,57.9c-9.3,1.6-20.3,4.3-32,8.8-6.5,2.5-12.5,5.1-18.1,7.8l-21.2-61.9c19.8-6.9,38.4-10.6,51.4-12.5Z"/>
    <path class="white" d="M2368.6,2292.3l21.9,63.7c-18.3,10.5-32.1,22.2-44.7,33.9l-23.9-69.7c14.3-12,30.6-21.1,46.7-27.9Z"/>
    <path class="white" d="M2235.8,2355.8l31,90.2c-13.5,2.3-26.8-.2-37.5-7.6-14.1-9.7-20.6-25.9-17.6-43.1,1.4-7.7,6.7-29.2,24.1-39.5Z"/>
    <path class="white" d="M2309.2,2332.4l23.9,69.7c-13.5,12.9-26.4,25.1-43.8,35.5-2.4,1.4-4.8,2.7-7.3,3.8l-31.1-90.7c.8-.1,1.6-.2,2.5-.3,4.2-.4,8.3,1.5,12.7,3.4,7.2,3.2,18.2,8,28.5-2.4l.6-.6.5-.7c4-6.4,8.6-12.2,13.5-17.6Z"/>
  </g>
  <g>
    <g>
      <path class="yellow" d="M103.6,67.3c-.5,1.7-2,2.8-3.7,2.8s-.7,0-1-.1l-23.1-6.4-13.2,19.6c-.7,1.1-1.9,1.7-3.2,1.7s-1.5-.2-2.1-.7c-1.7-1.2-2.2-3.5-1-5.3l11.8-17.5-20.3-5.7c-2-.6-3.2-2.7-2.6-4.7.6-2,2.7-3.2,4.7-2.7l22.8,6.3,13.2-19.6c1.2-1.7,3.5-2.2,5.3-1,1.7,1.2,2.2,3.5,1,5.3l-11.8,17.5,20.6,5.8c2,.6,3.2,2.7,2.7,4.7Z"/>
      <path class="yellow" d="M195.2,111.5c-9.7,46.9-36.2,61.1-47.1,65-29.4,10.6-61.8,2-62.1,1.9l-1-.3c-.8-.2-1.6,0-2.2.6l-.7.7c-.2.2-22.9,24.4-40.9,17.9-16.8-6.1-15.6-23.2-13-40.2v-.8c.2-.5,0-1-.2-1.4l-.5-.7c-.1-.2-11.9-15.5-17.3-37.5-7.2-29.1-.3-55.7,20.3-79C60.9,3.7,106.7,2.1,139.5,15.1l-12.8,5.5c-1.9.8-2.8,3.1-2,5,.8,1.9,3.1,2.8,5,2l34.1-14.8-8.8,23.4c-.7,2,.2,4.2,2.2,4.9.4.2.9.2,1.4.2,1.5,0,3-.9,3.6-2.5l3.1-8.3c6.7,6,11.2,12.6,13.4,19.3-5.5.6-15.5,2.1-26.8,5.6-14.9,4.6-27.4,11.4-37.1,19.9-.6.4-1,.9-1.5,1.4-4.3,4-8,8.3-11,13-.8.8-1.5.8-4.9-.7-2.6-1.1-5.8-2.6-9.8-2.2-13.8,1.2-23.8,11.5-26.7,27.6-2,11.2,2.3,21.7,11.5,28.1,10.4,7.2,24.5,7.2,36.8-.1,9.4-5.6,16.3-12.2,23-18.7,10-9.6,20.3-19.5,39.4-26.8,9.7-3.7,18.6-4.6,22.8-4.8,1,3.7,2.5,11,.8,19.4Z"/>
    </g>
    <g>
      <path class="white" d="M174.7,58.1l9.5,27.5c-4.4.8-9.7,2.1-15.2,4.2-3.1,1.2-5.9,2.4-8.6,3.7l-10.1-29.5c9.4-3.3,18.3-5,24.5-6Z"/>
      <path class="white" d="M143.2,66.8l10.4,30.3c-8.7,5-15.3,10.6-21.3,16.2l-11.4-33.2c6.8-5.7,14.6-10.1,22.2-13.3Z"/>
      <path class="white" d="M79.9,97l14.7,42.9c-6.4,1.1-12.8,0-17.9-3.6-6.7-4.6-9.8-12.3-8.4-20.5.7-3.7,3.2-13.9,11.5-18.8Z"/>
      <path class="white" d="M114.9,85.9l11.4,33.2c-6.4,6.2-12.6,12-20.8,16.9-1.1.7-2.3,1.3-3.5,1.8l-14.8-43.2c.4,0,.8,0,1.2-.1,2-.2,4,.7,6,1.6,3.5,1.5,8.7,3.8,13.6-1.1l.3-.3.2-.3c1.9-3,4.1-5.8,6.4-8.4Z"/>
    </g>
    <path class="blue" d="M101,62.6l-20.6-5.8,11.8-17.5c1.2-1.7.7-4.1-1-5.3-1.7-1.2-4.1-.7-5.3,1l-13.2,19.6-22.8-6.3c-2-.6-4.1.6-4.7,2.7-.6,2,.6,4.1,2.6,4.7l20.3,5.7-11.8,17.5c-1.2,1.7-.7,4.1,1,5.3.7.5,1.4.7,2.1.7,1.2,0,2.4-.6,3.2-1.7l13.2-19.6,23.1,6.4c.3,0,.7.1,1,.1,1.7,0,3.2-1.1,3.7-2.8.6-2-.6-4.1-2.7-4.7ZM101,62.6l-20.6-5.8,11.8-17.5c1.2-1.7.7-4.1-1-5.3-1.7-1.2-4.1-.7-5.3,1l-13.2,19.6-22.8-6.3c-2-.6-4.1.6-4.7,2.7-.6,2,.6,4.1,2.6,4.7l20.3,5.7-11.8,17.5c-1.2,1.7-.7,4.1,1,5.3.7.5,1.4.7,2.1.7,1.2,0,2.4-.6,3.2-1.7l13.2-19.6,23.1,6.4c.3,0,.7.1,1,.1,1.7,0,3.2-1.1,3.7-2.8.6-2-.6-4.1-2.7-4.7ZM101,62.6l-20.6-5.8,11.8-17.5c1.2-1.7.7-4.1-1-5.3-1.7-1.2-4.1-.7-5.3,1l-13.2,19.6-22.8-6.3c-2-.6-4.1.6-4.7,2.7-.6,2,.6,4.1,2.6,4.7l20.3,5.7-11.8,17.5c-1.2,1.7-.7,4.1,1,5.3.7.5,1.4.7,2.1.7,1.2,0,2.4-.6,3.2-1.7l13.2-19.6,23.1,6.4c.3,0,.7.1,1,.1,1.7,0,3.2-1.1,3.7-2.8.6-2-.6-4.1-2.7-4.7ZM101,62.6l-20.6-5.8,11.8-17.5c1.2-1.7.7-4.1-1-5.3-1.7-1.2-4.1-.7-5.3,1l-13.2,19.6-22.8-6.3c-2-.6-4.1.6-4.7,2.7-.6,2,.6,4.1,2.6,4.7l20.3,5.7-11.8,17.5c-1.2,1.7-.7,4.1,1,5.3.7.5,1.4.7,2.1.7,1.2,0,2.4-.6,3.2-1.7l13.2-19.6,23.1,6.4c.3,0,.7.1,1,.1,1.7,0,3.2-1.1,3.7-2.8.6-2-.6-4.1-2.7-4.7ZM200.7,86.8l-.5-1.3c-.3-.6-.8-1-1.5-1.1h-1.4c-.2,0-2.2,0-5.5.2l-9.4-27.5c.7,0,1.2,0,1.2,0h.5c2-.1,3.5-2,3.1-4v-.5c-2.1-10.6-8.6-20.8-19.2-29.6l3.4-8.9c1-2.6.3-5.6-1.7-7.5-2-1.9-5-2.5-7.6-1.4l-13.1,5.7C113.5-6,59.8-6.5,24.9,32.8-3.1,64.3-2.5,97,3,118.9c5,19.9,14.5,34.4,17.7,38.8-2.2,14.2-5,38.6,18.2,47,3,1.1,6,1.5,9.1,1.5,16.9,0,33.3-14.8,38.4-19.8,8.2,1.9,37.1,7.3,64.5-2.6,14.7-5.3,27-15.7,36.5-30.9,9-14.3,13.4-29.5,15.5-39.8,2.9-14.2-1.8-25.8-2-26.2ZM85.1,178.2c-.8-.2-1.6,0-2.2.6l-.7.7c-.2.2-22.9,24.4-40.9,17.9-16.8-6.1-15.6-23.2-13-40.2v-.8c.2-.5,0-1-.2-1.4l-.5-.7c-.1-.2-11.9-15.5-17.3-37.5-7.2-29.1-.3-55.7,20.3-79C60.9,3.7,106.7,2.1,139.5,15.1l-12.8,5.5c-1.9.8-2.8,3.1-2,5,.8,1.9,3.1,2.8,5,2l34.1-14.8-8.8,23.4c-.7,2,.2,4.2,2.2,4.9.4.2.9.2,1.4.2,1.5,0,3-.9,3.6-2.5l3.1-8.3c6.7,6,11.2,12.6,13.4,19.3-5.5.6-15.5,2.1-26.8,5.6-14.9,4.6-27.4,11.4-37.1,19.9-.6.4-1,.9-1.5,1.4-4.3,4-8,8.3-11,13-.8.8-1.5.8-4.9-.7-2.6-1.1-5.8-2.6-9.8-2.2-13.8,1.2-23.8,11.5-26.7,27.6-2,11.2,2.3,21.7,11.5,28.1,10.4,7.2,24.5,7.2,36.8-.1,9.4-5.6,16.3-12.2,23-18.7,10-9.6,20.3-19.5,39.4-26.8,9.7-3.7,18.6-4.6,22.8-4.8,1,3.7,2.5,11,.8,19.4-9.7,46.9-36.2,61.1-47.1,65-29.4,10.6-61.8,2-62.1,1.9l-1-.3ZM87.1,94.6c.4,0,.8-.1,1.2-.1,2-.2,3.9.7,6,1.6,3.5,1.5,8.7,3.8,13.6-1.1l.3-.3.2-.4c1.9-3,4.1-5.8,6.4-8.3l11.4,33.2c-6.4,6.2-12.6,12-20.8,16.9-1.1.7-2.3,1.3-3.5,1.8l-14.8-43.2ZM94.7,140c-6.4,1.1-12.8,0-17.9-3.6-6.7-4.6-9.8-12.3-8.4-20.5.6-3.7,3.2-13.9,11.5-18.8l14.7,42.9ZM120.9,80.1c6.8-5.7,14.6-10.1,22.2-13.3l10.4,30.3c-8.7,5-15.3,10.6-21.3,16.2l-11.4-33.2ZM150.3,64.1c9.4-3.3,18.3-5,24.5-6l9.5,27.5c-4.4.8-9.7,2.1-15.2,4.2-3.1,1.2-5.9,2.4-8.6,3.7l-10.1-29.5ZM62.6,83.1l13.2-19.6,23.1,6.4c.3,0,.7.1,1,.1,1.7,0,3.2-1.1,3.7-2.8.6-2-.6-4.1-2.7-4.7l-20.6-5.8,11.8-17.5c1.2-1.7.7-4.1-1-5.3-1.7-1.2-4.1-.7-5.3,1l-13.2,19.6-22.8-6.3c-2-.6-4.1.6-4.7,2.7-.6,2,.6,4.1,2.6,4.7l20.3,5.7-11.8,17.5c-1.2,1.7-.7,4.1,1,5.3.7.5,1.4.7,2.1.7,1.2,0,2.4-.6,3.2-1.7ZM101,62.6l-20.6-5.8,11.8-17.5c1.2-1.7.7-4.1-1-5.3-1.7-1.2-4.1-.7-5.3,1l-13.2,19.6-22.8-6.3c-2-.6-4.1.6-4.7,2.7-.6,2,.6,4.1,2.6,4.7l20.3,5.7-11.8,17.5c-1.2,1.7-.7,4.1,1,5.3.7.5,1.4.7,2.1.7,1.2,0,2.4-.6,3.2-1.7l13.2-19.6,23.1,6.4c.3,0,.7.1,1,.1,1.7,0,3.2-1.1,3.7-2.8.6-2-.6-4.1-2.7-4.7ZM101,62.6l-20.6-5.8,11.8-17.5c1.2-1.7.7-4.1-1-5.3-1.7-1.2-4.1-.7-5.3,1l-13.2,19.6-22.8-6.3c-2-.6-4.1.6-4.7,2.7-.6,2,.6,4.1,2.6,4.7l20.3,5.7-11.8,17.5c-1.2,1.7-.7,4.1,1,5.3.7.5,1.4.7,2.1.7,1.2,0,2.4-.6,3.2-1.7l13.2-19.6,23.1,6.4c.3,0,.7.1,1,.1,1.7,0,3.2-1.1,3.7-2.8.6-2-.6-4.1-2.7-4.7Z"/>
    <path class="yellow" d="M194.5,92.2c-4.2.2-13.1,1.1-22.8,4.8-19.1,7.3-29.4,17.2-39.4,26.8-6.7,6.5-13.7,13.1-23,18.7-12.3,7.3-26.4,7.4-36.8.1-9.2-6.4-13.5-16.9-11.5-28.1,2.9-16.1,12.8-26.5,26.7-27.6,3.9-.3,7.2,1.1,9.8,2.2,3.4,1.5,4,1.5,4.9.7,3-4.7,6.7-9,11-13,.5-.5,1-1,1.5-1.4,9.7-8.5,22.2-15.3,37.1-19.9,11.3-3.5,21.3-5,26.8-5.6-2.2-6.7-6.8-13.3-13.4-19.3l-3.1,8.3c-.6,1.5-2,2.5-3.6,2.5s-.9,0-1.4-.2c-2-.7-2.9-2.9-2.2-4.9l8.8-23.4-34.1,14.8c-1.9.8-4.2,0-5-2-.8-1.9,0-4.2,2-5l12.8-5.5C106.7,2.1,60.9,3.7,30.6,37.8,9.9,61.1,3.1,87.7,10.3,116.8c5.4,22,17.2,37.4,17.3,37.5l.5.7c.3.4.4.9.4,1.4v.8c-2.8,17-3.9,34.2,12.9,40.2,18,6.5,40.6-17.7,40.9-17.9l.7-.7c.6-.6,1.4-.8,2.2-.6l1,.3c.3,0,32.8,8.7,62.1-1.9,10.9-3.9,37.4-18.2,47.1-65,1.7-8.3.3-15.7-.8-19.4ZM57.4,84.2c-1.7-1.2-2.2-3.5-1-5.3l11.8-17.5-20.3-5.7c-2-.6-3.2-2.7-2.6-4.7.6-2,2.7-3.2,4.7-2.7l22.8,6.3,13.2-19.6c1.2-1.7,3.5-2.2,5.3-1,1.7,1.2,2.2,3.5,1,5.3l-11.8,17.5,20.6,5.8c2,.6,3.2,2.7,2.7,4.7-.5,1.7-2,2.8-3.7,2.8s-.7,0-1-.1l-23.1-6.4-13.2,19.6c-.7,1.1-1.9,1.7-3.2,1.7s-1.5-.2-2.1-.7Z"/>
  </g>
  <g>
    <path class="blue" d="M282.9,70.5c0,2.2-.6,4-1.7,5.4-1.1,1.4-2.8,2-5,2s-3.8-.7-4.9-2-1.7-3.1-1.7-5.4h-8.5c0,4.6,1.4,8.2,4.2,10.9s6.5,4,11,4,8.2-1.3,11-4c2.8-2.7,4.2-6.3,4.2-10.9v-37.1h-8.5v37.1Z"/>
    <path class="blue" d="M375.9,42.5c2.7-1.5,5.7-2.3,9.1-2.3s5.8.7,8.2,2c2.4,1.3,4.2,3.4,5.6,6.1h10.1c-1.9-4.9-5-8.7-9.3-11.4-4.3-2.7-9.1-4-14.6-4s-9.2,1.1-13.2,3.4c-4,2.2-7.2,5.4-9.5,9.4-2.3,4-3.5,8.5-3.5,13.5s1.2,9.5,3.5,13.5c2.3,4,5.5,7.1,9.5,9.4,4,2.2,8.4,3.4,13.2,3.4s10.3-1.3,14.6-4c4.3-2.7,7.4-6.5,9.3-11.4h-10.1c-1.3,2.7-3.2,4.7-5.6,6.1s-5.1,2-8.2,2-6.4-.8-9.1-2.3c-2.7-1.6-4.7-3.8-6.3-6.6-1.5-2.9-2.3-6.2-2.3-10s.8-7.1,2.3-10c1.5-2.9,3.6-5.1,6.3-6.6Z"/>
    <path class="blue" d="M459.9,36.2c-4-2.2-8.4-3.4-13.3-3.4s-9.2,1.1-13.2,3.4c-4,2.2-7.2,5.4-9.5,9.4-2.3,4-3.5,8.5-3.5,13.5s1.2,9.6,3.5,13.6c2.3,4,5.5,7.2,9.5,9.4,4,2.2,8.4,3.4,13.2,3.4s9.3-1.1,13.3-3.4c4-2.2,7.2-5.4,9.5-9.4,2.3-4,3.5-8.5,3.5-13.6s-1.2-9.5-3.5-13.5c-2.3-4-5.5-7.1-9.5-9.4ZM462,69.1c-1.5,2.9-3.6,5.1-6.3,6.7-2.7,1.6-5.7,2.3-9.1,2.3s-6.4-.8-9.1-2.3c-2.7-1.6-4.7-3.8-6.3-6.7-1.5-2.9-2.3-6.2-2.3-10s.8-7.1,2.3-10c1.5-2.9,3.6-5.1,6.3-6.6,2.7-1.5,5.7-2.3,9.1-2.3s6.4.8,9.1,2.3c2.7,1.5,4.7,3.7,6.3,6.6,1.5,2.9,2.3,6.2,2.3,10s-.8,7.1-2.3,10Z"/>
    <path class="blue" d="M522.1,62.8c-1.9-2.4-4.3-3.9-7-4.4,2.7-.9,4.8-2.4,6.4-4.4,1.6-2,2.4-4.4,2.4-7.4s-.6-4.7-1.9-6.7c-1.3-2-3.2-3.6-5.7-4.8-2.5-1.2-5.5-1.8-9-1.8h-19.6v51.4h20.6c3.4,0,6.4-.6,9-1.8,2.6-1.2,4.5-2.9,5.9-5,1.4-2.1,2-4.5,2-7.1s-1-5.8-2.9-8.2ZM496,40.3h10.4c2.8,0,4.9.7,6.5,2,1.6,1.3,2.3,3.1,2.3,5.4s-.8,4.2-2.3,5.4c-1.6,1.3-3.7,1.9-6.5,1.9h-10.4v-14.7ZM514.1,75.9c-1.6,1.4-3.9,2.1-6.7,2.1h-11.4v-16.1h11.1c2.9,0,5.2.7,6.9,2.2,1.7,1.5,2.6,3.5,2.6,6s-.8,4.4-2.4,5.8Z"/>
    <path class="blue" d="M322.5,33.4l-18.4,51.5h8.8l3.7-10.5,2.4-6.9h0v-.4h16.7v.4c.1,0,2.5,6.9,2.5,6.9l3.7,10.5h8.9l-18.4-51.5h-9.8ZM321.5,60.3l5.9-16.7,5.9,16.7h-11.8Z"/>
  </g>
  <g>
    <path class="cls-2" d="M352.2,109.1h-30v50h10v-20h10v10h10v-20h10v-10h-10v-10ZM351.8,129.1h-19.6v-10h19.6v10Z"/>
    <rect class="cls-2" x="352.2" y="149.1" width="10" height="10"/>
    <path class="cls-2" d="M457.8,109.1h-20v10h-10v40h10v-20h20v20h10v-40h-10v-10ZM457.8,129.1h-20v-9.6h20v9.6Z"/>
    <rect class="cls-2" x="529.6" y="109.1" width="10" height="50"/>
    <rect class="cls-2" x="551" y="109.1" width="10" height="20"/>
    <rect class="cls-2" x="591" y="109.1" width="10" height="20"/>
    <rect class="cls-2" x="561" y="129.1" width="10" height="20"/>
    <rect class="cls-2" x="581" y="129.1" width="10" height="20"/>
    <rect class="cls-2" x="571" y="149.1" width="10" height="10"/>
    <polygon class="cls-2" points="641.3 119.1 641.3 109.1 611.3 109.1 611.3 159.1 641.3 159.1 641.3 149.1 621.3 149.1 621.3 139.1 641.3 139.1 641.3 129.1 621.3 129.1 621.3 119.1 641.3 119.1"/>
    <polygon class="cls-2" points="261.8 129.1 261.8 139.1 261.8 149.1 271.8 149.1 271.8 139.1 271.8 129.1 271.8 119.1 261.8 119.1 261.8 129.1"/>
    <polygon class="cls-2" points="508.7 109.1 488.7 109.1 483.7 109.1 478.7 109.1 478.7 119.1 483.7 119.1 488.7 119.1 493.7 119.1 493.7 159.1 503.7 159.1 503.7 119.1 508.7 119.1 513.7 119.1 518.7 119.1 518.7 109.1 513.7 109.1 508.7 109.1"/>
    <polygon class="cls-2" points="402.6 129.1 387.5 129.1 387.5 119.1 402.4 119.1 407.5 119.1 412.4 119.1 412.4 109.1 407.5 109.1 402.4 109.1 377.5 109.1 377.5 159.1 402.6 159.1 407.5 159.1 412.6 159.1 412.6 149.1 407.5 149.1 402.6 149.1 387.5 149.1 387.5 139.1 402.6 139.1 407.5 139.1 412.6 139.1 412.6 129.1 407.5 129.1 402.6 129.1"/>
    <polygon class="cls-2" points="276.8 159.1 281.8 159.1 296.8 159.1 296.8 149.1 283.5 149.1 281.8 149.1 276.8 149.1 271.8 149.1 271.8 159.1 276.8 159.1"/>
    <rect class="cls-2" x="296.8" y="139.1" width="10" height="10"/>
    <polygon class="cls-2" points="281.8 109.1 276.8 109.1 271.8 109.1 271.8 119.1 276.8 119.1 281.8 119.1 283.5 119.1 296.8 119.1 296.8 109.1 281.8 109.1"/>
    <rect class="cls-2" x="296.8" y="119.1" width="10" height="10"/>
  </g>
</svg>
