<svg version="1.1" id="Layer_1" xmlns="http://www.w3.org/2000/svg" xmlns:xlink="http://www.w3.org/1999/xlink" x="0px" y="0px"
             viewBox="0 0 576.33 556.97" style="enable-background:new 0 0 576.33 556.97;" xml:space="preserve">
          <style type="text/css">
            .st0{fill:#FEDA29;}
            .st1{fill:#FFFFFF;}
            .st2{display:none;}
            .st3{display:inline;fill:#FFFFFF;}
          </style>
          <g>
            <g>
              <path class="st0" d="M493.56,318.43c-20.41,98.42-75.97,128.32-98.91,136.6c-61.69,22.28-129.79,4.2-130.47,4.02l-4.67-1.27
                l-3.29,3.55c-0.48,0.51-48.08,51.23-85.83,37.6c-13.7-4.95-21.71-13.43-26.05-24.04c-6.81-16.66-20.04-52.66-16.68-74.5l0.99-7.11
                l-2.11-2.72c-0.23-0.29-11.37-16.87-23.58-57.37c-1.04-3.45-2.01-6.99-2.91-10.62c-15.06-61.21-0.7-117.03,42.7-165.91
                c63.56-71.59,159.76-75.07,228.78-47.7c0,0,8.75,1.48,21.59,8.06c5.92,3.03,12.7,7.15,19.9,12.71
                c13.44,10.38,28.31,25.77,41.62,48.51c9.4,16.05,7.05,36.83,13.85,61.02c0.33,1.17,19.3,2.02,19.62,3.21
                c2.43,9.05,7.12,27.42,3.86,35.24C494.12,285.37,497.19,300.89,493.56,318.43z"/>
            </g>
            <g>
              <path class="st1" d="M441.29,177.83l19.86,57.86c-9.33,1.64-20.34,4.34-31.95,8.79c-6.46,2.47-12.45,5.06-18.07,7.76l-21.23-61.89
                C409.71,183.49,428.25,179.79,441.29,177.83z"/>
              <path class="st1" d="M374.97,196.07l21.86,63.69c-18.27,10.53-32.07,22.18-44.65,33.92l-23.92-69.69
                C342.55,211.94,358.84,202.88,374.97,196.07z"/>
              <path class="st1" d="M242.18,259.53l30.96,90.2c-13.52,2.32-26.81-0.17-37.51-7.58c-14.08-9.74-20.65-25.86-17.58-43.12
                C219.42,291.32,224.74,269.83,242.18,259.53z"/>
              <path class="st1" d="M315.54,236.14l23.92,69.66c-13.46,12.94-26.4,25.14-43.77,35.47c-2.39,1.43-4.82,2.67-7.28,3.77
                l-31.12-90.69c0.8-0.11,1.62-0.21,2.46-0.29c4.22-0.36,8.31,1.46,12.66,3.38c7.25,3.19,18.2,8.02,28.54-2.4l0.62-0.62l0.47-0.73
                C306.06,247.33,310.61,241.5,315.54,236.14z"/>
            </g>
            <g>
              <path d="M495.9,238.11c0.42,1.02,10.27,25.33,4.1,55.13c-4.47,21.54-13.74,53.52-32.55,83.56
                c-19.95,31.87-45.72,53.68-76.58,64.83c-57.66,20.82-118.36,9.47-135.47,5.54c-10.72,10.6-45.1,41.61-80.62,41.61
                c-6.34,0-12.72-0.99-19.01-3.26c-48.69-17.58-42.68-68.76-38.15-98.63c-6.58-9.17-26.67-39.56-37.09-81.39
                c-11.43-45.96-12.71-114.65,46.12-180.92c73.2-82.45,186.04-81.55,260.77-45.77l27.57-11.92c5.41-2.34,11.68-1.22,15.95,2.85
                c4.27,4.08,5.68,10.29,3.59,15.81l-7.06,18.66c22.14,18.47,36,39.9,40.09,62.1l1.66,9.01l-9.15,0.42c-0.09,0-0.99,0.05-2.55,0.18
                l19.8,57.69c6.79-0.54,11.01-0.44,11.45-0.43l5.16,0.16L495.9,238.11z M484.36,290c3.63-17.54,0.56-33.06-1.58-40.73
                c-8.9,0.45-27.51,2.33-47.87,10.12c-40.15,15.36-61.78,36.18-82.7,56.31c-14.1,13.56-28.68,27.6-48.35,39.3
                c-25.78,15.33-55.41,15.44-77.32,0.29c-19.36-13.4-28.42-35.48-24.21-59.06c6.03-33.87,26.98-55.58,56.05-58.08
                c8.27-0.71,15.04,2.27,20.47,4.67c7.15,3.16,8.42,3.17,10.2,1.52c6.34-9.84,14.09-18.98,23.1-27.35c0.77-1.23,1.87-2.24,3.23-2.9
                c20.3-17.87,46.61-32.06,77.9-41.76c23.79-7.38,44.72-10.47,56.37-11.73c-4.64-14.13-14.23-27.91-28.19-40.5l-6.59,17.42
                c-1.21,3.19-4.25,5.16-7.47,5.16c-0.94,0-1.9-0.17-2.83-0.52c-4.12-1.56-6.2-6.17-4.64-10.3l18.58-49.09l-71.67,30.99
                c-4.05,1.76-8.75-0.11-10.5-4.16s0.11-8.75,4.16-10.5l26.88-11.62c-69.02-27.37-165.22-23.89-228.78,47.7
                c-43.4,48.88-57.76,104.7-42.7,165.91c11.38,46.26,36.16,78.49,36.41,78.81l2.11,2.72l-0.52,3.41
                c-5.5,35.76-7.92,71.75,27.29,84.47c37.75,13.63,85.35-37.09,85.83-37.6l3.29-3.55l4.67,1.27c0.68,0.18,68.78,18.26,130.47-4.02
                C408.39,418.32,463.95,388.42,484.36,290z M461.15,235.69l-19.86-57.86c-13.04,1.96-31.58,5.66-51.39,12.52l21.23,61.89
                c5.62-2.7,11.61-5.29,18.07-7.76C440.81,240.03,451.82,237.33,461.15,235.69z M396.83,259.76l-21.86-63.69
                c-16.13,6.81-32.42,15.87-46.71,27.92l23.92,69.69C364.76,281.94,378.56,270.29,396.83,259.76z M339.46,305.8l-23.92-69.66
                c-4.93,5.36-9.48,11.19-13.5,17.55l-0.47,0.73l-0.62,0.62c-10.34,10.42-21.29,5.59-28.54,2.4c-4.35-1.92-8.44-3.74-12.66-3.38
                c-0.84,0.08-1.66,0.18-2.46,0.29l31.12,90.69c2.46-1.1,4.89-2.34,7.28-3.77C313.06,330.94,326,318.74,339.46,305.8z
                 M273.14,349.73l-30.96-90.2c-17.44,10.3-22.76,31.79-24.13,39.5c-3.07,17.26,3.5,33.38,17.58,43.12
                C246.33,349.56,259.62,352.05,273.14,349.73z"/>
              <path d="M286.38,187.29c4.25,1.19,6.74,5.59,5.55,9.84c-0.98,3.53-4.19,5.84-7.69,5.84c-0.71,0-1.43-0.09-2.14-0.29l-48.5-13.5
                l-27.71,41.16c-1.54,2.29-4.06,3.53-6.63,3.53c-1.53,0-3.08-0.44-4.45-1.37c-3.66-2.46-4.63-7.42-2.17-11.08l24.75-36.76
                l-42.69-11.88c-4.25-1.18-6.73-5.59-5.55-9.83c1.18-4.25,5.59-6.74,9.83-5.56l47.81,13.31l27.71-41.16
                c2.46-3.66,7.43-4.63,11.08-2.16c3.66,2.46,4.63,7.42,2.17,11.08L243,175.22L286.38,187.29z"/>
            </g>
          </g>
          <g class="st2">
            <path class="st3" d="M84.18,1376.52l19.86,57.86c-9.33,1.64-20.34,4.34-31.95,8.79c-6.46,2.47-12.45,5.06-18.07,7.76l-21.23-61.89
              C52.6,1382.18,71.14,1378.48,84.18,1376.52z"/>
            <path class="st3" d="M17.86,1394.76l21.86,63.69c-18.27,10.53-32.07,22.18-44.65,33.92l-23.92-69.69
              C-14.56,1410.63,1.73,1401.57,17.86,1394.76z"/>
            <path class="st3" d="M-114.93,1458.22l30.96,90.2c-13.52,2.32-26.81-0.17-37.51-7.58c-14.08-9.74-20.65-25.86-17.58-43.12
              C-137.69,1490.01-132.37,1468.52-114.93,1458.22z"/>
            <path class="st3" d="M-41.57,1434.83l23.92,69.66c-13.46,12.94-26.4,25.14-43.77,35.47c-2.39,1.43-4.82,2.67-7.28,3.77
              l-31.12-90.69c0.8-0.11,1.62-0.21,2.46-0.29c4.22-0.36,8.31,1.46,12.66,3.38c7.25,3.19,18.2,8.02,28.54-2.4l0.62-0.62l0.47-0.73
              C-51.05,1446.02-46.5,1440.19-41.57,1434.83z"/>
          </g>
          </svg>