<svg version="1.1" id="Layer_1" xmlns="http://www.w3.org/2000/svg" xmlns:xlink="http://www.w3.org/1999/xlink" x="0px" y="0px" viewBox="0 0 1920 1080" style="enable-background:new 0 0 1920 1080;" xml:space="preserve">

  <g class="logo-creative">
    <path d="M1101.32,572.09c-0.78-1.79-2.18-3.05-4.21-3.77c-2.04-0.72-4.91-1.08-8.62-1.08c-4.78,0-9.26,0.01-13.46,0.03v25.46h13.46
		c3.71,0,6.58-0.36,8.62-1.08c2.03-0.72,3.43-2,4.21-3.86c0.78-1.85,1.17-4.45,1.17-7.8
		C1102.49,576.52,1102.1,573.89,1101.32,572.09z M1101.32,572.09c-0.78-1.79-2.18-3.05-4.21-3.77c-2.04-0.72-4.91-1.08-8.62-1.08
		c-4.78,0-9.26,0.01-13.46,0.03v25.46h13.46c3.71,0,6.58-0.36,8.62-1.08c2.03-0.72,3.43-2,4.21-3.86c0.78-1.85,1.17-4.45,1.17-7.8
		C1102.49,576.52,1102.1,573.89,1101.32,572.09z M1101.32,572.09c-0.78-1.79-2.18-3.05-4.21-3.77c-2.04-0.72-4.91-1.08-8.62-1.08
		c-4.78,0-9.26,0.01-13.46,0.03v25.46h13.46c3.71,0,6.58-0.36,8.62-1.08c2.03-0.72,3.43-2,4.21-3.86c0.78-1.85,1.17-4.45,1.17-7.8
		C1102.49,576.52,1102.1,573.89,1101.32,572.09z M1321.62,584.83c-0.48-2.27-0.9-4.63-1.26-7.09c-0.36-2.45-0.66-4.81-0.9-7.08
		h-4.84c-0.24,2.27-0.54,4.63-0.9,7.08c-0.36,2.46-0.78,4.82-1.26,7.09l-6.15,26.56h21.46L1321.62,584.83z M1321.62,584.83
		c-0.48-2.27-0.9-4.63-1.26-7.09c-0.36-2.45-0.66-4.81-0.9-7.08h-4.84c-0.24,2.27-0.54,4.63-0.9,7.08
		c-0.36,2.46-0.78,4.82-1.26,7.09l-6.15,26.56h21.46L1321.62,584.83z M1101.32,572.09c-0.78-1.79-2.18-3.05-4.21-3.77
		c-2.04-0.72-4.91-1.08-8.62-1.08c-4.78,0-9.26,0.01-13.46,0.03v25.46h13.46c3.71,0,6.58-0.36,8.62-1.08c2.03-0.72,3.43-2,4.21-3.86
		c0.78-1.85,1.17-4.45,1.17-7.8C1102.49,576.52,1102.1,573.89,1101.32,572.09z M1101.32,572.09c-0.78-1.79-2.18-3.05-4.21-3.77
		c-2.04-0.72-4.91-1.08-8.62-1.08c-4.78,0-9.26,0.01-13.46,0.03v25.46h13.46c3.71,0,6.58-0.36,8.62-1.08c2.03-0.72,3.43-2,4.21-3.86
		c0.78-1.85,1.17-4.45,1.17-7.8C1102.49,576.52,1102.1,573.89,1101.32,572.09z M1321.62,584.83c-0.48-2.27-0.9-4.63-1.26-7.09
		c-0.36-2.45-0.66-4.81-0.9-7.08h-4.84c-0.24,2.27-0.54,4.63-0.9,7.08c-0.36,2.46-0.78,4.82-1.26,7.09l-6.15,26.56h21.46
		L1321.62,584.83z M1321.62,584.83c-0.48-2.27-0.9-4.63-1.26-7.09c-0.36-2.45-0.66-4.81-0.9-7.08h-4.84
		c-0.24,2.27-0.54,4.63-0.9,7.08c-0.36,2.46-0.78,4.82-1.26,7.09l-6.15,26.56h21.46L1321.62,584.83z M1101.32,572.09
		c-0.78-1.79-2.18-3.05-4.21-3.77c-2.04-0.72-4.91-1.08-8.62-1.08c-4.78,0-9.26,0.01-13.46,0.03v25.46h13.46
		c3.71,0,6.58-0.36,8.62-1.08c2.03-0.72,3.43-2,4.21-3.86c0.78-1.85,1.17-4.45,1.17-7.8
		C1102.49,576.52,1102.1,573.89,1101.32,572.09z M1785.48,517.23H903.31c-1.2,0-2.17,0.97-2.17,2.17v171.79
		c0,1.2,0.97,2.18,2.17,2.18h882.17c1.2,0,2.17-0.98,2.17-2.18V519.4C1787.65,518.2,1786.68,517.23,1785.48,517.23z M1005.13,666.22
		c-6.52,0.9-14.63,1.35-24.32,1.35c-13.64,0-24.58-2.07-32.84-6.19c-8.26-4.13-14.21-10.86-17.86-20.19
		c-3.65-9.34-5.47-21.9-5.47-37.69c0-15.8,1.82-28.36,5.47-37.69s9.6-16.06,17.86-20.19s19.2-6.19,32.84-6.19
		c6.46,0,11.97,0.18,16.51,0.53c4.55,0.36,8.71,0.87,12.48,1.53c3.76,0.66,7.68,1.59,11.75,2.78l-2.87,28.36
		c-4.19-0.12-8.08-0.18-11.67-0.18c-3.58,0-7.42-0.03-11.48-0.09c-4.07-0.06-8.97-0.09-14.72-0.09c-4.07,0-7.21,0.87-9.42,2.6
		c-2.22,1.74-3.74,4.85-4.58,9.33c-0.83,4.49-1.25,10.92-1.25,19.3c0,8.37,0.42,14.8,1.25,19.29c0.84,4.49,2.36,7.6,4.58,9.33
		c2.21,1.74,5.35,2.6,9.42,2.6c8.98,0,16.48-0.09,22.53-0.26c6.03-0.19,12.05-0.57,18.03-1.17l2.87,28.35
		C1018.02,663.8,1011.65,665.32,1005.13,666.22z M1105.72,665.41l-8.08-36.79c-0.71-3.47-1.82-5.74-3.32-6.82
		c-1.49-1.08-3.92-1.61-7.26-1.61c-4.41-0.06-8.42-0.1-12.03-0.13v45.35h-38.22V541.58c5.5-0.6,10.67-1.01,15.52-1.26
		c4.84-0.23,10.17-0.38,15.97-0.44c5.8-0.06,12.83-0.09,21.09-0.09c12.2,0,22.13,1.14,29.79,3.4c7.66,2.28,13.31,6.14,16.96,11.58
		c3.65,5.45,5.47,13.01,5.47,22.7c0,4.91-0.75,9.49-2.24,13.73c-1.5,4.25-4.07,7.75-7.72,10.5c-3.65,2.76-8.7,4.49-15.16,5.21v1.07
		c2.27,0.24,4.78,0.93,7.54,2.07c2.75,1.14,5.32,3.05,7.71,5.74s4.07,6.55,5.03,11.58l9.69,38.04L1105.72,665.41L1105.72,665.41z
		 M1242.47,589.14v25.84h-46.3v14.9c0,1.91,0.66,3.47,1.97,4.66c1.32,1.2,3.11,1.8,5.39,1.8h45.4l1.8,27.46
		c-5.99,0.72-12.63,1.25-19.92,1.61c-7.3,0.36-14.75,0.57-22.35,0.63s-14.98,0.09-22.16,0.09c-8.5,0-15.47-2.6-20.91-7.81
		c-5.44-5.2-8.16-11.99-8.16-20.37v-68.91c0-8.37,2.72-15.17,8.16-20.37s12.41-7.81,20.91-7.81c7.18,0,14.56,0.03,22.16,0.09
		s15.05,0.24,22.35,0.54c7.29,0.3,13.93,0.87,19.92,1.7l-1.8,27.47h-45.4c-2.28,0-4.07,0.59-5.39,1.79
		c-1.31,1.2-1.97,2.75-1.97,4.67v12.02H1242.47z M1340.28,665.41l-6.19-26.74h-34.1l-6.19,26.74h-39.66l32.12-113.78
		c0.84-3.11,2.45-5.56,4.85-7.36c2.39-1.79,5.14-2.69,8.25-2.69h35.36c3.11,0,5.86,0.9,8.25,2.69c2.39,1.8,4.01,4.25,4.85,7.36
		l32.12,113.78L1340.28,665.41L1340.28,665.41z M1477.93,570.66h-34.64v94.75h-38.94v-94.75h-34.64v-29.08h108.22V570.66z
		 M1527.82,665.41h-38.59V541.58h38.59V665.41z M1627.78,655c-0.72,3.12-2.27,5.63-4.66,7.54c-2.4,1.92-5.27,2.87-8.62,2.87h-34.1
		c-3.35,0-6.22-0.95-8.61-2.87c-2.4-1.91-3.95-4.42-4.67-7.54l-30.15-113.42h40.02l15.98,80.58c0.47,2.28,0.89,4.64,1.25,7.09
		s0.72,4.82,1.08,7.09h4.31c0.23-2.27,0.56-4.64,0.98-7.09c0.42-2.45,0.87-4.81,1.35-7.09l15.97-80.58h40.02L1627.78,655z
		 M1751.25,589.14v25.84h-46.3v14.9c0,1.91,0.66,3.47,1.98,4.66c1.31,1.2,3.11,1.8,5.38,1.8h45.41l1.79,27.46
		c-5.98,0.72-12.62,1.25-19.92,1.61s-14.75,0.57-22.34,0.63c-7.6,0.06-14.99,0.09-22.17,0.09c-8.49,0-15.46-2.6-20.91-7.81
		c-5.44-5.2-8.16-11.99-8.16-20.37v-68.91c0-8.37,2.72-15.17,8.16-20.37c5.45-5.2,12.42-7.81,20.91-7.81
		c7.18,0,14.57,0.03,22.17,0.09c7.59,0.06,15.04,0.24,22.34,0.54c7.3,0.3,13.94,0.87,19.92,1.7l-1.79,27.47h-45.41
		c-2.27,0-4.07,0.59-5.38,1.79c-1.32,1.2-1.98,2.75-1.98,4.67v12.02H1751.25z M1320.36,577.74c-0.36-2.45-0.66-4.81-0.9-7.08h-4.84
		c-0.24,2.27-0.54,4.63-0.9,7.08c-0.36,2.46-0.78,4.82-1.26,7.09l-6.15,26.56h21.46l-6.15-26.56
		C1321.14,582.56,1320.72,580.2,1320.36,577.74z M1097.11,568.32c-2.04-0.72-4.91-1.08-8.62-1.08c-4.78,0-9.26,0.01-13.46,0.03
		v25.46h13.46c3.71,0,6.58-0.36,8.62-1.08c2.03-0.72,3.43-2,4.21-3.86c0.78-1.85,1.17-4.45,1.17-7.8c0-3.47-0.39-6.1-1.17-7.9
		C1100.54,570.3,1099.14,569.04,1097.11,568.32z M1101.32,572.09c-0.78-1.79-2.18-3.05-4.21-3.77c-2.04-0.72-4.91-1.08-8.62-1.08
		c-4.78,0-9.26,0.01-13.46,0.03v25.46h13.46c3.71,0,6.58-0.36,8.62-1.08c2.03-0.72,3.43-2,4.21-3.86c0.78-1.85,1.17-4.45,1.17-7.8
		C1102.49,576.52,1102.1,573.89,1101.32,572.09z M1321.62,584.83c-0.48-2.27-0.9-4.63-1.26-7.09c-0.36-2.45-0.66-4.81-0.9-7.08
		h-4.84c-0.24,2.27-0.54,4.63-0.9,7.08c-0.36,2.46-0.78,4.82-1.26,7.09l-6.15,26.56h21.46L1321.62,584.83z M1321.62,584.83
		c-0.48-2.27-0.9-4.63-1.26-7.09c-0.36-2.45-0.66-4.81-0.9-7.08h-4.84c-0.24,2.27-0.54,4.63-0.9,7.08
		c-0.36,2.46-0.78,4.82-1.26,7.09l-6.15,26.56h21.46L1321.62,584.83z M1101.32,572.09c-0.78-1.79-2.18-3.05-4.21-3.77
		c-2.04-0.72-4.91-1.08-8.62-1.08c-4.78,0-9.26,0.01-13.46,0.03v25.46h13.46c3.71,0,6.58-0.36,8.62-1.08c2.03-0.72,3.43-2,4.21-3.86
		c0.78-1.85,1.17-4.45,1.17-7.8C1102.49,576.52,1102.1,573.89,1101.32,572.09z M1101.32,572.09c-0.78-1.79-2.18-3.05-4.21-3.77
		c-2.04-0.72-4.91-1.08-8.62-1.08c-4.78,0-9.26,0.01-13.46,0.03v25.46h13.46c3.71,0,6.58-0.36,8.62-1.08c2.03-0.72,3.43-2,4.21-3.86
		c0.78-1.85,1.17-4.45,1.17-7.8C1102.49,576.52,1102.1,573.89,1101.32,572.09z M1321.62,584.83c-0.48-2.27-0.9-4.63-1.26-7.09
		c-0.36-2.45-0.66-4.81-0.9-7.08h-4.84c-0.24,2.27-0.54,4.63-0.9,7.08c-0.36,2.46-0.78,4.82-1.26,7.09l-6.15,26.56h21.46
		L1321.62,584.83z M1321.62,584.83c-0.48-2.27-0.9-4.63-1.26-7.09c-0.36-2.45-0.66-4.81-0.9-7.08h-4.84
		c-0.24,2.27-0.54,4.63-0.9,7.08c-0.36,2.46-0.78,4.82-1.26,7.09l-6.15,26.56h21.46L1321.62,584.83z M1101.32,572.09
		c-0.78-1.79-2.18-3.05-4.21-3.77c-2.04-0.72-4.91-1.08-8.62-1.08c-4.78,0-9.26,0.01-13.46,0.03v25.46h13.46
		c3.71,0,6.58-0.36,8.62-1.08c2.03-0.72,3.43-2,4.21-3.86c0.78-1.85,1.17-4.45,1.17-7.8
		C1102.49,576.52,1102.1,573.89,1101.32,572.09z M1101.32,572.09c-0.78-1.79-2.18-3.05-4.21-3.77c-2.04-0.72-4.91-1.08-8.62-1.08
		c-4.78,0-9.26,0.01-13.46,0.03v25.46h13.46c3.71,0,6.58-0.36,8.62-1.08c2.03-0.72,3.43-2,4.21-3.86c0.78-1.85,1.17-4.45,1.17-7.8
		C1102.49,576.52,1102.1,573.89,1101.32,572.09z M1101.32,572.09c-0.78-1.79-2.18-3.05-4.21-3.77c-2.04-0.72-4.91-1.08-8.62-1.08
		c-4.78,0-9.26,0.01-13.46,0.03v25.46h13.46c3.71,0,6.58-0.36,8.62-1.08c2.03-0.72,3.43-2,4.21-3.86c0.78-1.85,1.17-4.45,1.17-7.8
		C1102.49,576.52,1102.1,573.89,1101.32,572.09z" />
  </g>
  <g class="logo-color">
    <path class="st0" d="M808.29,583.42c-20.41,98.42-75.97,128.32-98.91,136.6c-61.69,22.28-129.79,4.2-130.47,4.02l-4.67-1.27
		l-3.29,3.55c-0.48,0.51-48.08,51.23-85.83,37.6c-13.7-4.95-21.71-13.43-26.05-24.04c-6.81-16.66-20.04-52.66-16.68-74.5l0.99-7.11
		l-2.11-2.72c-0.23-0.29-11.37-16.87-23.58-57.37c-1.04-3.45-2.01-6.99-2.91-10.62c-15.06-61.21-0.7-117.03,42.7-165.91
		c63.56-71.59,159.76-75.07,228.78-47.7c0,0,8.75,1.48,21.59,8.06c5.92,3.03,12.7,7.15,19.9,12.71
		c13.44,10.38,28.31,25.77,41.62,48.51c9.4,16.05,7.05,36.83,13.85,61.02c0.33,1.17,19.3,2.02,19.62,3.21
		c2.43,9.05,7.12,27.42,3.86,35.24C808.85,550.36,811.92,565.88,808.29,583.42z" />
  </g>
  <g class="logo-teeth">
    <path class="st1" d="M756.02,442.82l19.86,57.86c-9.33,1.64-20.34,4.34-31.95,8.79c-6.46,2.47-12.45,5.06-18.07,7.76l-21.23-61.89
		C724.44,448.48,742.98,444.78,756.02,442.82z" />
    <path class="st1" d="M689.7,461.06l21.86,63.69c-18.27,10.53-32.07,22.18-44.65,33.92l-23.92-69.69
		C657.28,476.93,673.57,467.87,689.7,461.06z" />
    <path class="st1" d="M556.91,524.52l30.96,90.2c-13.52,2.32-26.81-0.17-37.51-7.58c-14.08-9.74-20.65-25.86-17.58-43.12
		C534.15,556.31,539.47,534.82,556.91,524.52z" />
    <path class="st1" d="M630.27,501.13l23.92,69.66c-13.46,12.94-26.4,25.14-43.77,35.47c-2.39,1.43-4.82,2.67-7.28,3.77l-31.12-90.69
		c0.8-0.11,1.62-0.21,2.46-0.29c4.22-0.36,8.31,1.46,12.66,3.38c7.25,3.19,18.2,8.02,28.54-2.4l0.62-0.62l0.47-0.73
		C620.79,512.32,625.34,506.49,630.27,501.13z" />
  </g>
  <g class="logo-outline">
    <path d="M810.63,503.1c0.42,1.02,10.27,25.33,4.1,55.13c-4.47,21.54-13.74,53.52-32.55,83.56c-19.95,31.87-45.72,53.68-76.58,64.83
		c-57.66,20.82-118.36,9.47-135.47,5.54c-10.72,10.6-45.1,41.61-80.62,41.61c-6.34,0-12.72-0.99-19.01-3.26
		c-48.69-17.58-42.68-68.76-38.15-98.63c-6.58-9.17-26.67-39.56-37.09-81.39c-11.43-45.96-12.71-114.65,46.12-180.92
		c73.2-82.45,186.04-81.55,260.77-45.77l27.57-11.92c5.41-2.34,11.68-1.22,15.95,2.85c4.27,4.08,5.68,10.29,3.59,15.81l-7.06,18.66
		c22.14,18.47,36,39.9,40.09,62.1l1.66,9.01l-9.15,0.42c-0.09,0-0.99,0.05-2.55,0.18l19.8,57.69c6.79-0.54,11.01-0.44,11.45-0.43
		l5.16,0.16L810.63,503.1z M799.09,554.99c3.63-17.54,0.56-33.06-1.58-40.73c-8.9,0.45-27.51,2.33-47.87,10.12
		c-40.15,15.36-61.78,36.18-82.7,56.31c-14.1,13.56-28.68,27.6-48.35,39.3c-25.78,15.33-55.41,15.44-77.32,0.29
		c-19.36-13.4-28.42-35.48-24.21-59.06c6.03-33.87,26.98-55.58,56.05-58.08c8.27-0.71,15.04,2.27,20.47,4.67
		c7.15,3.16,8.42,3.17,10.2,1.52c6.34-9.84,14.09-18.98,23.1-27.35c0.77-1.23,1.87-2.24,3.23-2.9c20.3-17.87,46.61-32.06,77.9-41.76
		c23.79-7.38,44.72-10.47,56.37-11.73c-4.64-14.13-14.23-27.91-28.19-40.5l-6.59,17.42c-1.21,3.19-4.25,5.16-7.47,5.16
		c-0.94,0-1.9-0.17-2.83-0.52c-4.12-1.56-6.2-6.17-4.64-10.3l18.58-49.09l-71.67,30.99c-4.05,1.76-8.75-0.11-10.5-4.16
		s0.11-8.75,4.16-10.5l26.88-11.62c-69.02-27.37-165.22-23.89-228.78,47.7c-43.4,48.88-57.76,104.7-42.7,165.91
		c11.38,46.26,36.16,78.49,36.41,78.81l2.11,2.72l-0.52,3.41c-5.5,35.76-7.92,71.75,27.29,84.47c37.75,13.63,85.35-37.09,85.83-37.6
		l3.29-3.55l4.67,1.27c0.68,0.18,68.78,18.26,130.47-4.02C723.12,683.31,778.68,653.41,799.09,554.99z M775.88,500.68l-19.86-57.86
		c-13.04,1.96-31.58,5.66-51.39,12.52l21.23,61.89c5.62-2.7,11.61-5.29,18.07-7.76C755.54,505.02,766.55,502.32,775.88,500.68z
		 M711.56,524.75l-21.86-63.69c-16.13,6.81-32.42,15.87-46.71,27.92l23.92,69.69C679.49,546.93,693.29,535.28,711.56,524.75z
		 M654.19,570.79l-23.92-69.66c-4.93,5.36-9.48,11.19-13.5,17.55l-0.47,0.73l-0.62,0.62c-10.34,10.42-21.29,5.59-28.54,2.4
		c-4.35-1.92-8.44-3.74-12.66-3.38c-0.84,0.08-1.66,0.18-2.46,0.29l31.12,90.69c2.46-1.1,4.89-2.34,7.28-3.77
		C627.79,595.93,640.73,583.73,654.19,570.79z M587.87,614.72l-30.96-90.2c-17.44,10.3-22.76,31.79-24.13,39.5
		c-3.07,17.26,3.5,33.38,17.58,43.12C561.06,614.55,574.35,617.04,587.87,614.72z" />
    <path d="M601.11,452.28c4.25,1.19,6.74,5.59,5.55,9.84c-0.98,3.53-4.19,5.84-7.69,5.84c-0.71,0-1.43-0.09-2.14-0.29l-48.5-13.5
		l-27.71,41.16c-1.54,2.29-4.06,3.53-6.63,3.53c-1.53,0-3.08-0.44-4.45-1.37c-3.66-2.46-4.63-7.42-2.17-11.08l24.75-36.76
		l-42.69-11.88c-4.25-1.18-6.73-5.59-5.55-9.83c1.18-4.25,5.59-6.74,9.83-5.56l47.81,13.31l27.71-41.16
		c2.46-3.66,7.43-4.63,11.08-2.16c3.66,2.46,4.63,7.42,2.17,11.08l-24.75,36.76L601.11,452.28z" />
  </g>
  <g class="logo-jcub">
    <path class="st0" d="M943.86,463.37c0,4.19-3.53,6.28-10.59,6.28h-8.44l-4.13,24.41c2.03,1.07,4.81,1.94,8.34,2.6
		c3.53,0.65,7.18,1.16,10.95,1.52c3.77,0.36,6.97,0.54,9.6,0.54c10.17,0,18.19-2.21,24.05-6.64c5.86-4.43,8.79-10.65,8.79-18.67
		V372.38h-38.57V463.37z" />
    <path class="st0" d="M1075.83,465.24c-6.04,0.18-13.55,0.27-22.52,0.27c-4.07,0-7.21-0.86-9.42-2.6c-2.22-1.73-3.74-4.84-4.58-9.33
		c-0.84-4.48-1.26-10.91-1.26-19.29c0-8.37,0.42-14.8,1.26-19.29s2.36-7.59,4.58-9.33c2.21-1.73,5.35-2.6,9.42-2.6
		c5.75,0,10.65,0.03,14.72,0.09s7.9,0.09,11.49,0.09c3.59,0,7.48,0.06,11.67,0.18l2.87-28.36c-4.07-1.19-7.99-2.12-11.76-2.78
		c-3.77-0.66-7.92-1.17-12.47-1.53c-4.55-0.36-10.05-0.54-16.51-0.54c-13.64,0-24.59,2.06-32.85,6.18
		c-8.26,4.13-14.21,10.86-17.86,20.19c-3.65,9.34-5.47,21.9-5.47,37.69c0,15.79,1.82,28.36,5.47,37.69
		c3.65,9.33,9.6,16.06,17.86,20.19c8.25,4.13,19.2,6.19,32.84,6.19c9.69,0,17.8-0.45,24.32-1.35c6.52-0.89,12.89-2.42,19.11-4.57
		l-2.87-28.36C1087.88,464.67,1081.87,465.06,1075.83,465.24z" />
    <path class="st0" d="M1179.14,445.06c0,6.58-0.45,11.66-1.35,15.25s-2.49,6.07-4.76,7.45c-2.27,1.37-5.5,2.06-9.69,2.06
		c-4.19,0-7.45-0.68-9.78-2.06c-2.34-1.38-3.95-3.86-4.85-7.45c-0.9-3.59-1.35-8.67-1.35-15.25v-72.69h-38.94v72.69
		c0,13.16,1.82,23.66,5.47,31.49c3.65,7.84,9.63,13.49,17.95,16.96c8.31,3.47,19.47,5.21,33.47,5.21c12.92,0,23.24-1.74,30.96-5.21
		c7.72-3.47,13.28-9.12,16.69-16.96c3.4-7.83,5.11-18.33,5.11-31.49v-72.69h-38.93V445.06z" />
    <path class="st0" d="M1334.19,442.1c-3.95-5.56-10.89-8.76-20.82-9.6v-1.08c8.14-0.72,13.94-3.38,17.41-7.99
		c3.46-4.6,5.2-11.33,5.2-20.19c0-8.49-1.5-15.08-4.49-19.74c-3-4.67-7.9-7.92-14.72-9.78c-6.82-1.85-15.97-2.78-27.46-2.78
		c-7.89,0-14.86,0.02-20.89,0.07c-6.04,0.06-11.64,0.18-16.78,0.36s-10.41,0.51-15.79,0.99l0,0.01h-0.02V496.2h0.01
		c5.86,0.36,11.64,0.66,17.32,0.9c5.68,0.24,11.9,0.39,18.66,0.45s14.56,0.09,23.42,0.09c10.4,0,18.9-0.93,25.48-2.78
		c6.58-1.85,11.46-5.12,14.63-9.78c3.17-4.66,4.76-11.24,4.76-19.74C1340.11,455.41,1338.14,447.66,1334.19,442.1z M1294.53,398.21
		c1.67,0.6,2.81,1.7,3.41,3.32c0.6,1.61,0.9,4.03,0.9,7.27c0,3.24-0.3,5.72-0.9,7.45c-0.6,1.74-1.7,2.9-3.32,3.5
		c-1.62,0.6-3.92,0.9-6.91,0.9h-13.83v-23.38c4.09,0.03,8.57,0.04,13.47,0.04C1290.46,397.31,1292.85,397.61,1294.53,398.21z
		 M1300.37,466.05c-0.66,2.04-1.95,3.41-3.86,4.13c-1.92,0.72-4.67,1.08-8.26,1.08c-5.06,0-9.84-0.01-14.37-0.03v-27.79h14.19
		c3.71,0,6.49,0.35,8.35,1.07c1.86,0.72,3.14,2.1,3.86,4.13c0.72,2.04,1.08,4.97,1.08,8.8
		C1301.36,461.15,1301.03,464.02,1300.37,466.05z" />
  </g>
  <g class="st2">
    <path class="st3" d="M756.02,1638.04l19.86,57.86c-9.33,1.64-20.34,4.34-31.95,8.79c-6.46,2.47-12.45,5.06-18.07,7.76l-21.23-61.89
		C724.44,1643.7,742.98,1640,756.02,1638.04z" />
    <path class="st3" d="M689.7,1656.28l21.86,63.69c-18.27,10.53-32.07,22.18-44.65,33.92l-23.92-69.69
		C657.28,1672.15,673.57,1663.09,689.7,1656.28z" />
    <path class="st3" d="M556.91,1719.74l30.96,90.2c-13.52,2.32-26.81-0.17-37.51-7.58c-14.08-9.74-20.65-25.86-17.58-43.12
		C534.15,1751.53,539.47,1730.04,556.91,1719.74z" />
    <path class="st3" d="M630.27,1696.35l23.92,69.66c-13.46,12.94-26.4,25.14-43.77,35.47c-2.39,1.43-4.82,2.67-7.28,3.77
		l-31.12-90.69c0.8-0.11,1.62-0.21,2.46-0.29c4.22-0.36,8.31,1.46,12.66,3.38c7.25,3.19,18.2,8.02,28.54-2.4l0.62-0.62l0.47-0.73
		C620.79,1707.54,625.34,1701.71,630.27,1696.35z" />
  </g>
</svg>